<svg id="Слой_1" data-name="Слой 1" xmlns="http://www.w3.org/2000/svg" viewBox="0 0 147.37 249.07"><defs><style>.cls-1,.cls-2{fill:none;stroke:#019875;stroke-miterlimit:10;stroke-width:5px;}.cls-2{stroke-linecap:round;}</style></defs><title>addr</title><path d="M218.26,202.69" transform="translate(-83.5 -115.5)"/><path class="cls-1" d="M111.3,134.5C96.58,146.7,87.61,165,86.18,184c-1.44,20.1,6.1,35.53,16.51,52,16.15,26.2,33.38,51.68,50.61,77.17,0.36,0.36.36,0.72,0.72,1.08a4.38,4.38,0,0,0,3.23,1.44,4.6,4.6,0,0,0,3.59-1.44,1.9,1.9,0,0,0,.72-1.08c14.72-21.89,29.07-43.79,43.43-66,9-14,19.38-28,22.25-44.51A73.06,73.06,0,0,0,213.59,146c-24.41-32.3-71.79-37.33-102.29-11.49h0Z" transform="translate(-83.5 -115.5)"/><path class="cls-1" d="M129.09,198.32a30.15,30.15,0,1,0,14-40.26,30.33,30.33,0,0,0-14,40.26h0Z" transform="translate(-83.5 -115.5)"/><path class="cls-2" d="M122,326s8.93,13.27,36.48,13c28.84-.27,34.18-13,34.18-13" transform="translate(-83.5 -115.5)"/><path class="cls-2" d="M97,340s15.12,22.46,61.78,22c48.83-.45,57.89-22,57.89-22" transform="translate(-83.5 -115.5)"/></svg>