<?xml version="1.0" encoding="utf-8"?>
<!-- Generator: Adobe Illustrator 16.0.0, SVG Export Plug-In . SVG Version: 6.00 Build 0)  -->
<!DOCTYPE svg PUBLIC "-//W3C//DTD SVG 1.1//EN" "http://www.w3.org/Graphics/SVG/1.1/DTD/svg11.dtd">
<svg version="1.1" id="Layer_1" xmlns="http://www.w3.org/2000/svg" xmlns:xlink="http://www.w3.org/1999/xlink" x="0px" y="0px"
	 width="30px" height="30px" viewBox="0 0 30 30" enable-background="new 0 0 30 30" xml:space="preserve">
<g>
	<path fill="#FFFFFF" d="M15,30C6.719,30,0,23.281,0,15S6.719,0,15,0s15,6.719,15,15S23.281,30,15,30z M19.746,22.754
		c0.488-0.488,0.488-1.27,0-1.758L13.75,15l5.996-5.996c0.488-0.488,0.488-1.27,0-1.758l-1.992-1.992
		c-0.488-0.488-1.27-0.488-1.758,0l-8.867,8.867c-0.488,0.488-0.488,1.27,0,1.758l8.867,8.867c0.488,0.488,1.27,0.488,1.758,0
		L19.746,22.754z"/>
</g>
</svg>
