<svg fill="#cbe8dd" xmlns="http://www.w3.org/2000/svg" viewBox="0 0 1096.9 907.8">
  <path d="M257.5 697.4c6 0 10.6-.3 15.2.2 1.4.1 2.7 2.2 3.8 3.6 14.2 18.4 28.5 36.9 42.6 55.4 3 3.9 5.8 4.6 10.7 2.7 21.3-8.1 42.7-15.7 64.2-23.3 11.4-4 10.9-2.2 5.9-13.7-2.6-6-5.5-11.7-8.2-17.7-.9-2.1-1.5-4.3-2.5-7.3 5.1 0 9.4-.3 13.6.2 1.3.1 2.7 2.2 3.5 3.7 4.1 7.6 8 15.3 11.9 23.1 1.4 2.8 2.8 3.7 6.2 3.1 17-2.9 34.1-5.6 51.2-7.8 12-1.6 24.1-2.3 36.2-3.4 2.8-.3 5.7-.3 8.4-.7 6.4-.9 7.4-2.2 7.2-9-.3-9.5-.3-9.3 9.6-9.4 4.2 0 5.5 1.8 5.6 5.6.4 11.8.5 11.6 12 12.5 30.3 2.4 60.5 5.9 90.2 12.4 4 .9 6.1 0 7.8-3.7 3.4-7.4 7.4-14.5 10.8-22 1.7-3.8 4-5.3 8.1-4.8 2.7.3 5.5.1 9.4.1-2.2 5.9-4 10.8-5.9 15.7-2.2 5.4-4.4 10.8-6.7 16.1-1 2.4-.4 3.6 2.1 4.4 24 8.5 47.9 17.1 71.8 25.8 3.1 1.1 4.7-.3 6.3-2.4 13.8-17.8 27.7-35.3 41.1-53.4 3.3-4.5 6.4-7.1 12.1-6.3 2.6.4 5.2.1 8.7.1-1.3 2.4-2.1 4.2-3.1 5.8-12.6 20.5-26.6 39.9-42.5 57.9-4.8 5.5-4.6 7 1.6 10.6 12.1 7 24.3 13.8 36.4 20.9 4.3 2.6 7.8 2.3 11.8-.9 31.6-25.6 58.3-55.6 81.8-88.5 3.4-4.8 6.7-6.8 12.3-5.2 2.1.6 4.5.3 8.3.5-85.4 125.3-201.8 195.3-352.2 206.8-83.3 6.4-162.5-10.6-236.9-48.4-72.6-36.8-130.8-90-176.1-157.8 8.3-4 15.8-2.3 20.5 4.3 23.2 32.7 50 61.9 81.1 87.1 7.7 6.2 8.2 6.3 16.6 1.4 10.5-6.1 21-12.3 31.5-18.4 6.2-3.6 6.5-6.4 2.1-12.3-13-17.1-25.9-34.3-38.7-51.5-2.5-3.2-4.4-7.1-7.4-12.1zm285.1 84.5h.2v44.5c0 3.2.6 5.4 4.4 5.9 9 1.1 18 2.8 27.1 3.8 4.1.5 8.3 1.3 11.7-3.2 19.9-26.3 38.4-53.6 53.9-82.7 3.1-5.8 2.7-6.9-3.8-8.4-28.6-6.4-57.6-9.4-86.9-10.4-5.3-.2-6.6 1.8-6.5 6.6 0 14.6-.1 29.3-.1 43.9zm-15.3.4h-.2v-43.4c0-7.4-.1-7.6-7.7-7.3-9.9.4-19.9.7-29.8 2-18.4 2.4-36.7 5.4-55 8.4-5.7.9-6.4 2.9-3.7 7.8 15.8 29.5 33.9 57.6 55.3 83.4 1.5 1.8 4.9 3.1 7.2 2.9 9.9-1 19.7-2.8 29.5-4.2 3.4-.5 4.6-2.2 4.5-5.7-.2-14.6-.1-29.3-.1-43.9zm-189-7.5c1.6 2.6 2.2 4.6 3.6 5.8 29.4 27.5 60.8 52.3 96.3 71.6 2.9 1.6 5.3 2 8.4.5 6.5-3 13.1-5.8 19.7-8.4 4.2-1.6 5-3.5 2.3-7.3-19.9-27.6-38.5-55.9-54.7-85.8-1.6-2.9-3.7-4.1-7-2.8-1.5.6-3.3.7-4.8 1.3-19.5 7-39 14-58.5 21.2-1.9.5-3.3 2.3-5.3 3.9zm322.2-26.9c-1.2 1.2-2.8 2.1-3.6 3.5-16.4 29-34.2 57.1-53.9 84-4.1 5.7-3.3 7.6 3.1 10 1.2.5 2.5 1 3.7 1.5 20.4 8.4 13.6 8.3 32.2-2.3 31.6-18 60.1-40 85.3-66.2 4.4-4.6 4.1-6.3-1.6-8.6-11.3-4.5-22.5-9.1-34-13-10-3.4-20.4-5.8-31.2-8.9zm-125 144c13.9-.9 27.9-1.1 41.8-2.8 17-2 33.8-5.1 50.6-7.8 1.2-.2 3.2-1.5 3.2-2.2-.1-1.8-.6-4.1-1.9-5.1-2.9-2.4-6.3-4.4-9.7-6.2-42.9-23-88-25.8-134.5-13.8-15.4 4-29.8 10.4-43.1 19.3-1.4.9-3.2 3.3-2.8 4.4.5 1.5 2.8 2.6 4.3 3.7.5.4 1.2.5 1.9.6 29.8 6.1 59.8 9.4 90.2 9.9zm120.7-17.3l1-1 3.9-.9c37.5-10.3 72.4-26.4 105.5-46.6 7.7-4.7 15.1-9.8 22.3-15 4.6-3.3 4.3-6.4-.5-9.2-10.7-6.1-21.4-12.1-32.2-18.1-6.8-3.7-8.4-3.3-14.1 1.7-16.5 14.5-32.5 29.6-49.7 43.3-13.9 11.1-29.2 20.4-43.9 30.4-2.1 1.4-5.1 3.1-2.9 5.7 3.1 3.7 7.1 6.5 10.6 9.7zm-243.2-.5c2.5-1.3 5.2-2.6 7.6-4.2 5.5-3.7 5.4-7.5-.1-10.9-34.4-20.6-66.1-44.8-94-73.7-3.6-3.7-6.9-4.1-11-1.8-11.3 6.3-22.7 12.6-33.9 19.1-3.3 1.9-3.6 5.9-.7 8.7 1.1 1 2.4 1.8 3.6 2.7 31.9 21.8 65.9 39.3 102.4 51.9 8.4 2.9 17.1 5.4 26.1 8.2z"/>
  <path d="M1096.9 462.9c-.4 2.2-1.1 4.5-1.2 6.7-1.9 40.2-11 78.4-32.5 112.8-19 30.4-47.1 49.9-80.4 62-28.3 10.3-57.4 16.1-87.6 17.4-55.8 2.4-107.6-9.6-154.3-41-34.4-23.1-53.8-56.3-64.6-95.4-7.4-26.9-9.4-54.4-7.8-82.1 1.7-28.7 4.7-57.4 16.1-84.3 18.3-43.2 48.5-74 92.8-91 25.8-9.9 52.1-16.7 79.7-18.9 50.1-3.9 98.2 3.3 143.3 26.2 26.9 13.6 50.1 31.6 66.2 57.6 10 16.2 15.9 34 20.7 52.2 4.9 18.8 7.9 38 8.4 57.6 0 1.7.8 3.5 1.2 5.2v15zm-145.6-9.7c-.5-21.1-1.7-41.8-5.9-62.6-4.6-22.9-18-36.1-40.4-41.3-16.8-3.9-33.1-2.7-49.6 1.8-21 5.8-33.3 19.5-35.7 40.7-2.4 20.8-3.3 41.7-4 62.6-.8 21.8.1 43.5 4.9 65 4.6 20.9 15.8 35.2 37.1 40.5 15.2 3.8 30.5 4.5 45.9.9 28.7-6.7 40.5-19 43.8-48.5 2-19.6 2.6-39.4 3.9-59.1z"/>
  <path d="M368.5 625.8c0 8.3-.2 15.2.1 22.1.2 4.4-1.2 5.7-5.6 5.7-25.7-.2-51.3-.2-77 0-4.4 0-5.7-1.2-5.7-5.6.2-45 .1-90 0-135 0-4.3 1-5.8 5.5-5.7 23.3.2 46.7 0 70 .2 2 0 4.9 1.1 5.7 2.6 14.6 25.5 37.1 40.8 64.1 50.5 31.1 11.1 62.6 12.3 94.5 3.9 2.2-.6 4.5-1.4 6.5-2.4 8.7-4.1 10.4-13.8 2.6-19.2-6.6-4.5-14.3-7.8-22-10.1-42.9-13.3-85.9-26-128.8-39.1-33.4-10.2-61.7-28-82.5-56.6-12.9-17.7-18.5-37.7-18.8-59.4-.4-24.3 4.1-47.4 16.7-68.4 14.8-24.7 37.8-38.8 63.9-48.8 17.5-6.7 35.7-10 54.4-11.3 34.4-2.5 68.1 1.4 100.7 12.4 12.5 4.2 23.9 11.6 35.8 17.5 1.5.7 2.9 1.7 4.4 2.3 3.9 1.6 5.7.5 5.8-3.7.2-4.7.2-9.3 0-14-.1-3.3 1.2-4.3 4.4-4.3 25.2.1 50.3.1 75.5 0 3 0 4.5.7 4.5 4.2-.1 42.3-.1 84.6 0 127 0 3.3-1.2 4.4-4.4 4.4-24.8-.1-49.7 0-74.5-.2-1.8 0-4.3-1.2-5.4-2.7-20.8-28.9-50.6-42.6-84.1-50.4-17.5-4.1-35.3-4.7-53.1-3.7-5.8.3-12.2 2.8-17 6.1-9.7 6.7-8.8 18 1.3 24.1 4.5 2.7 9.5 4.7 14.6 6.2 45.7 13.5 91.8 26 137.2 40.2 42 13.2 74.2 39.3 90.2 80.9 16.2 42 8.5 81.8-19.5 117.2-19.8 25-47.3 37.5-77.5 43.8-61.5 12.8-119.9 3.5-174.9-27.1-1.7-1.4-4.1-2.1-7.6-3.6z"/>
  <path d="M0 271c.4-4.4 1.1-8.8 1.1-13.1 0-4 1-5.5 5.3-5.5 81.5.1 163 .1 244.5 0 4.4 0 4.8 2 4.8 5.5 0 28.8 0 57.7.2 86.5 0 4.1-1.2 5.5-5.4 5.5-16-.2-32 .1-48-.2-4.7-.1-5.9 1.6-5.9 6.1.1 65.3.1 130.6 0 196 0 4.6 1.4 6 6 5.9 16-.2 32 0 48-.2 3.9 0 5.2 1.1 5.2 5.1-.1 28.7-.1 57.3 0 86 0 3.8-1 5.2-5 5.2-81.5-.1-163-.1-244.5 0-4.2 0-5-1.6-5-5.3.1-28.7.1-57.3 0-86 0-4 1.5-5.1 5.3-5 15.7.2 31.3-.1 47 .2 5 .1 6.1-1.6 6.1-6.3-.1-65.3-.1-130.6 0-196 0-4.3-1-5.8-5.5-5.7-18 .4-36 .4-54 .5C0 323.6 0 297.3 0 271z"/>
  <path d="M541.9 0c1.7.4 3.4 1.1 5.2 1.1C648.7 4.5 739.3 38 818.8 101.4c35.8 28.5 66.3 62.2 92.2 99.9 1 1.5 1.9 3 2.9 4.5-6.6 3.5-16.4 1.5-20.1-3.9-23.6-33.9-52-63.2-84.4-88.8-3.8-3-6.9-2.9-10.8-.5-11.4 6.9-22.9 13.5-34.5 20.2-4.9 2.8-5.7 4.7-2.6 9.5 1.9 2.9 4.6 5.3 6.6 8.1 13.5 18.4 27 36.9 40.7 55.5-9.2 4.1-16.2 2-21.3-4.6-13.7-17.8-27.8-35.3-41.6-53-2.2-2.8-4.4-3.5-8.1-2.2-23.1 8.4-46.3 16.5-69.5 24.7-2.8 1-4.3 2.1-3 5.4 2.1 5.4 4 10.9 6.1 16.3 1.9 4.7 3.9 9.4 6.3 15.1-5.3 0-9.6.3-13.8-.2-1.5-.2-3.2-2.1-4-3.7-3.7-7.1-7.2-14.3-10.5-21.5-1.8-4-4.2-5.2-8.7-4.2-24.1 5.7-48.6 9-73.4 10.6-7.3.5-14.6 1.5-21.8 1.7-3.6.1-4.6 1.9-4.8 4.9-.1 1 0 2-.1 3-.3 2.9 0 7.9-1.2 8.3-3.8 1.2-8.1.8-12.2.8-.7 0-1.8-1.5-2-2.4-.4-1.9-.3-3.9-.2-5.9.4-7.1-1.6-9.3-8.6-9.5-31.8-1.1-63.2-4.8-94.3-11.4-4-.9-6.3-.1-7.9 3.6-3.2 7.1-6.6 14.2-10 21.2-2.3 4.9-11.7 8-16.2 5.2-.8-.5-1-3-.6-4.2 2.5-6.1 5.4-12.1 8.1-18.2 5.4-12.2 5.3-11.9-6.9-16.1-20.3-7-40.5-14.2-60.5-21.8-4.6-1.7-7.3-1.1-10.2 2.6-12.6 16.1-25.6 32-37.9 48.3-8.1 10.7-7.7 11-22 9.4.9-1.9 1.6-3.6 2.5-5.3 12-20.7 26.1-39.8 41.6-57.9 5.2-6.1 4.8-7.2-2.1-11-11.8-6.6-23.5-13.2-35-20.2-4.1-2.5-7-2.5-10.7.5-31.6 25.2-58.9 54.5-82.6 87.2-3.5 4.8-6.9 7.1-12.7 6.3-2.4-.3-4.9-.1-8.4-.1 1.4-2.2 2.2-3.7 3.2-5.2 66.5-97.7 157.3-160.5 271.9-189 29.4-7.3 59.2-11.9 89.6-12.3 1.6 0 3.1-.7 4.6-1.1h22zm-17.5 125c-.1 0-.1 0 0 0-.1-14.8 0-29.7-.1-44.5 0-2.5.5-5.5-3.6-5.9-10.4-1.2-20.8-2.6-31.1-3.9-3.3-.4-5.7.5-7.7 3.3-3.2 4.5-7 8.5-10 13.1-14.5 22.1-29.1 44.2-43.2 66.6-4.7 7.5-3 10.3 5.1 11.5 18.4 2.8 36.7 5.9 55.2 7.9 10.2 1.1 20.5.3 30.8.6 4.4.1 4.7-2.2 4.7-5.6-.2-14.5-.1-28.8-.1-43.1zm17.2 49.4c2.2 0 3.8.1 5.4 0 9.1-.6 18.3-.8 27.3-2 19.4-2.7 38.7-5.8 58-9 5.7-.9 5.9-1.7 3.2-6.8-15.4-29.3-33.9-56.5-54.4-82.4-2.6-3.2-5.3-3.9-9.1-3.2-8.3 1.4-16.7 2.7-25.1 3.7-4.6.5-6.6 2.1-6.5 7.1.2 27.3.1 54.6.2 82 0 3.2.7 6.7 1 10.6zm114.2-16.7c2-.5 2.8-.8 3.6-.9 21.8-4.8 42.7-12.6 63.1-21.5 6.2-2.7 6.7-5 1.5-9.8-10.1-9.2-20.1-18.5-30.6-27.1-19.7-16.2-40.7-30.5-63.4-42.3-5.4-2.8-10.4-3.4-15.9-.2-4 2.3-8.5 3.8-12.8 5.6-5.9 2.6-6.2 4-2.5 9.2 5.6 7.9 11.4 15.6 16.6 23.7 12.4 19.5 24.5 39.2 36.7 58.8 1 1.8 2.6 3.2 3.7 4.5zM467 66.3c-1.2-1.4-1.9-3-3.2-3.6-6.4-2.9-12.7-5.7-19.3-8-2.2-.7-5.3-.5-7.4.6-35.8 19.1-67.4 43.9-96.9 71.5-4.3 4-3.8 7.7 1.7 9.6 19.9 7.1 39.8 13.8 59.7 20.8 5 1.8 7.9.4 10.4-4.3 15.4-28 32-55.3 51.6-80.6 1.4-1.6 2.2-3.6 3.4-6zm64.3-51.2c-10.8.5-21.7.3-32.4 1.6-19.8 2.3-39.4 5.3-59.1 8.2-1.6.2-3.8 2-4 3.3-.2 1.5 1.1 4 2.4 4.8 7.9 4.6 15.7 9.6 24.1 13.1 33.4 14 68.2 16.5 103.6 10 20.8-3.8 40.4-10.9 58-22.9 1.6-1.1 3-3.6 3-5.5 0-1-2.9-2.7-4.6-3.1-29.9-6.4-60.2-9.7-91-9.5zM318.6 125.4c1.4-1 3-2 4.4-3.2 18.3-15.5 36.2-31.5 55-46.3 12.8-10 26.9-18.4 40.5-27.4 2.8-1.9 4.9-3.8 3.4-7.2-2-4.6-10.7-8.6-15.7-7.3-5.9 1.6-11.7 3.5-17.5 5.5-29.5 10.1-57.7 23.1-84.5 39.1-8.4 5-16.7 10.4-24.6 16.1-5.6 4-5.2 7.1.6 10.4 10.3 5.8 20.6 11.6 30.9 17.3 2.2 1.2 4.6 1.9 7.5 3zm426.6-1.4c2.5-.7 4-.9 5.3-1.6 11.4-6.5 22.9-13 34.2-19.7 3.7-2.2 3.7-5.2.2-7.8-2.8-2.1-5.8-4-8.7-5.9-37.3-24.6-76.9-44.3-120.5-55.5-3.7-1-12.2 3.2-12.9 6.9-.4 2 .6 4.9 2.1 6.3 2.5 2.3 5.9 3.7 8.9 5.5 31.1 19 59.3 41.8 85.4 67.3 1.9 1.7 4.2 3.1 6 4.5z"/>
</svg>
