<svg fill="#cbe8dd" xmlns="http://www.w3.org/2000/svg" viewBox="0 0 61.3 56.2"><path d="M12.1 21.9c.2.2.6.3.9.2.3-.1.6-.3.7-.6.1-.1.6-1.1 2.5-.9 2.4.2 4 1.3 4 1.3.2.1.4.2.6.2s.5-.1.7-.3l6-5.5c.3-.3.4-.8.2-1.2l-2.5-5c2.6-4.4 7.9-4.8 9.5-4.8H36.4c.4 0 .8-.3.9-.6.1-.4 0-.8-.3-1.1C34.4 1.2 31.1 0 27.3 0c-7.6 0-15.5 5-17.1 8.4-1.9 4-4.3 6.4-4.3 6.5-.2.2-.3.5-.3.7 0 .3.1.5.3.7l6.2 5.6zm-.2-12.6C13.1 6.7 20.2 2 27.2 2c2.2 0 4.3.5 6 1.4-2.7.3-7.6 1.4-10.1 6.2-.1.3-.2.6 0 .9l2.4 4.8-4.9 4.5c-.8-.4-2.3-1.1-4.3-1.3h-.6c-1.4 0-2.5.5-3.1 1.1l-4.7-4c.9-1.1 2.6-3.2 4-6.3zM7.1 28.4c.2.2.4.2.6.2h.1c.3 0 .5-.2.7-.4l3.5-4.3c.3-.4.3-1-.1-1.4l-6.5-5.8c-.2-.2-.5-.3-.7-.2-.3 0-.5.1-.7.3L.2 21.1c-.2.2-.3.5-.2.7 0 .3.1.5.3.7l6.8 5.9zm-2.3-9.3l5 4.4-2.2 2.7-5.2-4.4 2.4-2.7zM61 46.7c-.1-.1-.1-.2-.2-.3L43.7 30l-7-6.8L51.1 9.9l.7.7c.2.2.4.3.7.3.3 0 .5-.1.7-.4l5.3-6.3c.2-.2.3-.5.2-.7 0-.3-.2-.5-.4-.7l-2-1.6c-.4-.3-.9-.3-1.3 0l-6.2 5c-.2.2-.4.4-.4.7 0 .3.1.6.3.8l.7.7-14.1 13.4-5.3-5.2c-.4-.4-1-.4-1.4 0l-6.9 6c-.2.2-.3.4-.3.7 0 .3.1.5.3.7l5.2 5.5-.7.6-2.5-2.5c-.4-.4-1-.4-1.4-.1L.5 46.3c-.1.1-.2.2-.3.4-.7 1.7.3 4.4 2.6 6.7 1.7 1.7 3.8 2.8 5.4 2.8.6 0 1-.1 1.5-.4.1 0 .1-.1.2-.2l20.2-20.1c.4-.4.4-1 0-1.4l-2.5-2.5.6-.6 23 24.6.2.2c.4.2.9.4 1.5.4 1.6 0 3.7-1.1 5.4-2.8 2.4-2.4 3.4-5 2.7-6.7zM55.8 3.4l.5.4-3.9 4.6-1.3-1.3 4.7-3.7zM28 34.8L8.6 54.1c-.7.3-2.6-.4-4.4-2.2-1.7-1.7-2.4-3.5-2.2-4.3l20.9-18 5.1 5.2zm29 17.1c-1.8 1.8-3.7 2.4-4.4 2.2L24.1 23.6l5-5 13.2 12.8 16.9 16.2c.2.8-.5 2.6-2.2 4.3z"/></svg>
