<svg fill="#cbe8dd" xmlns="http://www.w3.org/2000/svg" viewBox="0 0 48 67"><path d="M48 17V0L30 3v3h-4c0-2.8-1.2-5-4-5h-6c-1.6 0-2.7.7-3.3 1.9C12.1 1.2 10.4 0 8.5 0 6 0 4 2 4 4.5S6 9 8.5 9c1.4 0 2.7-.7 3.5-1.7V10H7.3C4.7 10 .9 18.6 0 22.6c-.1.4.2.8.7.8h.8c.3 0 .6-.2.7-.5.7-3.1 3.6-9.4 5.2-10.7 0-.2.2-.2.3-.2H12v4c-2.8 0-7 11.2-7 14v32c0 2.8 2.2 5 5 5h19c2.8 0 5-2.2 5-5V30c0-2.8-5.2-14-8-14v-4h4v2l18 3zM8.5 7C7.1 7 6 5.9 6 4.5S7.1 2 8.5 2 11 3.1 11 4.5 9.9 7 8.5 7zM32 4.7l14-2.3v12.3l-14-2.3V4.7zM32 30v32c0 1.7-1.3 3-3 3H10c-1.7 0-3-1.3-3-3V30c0-2.4 3.5-10.9 5.2-12h13.6c1.8 1 6.2 9.8 6.2 12zm-8-14H14V6c0-2 .7-3 2-3h6c1.3 0 2 1 2 3v10zm2-6V8h4v2h-4z"/></svg>
