<svg fill="#cbe8dd" xmlns="http://www.w3.org/2000/svg" viewBox="0 0 62.1 61"><path d="M60.5 2C59.4.7 57.7 0 56 0c-.7 0-1.4.1-2 .3-2.3.8-7 2.2-13.2 2.6-3.1.2-6.2.4-9.4.8-3.7.5-6.9 1.4-9.8 2.5C15.2 8.9 10 13.8 6.9 20.4c-1.4 3.1-2.4 6.4-2.7 9.7-.3 3.6.1 7 1.2 10.2l1.2 3.8c-1.7 2.1-3.5 4.3-5.4 6.8C0 52.5-.3 54.5.3 56.4s2.1 3.3 4 3.9l1.7.5c.5.1 1.1.2 1.7.2 1 0 2-.3 2.9-.7.9-.5 1.7-1.2 2.2-2.1.7-1.1 2.2-3.4 3.8-5.4.2.1.4.2.5.2 1.4.7 3 1.2 4.6 1.5 1.8.4 3.8.6 5.7.6 1.3 0 2.6-.1 3.9-.3 2.9-.4 5.7-1.3 8.5-2.6 2.6-1.3 5.1-2.9 7.3-4.8.4-.3.8-.7 1.1-1.1 1.8-1.8 3.4-3.9 4.8-6.4 1.1-2 2.1-4.2 3.1-6.8 1.4-3.8 2.6-7.9 3.6-12.4.8-3.8 1.6-7.9 2.2-12.5.1-.6.1-1.1.2-1.5.1-1.6-.5-3.4-1.6-4.7zm-3 4.2c-.1.5-.1 1-.2 1.5-1.1 8.1-2.7 16.3-5.6 24-3.9 10.8-13.4 19.7-25.6 19-2.5-.1-5-.7-7.3-1.7-.2-.1-1.3-.7-2.2-1.2-.3-.2-.5-.2-.8-.2-.4 0-.9.2-1.2.5-2.3 2.5-4.6 6.1-5.7 7.8-.3.5-.8.7-1.3.7-.2 0-.3 0-.5-.1L5.6 56c-1.1-.3-1.5-1.6-.8-2.5 3.8-4.9 7.2-9.1 10.8-12.9.7-.7 1.5-1.5 2.4-2.2 2.9-2.6 6-4.9 9.2-6.8 4-2.4 8-4.2 12.1-5.3 1.2-.3 1.9-1.5 1.5-2.7-.3-1.2-1.6-1.9-2.7-1.5-4.5 1.2-8.9 3.2-13.2 5.8-3.4 2.1-6.7 4.5-9.9 7.3-1.9 1.7-3.4 3.2-4.7 4.6 0 0-.7-1.6-.7-1.7-3.5-10.5 2.9-22.7 12.8-27.2 5.8-2.7 12.4-3.1 18.7-3.5 6.6-.4 11.6-1.8 14.4-2.8.2-.1.4-.1.5-.1.9-.1 1.7.7 1.5 1.7z"/></svg>
