<svg fill="#cbe8dd" xmlns="http://www.w3.org/2000/svg" viewBox="0 0 56.9 80"><path d="M54.4 9c-.1-.6-.5-1.2-1.1-1.4C52.5 7.3 34.1-.1 27 0 20.7.1 4.1 7.3 3.4 7.6c-.5.3-.9.8-1 1.4-.2 1.5-5.5 37.1.2 49.9 3.3 7.7 22.7 19.5 24.9 20.8.3.2.6.3.9.3s.7-.1.9-.3c2.2-1.3 21.5-13.2 24.9-20.8 5.8-12.8.5-48.4.2-49.9zm-3.5 48.5c-2.4 5.3-16.3 14.7-22.5 18.6-6.3-3.9-20.2-13.3-22.5-18.6-4.8-10.7-.9-41.1 0-46.9 5.2-2.2 16.9-6.8 21.2-6.9h.1c5 0 18 4.7 23.8 6.9.8 5.9 4.7 36.2-.1 46.9zM45.6 28l-10.8-1.5-4.9-9.7c-.3-.6-.9-1.1-1.6-1-.7 0-1.3.4-1.6 1l-4.8 9.7-10.8 1.6c-.7.1-1.3.6-1.5 1.2-.2.7 0 1.4.5 1.9l7.8 7.5-1.8 10.7c-.1.7.2 1.4.7 1.8.3.2.7.3 1.1.3.3 0 .6-.1.9-.2l9.6-5.1 9.7 5c.6.3 1.4.3 1.9-.1.6-.4.8-1.1.7-1.8l-1.8-10.6 7.8-7.6c.5-.5.7-1.2.5-1.9-.3-.6-.9-1.1-1.6-1.2zm-10 8.8c-.4.4-.6 1-.5 1.6l1.4 8-7.2-3.7c-.5-.3-1.2-.3-1.7 0l-7.2 3.8 1.3-8c.1-.6-.1-1.2-.5-1.6l-5.9-5.6 8.1-1.2c.6-.1 1.1-.5 1.4-1l3.6-7.3 3.6 7.3c.3.5.8.9 1.4 1l8.1 1.1-5.9 5.6z"/></svg>
