<svg fill="#2fa377" xmlns="http://www.w3.org/2000/svg" viewBox="0 0 60.1 67"><path d="M59.5 25.8l-7.2-7.2c-.6-.6-1.7-.6-2.4 0L43.5 25 27.2 41.4c-.2.2-.4.6-.5.9l-1.4 8.6c-.1.5.1 1.1.5 1.4.3.3.7.5 1.2.5h.3l8.6-1.4c.3-.1.7-.2.9-.5l22.8-22.7c.3-.3.5-.7.5-1.2-.1-.4-.3-.8-.6-1.2zM34.7 48.2l-5.8.9.9-5.8 14.9-14.8 4.8 4.8-14.8 14.9zM51.9 31l-4.8-4.8 4-4L56 27l-4.1 4zm-.5 11.6c-.9 0-1.7.7-1.7 1.7v19.4H3.3V3.3h46.4v10.8c0 .9.7 1.7 1.7 1.7.9 0 1.7-.7 1.7-1.7V1.7c0-.9-.7-1.7-1.7-1.7H1.7C.7 0 0 .7 0 1.7v63.7c0 .9.7 1.6 1.7 1.6h49.7c.9 0 1.7-.7 1.7-1.7v-21c0-1-.8-1.7-1.7-1.7zM11.9 19.1c.3.3.8.5 1.2.5s.9-.2 1.2-.5l7.5-7.5c.6-.6.6-1.7 0-2.3-.7-.6-1.7-.6-2.4 0l-6.3 6.3-2.5-2.5c-.7-.6-1.7-.6-2.4 0s-.7 1.7 0 2.3l3.7 3.7zM8.2 35l3.7 3.7c.3.3.8.5 1.2.5s.9-.2 1.2-.5l7.5-7.5c.6-.6.6-1.7 0-2.3-.7-.6-1.7-.6-2.4 0l-6.3 6.3-2.5-2.5c-.7-.6-1.7-.6-2.4 0-.6.6-.6 1.6 0 2.3zm0 19.5l3.7 3.7c.3.3.7.5 1.2.5s.9-.2 1.2-.5l7.5-7.5c.6-.6.6-1.7 0-2.3-.7-.6-1.7-.6-2.4 0l-6.3 6.3-2.5-2.5c-.7-.6-1.7-.6-2.4 0-.6.6-.6 1.6 0 2.3z"/></svg>
