<svg fill="#cbe8dd" xmlns="http://www.w3.org/2000/svg" viewBox="0 0 53 63"><path d="M46.7 26.4v-23c0-1.9-1.6-3.5-3.5-3.5-.8 0-1.6.3-2.2.8-.6-.4-1.3-.7-2.2-.7-.8 0-1.6.3-2.2.8-.6-.5-1.3-.8-2.2-.8-.8 0-1.6.3-2.2.8C31.6.3 30.9 0 30 0c-.8 0-1.6.3-2.2.8-.6-.5-1.3-.8-2.2-.8s-1.6.3-2.2.8c-.5-.5-1.3-.8-2.1-.8-.9 0-1.6.3-2.3.8-.6-.5-1.4-.8-2.3-.8-.8 0-1.6.3-2.2.8-.5-.5-1.3-.8-2.1-.8s-1.6.3-2.2.8C9.6.3 8.8 0 8 0c-.9 0-1.6.3-2.2.8C5.2.3 4.4 0 3.6 0 1.6 0 .1 1.6.1 3.5H0v54.9h6.5L7.6 63l19.3-4.6h19.8v-4.8l6.3-1.5-6.3-25.7zM9.5 59.9l-.4-1.5h6.7l-6.3 1.5zm34.6-4.1H2.6V3.5h.1c0-.5.4-.9.9-.9s.9.4.9.9h2.6c0-.5.4-.9.9-.9s.9.4.9.9h2.6c0-.5.4-.9.9-.9s.9.4.9.9h2.6c0-.5.4-.9.9-.9s.9.4.9.9h2.7c0-.5.4-.9.9-.9s.9.4.9.9h2.6c0-.5.4-.9.9-.9s.9.4.9.9h2.6c0-.5.4-.9.9-.9s.9.4.9.9h2.6c0-.5.4-.9.9-.9s.9.4.9.9H38c0-.5.4-.9.9-.9s.9.4.9.9h2.6c0-.5.4-.9.9-.9s.9.4.9.9v52.3h-.1zm2.6-18.5l3.2 12.9-3.2.8V37.3zm-19-25.9H19V14h8.6v-2.6h.1zM6.8 26.2h33v-2.6h-33v2.6zm0 6.6h33v-2.6h-33v2.6zm0 12.1h33v-2.6h-33v2.6zM9 20H6.8v2.6H9V20zM6.8 41.1h33v-2.6h-33v2.6zM9 34.9H6.8v2.6H9v-2.6zM6.8 51.8h33v-2.6h-33v2.6zM9 45.6H6.8v2.6H9v-2.6z"/></svg>
