<svg id="Слой_1" data-name="Слой 1" xmlns="http://www.w3.org/2000/svg" viewBox="0 0 243.06 173.43"><defs><style>.cls-1,.cls-2,.cls-3{fill:#2fa377;stroke:#2fa377;stroke-miterlimit:10;}.cls-2,.cls-3{stroke-linecap:round;}.cls-2{stroke-width:4px;}.cls-3{stroke-width:5px;}</style></defs><title>letter</title><path class="cls-1" d="M235.83,97.42L122.5,154.62a12.21,12.21,0,0,1-16.4-5.39L68.59,74.94A12.23,12.23,0,0,1,74,58.54L187.34,1.3a12.23,12.23,0,0,1,16.4,5.39L241.25,81a12.21,12.21,0,0,1-5.39,16.4h0ZM76.16,62.91a7.33,7.33,0,0,0-3.23,9.83L110.44,147a7.32,7.32,0,0,0,9.83,3.23L233.63,93a7.3,7.3,0,0,0,3.24-9.8v0L199.35,8.9a7.32,7.32,0,0,0-9.83-3.23Z" transform="translate(0 0.51)"/><path class="cls-1" d="M160.43,88.91A13.59,13.59,0,0,1,151,90.07L70.76,69.66a2.44,2.44,0,0,1-1.76-3v0a2.42,2.42,0,0,1,2.92-1.78l0.08,0,80.2,20.42a9.16,9.16,0,0,0,10.28-5.19L193.65,3.5a2.44,2.44,0,0,1,4.53,1.83h0L167,82a13.58,13.58,0,0,1-6.54,6.94h0Z" transform="translate(0 0.51)"/><line class="cls-2" x1="112.3" y1="132.42" x2="140.7" y2="117.12"/><line class="cls-2" x1="117.37" y1="142.15" x2="159.97" y2="119.38"/><line class="cls-3" x1="7.5" y1="119.93" x2="53.5" y2="98.93"/><line class="cls-3" x1="2.5" y1="152.93" x2="65.5" y2="123.93"/><line class="cls-3" x1="28.5" y1="170.93" x2="74.5" y2="149.93"/></svg>