<?xml version="1.0" encoding="utf-8"?>
<!-- Generator: Adobe Illustrator 19.2.1, SVG Export Plug-In . SVG Version: 6.00 Build 0)  -->
<svg version="1.1" id="Слой_1" xmlns="http://www.w3.org/2000/svg" xmlns:xlink="http://www.w3.org/1999/xlink" x="0px" y="0px"
	 viewBox="0 0 365.3 365.3" style="enable-background:new 0 0 365.3 365.3;" xml:space="preserve">
<style type="text/css">
	.st0{fill-rule:evenodd;clip-rule:evenodd;fill:#143D42;}
	.st1{fill-rule:evenodd;clip-rule:evenodd;fill:#6DEFA7;}
	.st2{fill-rule:evenodd;clip-rule:evenodd;fill:#019875;}
	.st3{clip-path:url(#SVGID_2_);fill-rule:evenodd;clip-rule:evenodd;fill:none;}
	.st4{fill:#1A5455;}
</style>
<path d="M123.4,269.1l-1.5-1l9.8-14.5l1.5,1L123.4,269.1L123.4,269.1z M128.2,251.5l-12,12.8l-0.3-0.3l0.6-17.8l-9.2,9.8l-1.3-1.2
	l12-12.8l0.3,0.3l-0.6,17.6l9-9.7L128.2,251.5L128.2,251.5z M104.1,250l-1.3,1l-5.9-7.6l1.3-1l2.4,3.1l12.5-9.8l1.1,1.4l-12.5,9.8
	L104.1,250L104.1,250z M93.8,239.4l-5-8.7l1.5-0.9l4.1,7.2l4.8-2.7l-4.1-7.1l1.5-0.9l4.1,7.1l6-3.4l-4.1-7.1l1.5-0.9l5,8.6
	L93.8,239.4L93.8,239.4z M86,225.4l-1.3-3.3c-0.7-1.8-1.1-3.1-1.2-3.8c-0.1-1.1,0-2,0.5-2.9c0.5-0.9,1.3-1.5,2.4-1.9
	c0.9-0.3,1.8-0.4,2.6-0.3c0.8,0.2,1.6,0.6,2.2,1.2c0.6,0.6,1.2,1.7,1.8,3l5.4-8.8l0.8,2l-5.4,8.8l0.4,0.9l7.6-2.9l0.6,1.6L86,225.4
	L86,225.4z M87,223.2l5.6-2.1l-1.1-2.8c-0.4-1.1-0.8-1.9-1.2-2.3c-0.4-0.4-0.9-0.7-1.5-0.8c-0.6-0.1-1.1-0.1-1.7,0.1
	c-0.6,0.2-1,0.6-1.3,1c-0.3,0.5-0.5,1-0.5,1.5c0,0.6,0.2,1.4,0.6,2.5L87,223.2L87,223.2z M96.9,205.4l-17.3,3l-0.1-0.4l11.2-13.8
	l-13.2,2.3l-0.3-1.7l17.3-3l0.1,0.4L83.5,206l13.1-2.3L96.9,205.4L96.9,205.4z M76.4,180.1l17.7-7.9l0,1.9l-5.8,2.7l-0.1,7.6
	l5.7,2.8l0,2l-17.4-8.6L76.4,180.1L76.4,180.1z M80.2,180.4l6.3,3.1l0.1-6L80.2,180.4L80.2,180.4z M79,168.8l-1.7-0.3l1.5-9.5
	l1.7,0.3l-0.6,3.9l15.6,2.5l-0.3,1.8l-15.6-2.5L79,168.8L79,168.8z M79.7,155l0.5-1.7l16.9,4.5l-0.5,1.7L79.7,155L79.7,155z
	 M84.6,139.3c1-2.4,2.7-4.1,5.1-5.1c2.3-1,4.7-0.9,7.1,0.1c2.4,1,4,2.7,5,5c1,2.3,0.9,4.7-0.1,7.1c-1,2.4-2.7,4.1-5,5
	c-2.3,0.9-4.7,0.9-7-0.1c-1.6-0.7-2.8-1.6-3.8-3c-1-1.3-1.6-2.8-1.8-4.4C83.7,142.4,83.9,140.8,84.6,139.3L84.6,139.3z M86.2,139.9
	c-0.5,1.2-0.7,2.5-0.5,3.8c0.2,1.3,0.7,2.5,1.5,3.6c0.8,1,1.8,1.8,3.1,2.4c1.9,0.8,3.8,0.8,5.7,0.1c1.9-0.8,3.2-2.1,4-4
	c0.5-1.3,0.7-2.5,0.6-3.9c-0.2-1.3-0.6-2.5-1.4-3.5c-0.8-1-1.8-1.8-3.1-2.4c-1.3-0.5-2.6-0.7-3.9-0.6c-1.3,0.2-2.5,0.6-3.6,1.5
	C87.5,137.7,86.7,138.7,86.2,139.9L86.2,139.9z M106.9,134.5l-14-10.6l0.2-0.3l17.7-1.2l-10.7-8.1l1-1.4l14,10.6l-0.2,0.3l-17.5,1.3
	l10.6,8L106.9,134.5L106.9,134.5z M111.8,102.3l17.7,7.9l-1.4,1.2l-5.9-2.5l-5.7,5l1.7,6.2l-1.5,1.3l-5.3-18.7L111.8,102.3
	L111.8,102.3z M114.1,105.2l1.9,6.8l4.5-3.9L114.1,105.2L114.1,105.2z M122.2,94l1.5-1l8.6,13.3l5.6-3.7l0.9,1.4l-7.1,4.6L122.2,94
	L122.2,94z M158.5,81.1l-1,1.4c-1-0.7-2.1-1.1-3.3-1.3c-1.2-0.2-2.4,0-3.6,0.4c-1.3,0.4-2.5,1.1-3.4,2.2c-0.9,1-1.5,2.2-1.8,3.4
	c-0.3,1.3-0.2,2.6,0.2,3.9c0.7,2,1.9,3.5,3.7,4.4c1.8,0.9,3.8,1,5.9,0.3c2.3-0.8,4-2.3,5-4.6l1.6,0.6c-0.5,1.3-1.3,2.5-2.3,3.5
	c-1.1,1-2.4,1.7-3.9,2.2c-2.9,0.9-5.5,0.7-7.9-0.7c-1.9-1.2-3.3-2.9-4.1-5.3c-0.8-2.4-0.6-4.8,0.6-7c1.2-2.2,3-3.8,5.6-4.6
	c1.6-0.5,3.1-0.7,4.5-0.4C156,79.7,157.3,80.2,158.5,81.1L158.5,81.1z M164.4,76.8l10-1.2l0.2,1.7l-8.2,1l0.7,5.4l8.2-1l0.2,1.7
	l-8.2,1l0.8,6.8l8.2-1l0.2,1.7l-9.9,1.2L164.4,76.8L164.4,76.8z M179.5,75.2h3.5c1.9,0,3.3,0.1,4,0.2c1,0.2,1.9,0.7,2.5,1.5
	c0.7,0.8,1,1.8,1,2.9c0,1-0.2,1.8-0.7,2.5c-0.5,0.7-1.1,1.3-1.9,1.6c-0.8,0.4-2,0.6-3.5,0.6l6.3,8.2h-2.2l-6.3-8.2h-1v8.2h-1.8V75.2
	L179.5,75.2z M181.3,77v6l3,0c1.2,0,2-0.1,2.6-0.3c0.6-0.2,1-0.6,1.3-1.1c0.3-0.5,0.5-1,0.5-1.6c0-0.6-0.2-1.1-0.5-1.6
	c-0.3-0.5-0.7-0.8-1.3-1c-0.5-0.2-1.4-0.3-2.6-0.3H181.3L181.3,77z M194.7,77.6l0.2-1.7l9.5,1.3l-0.2,1.7l-3.9-0.5l-2.2,15.7
	l-1.8-0.2l2.2-15.7L194.7,77.6L194.7,77.6z M208.3,78.4l1.7,0.4l-4.2,17l-1.7-0.4L208.3,78.4L208.3,78.4z M215.5,80.5l8.3,2.9
	l-0.6,1.6l-6.7-2.3l-1.8,5.2l6.7,2.3l-0.6,1.6l-6.7-2.3l-2.8,8.1l-1.6-0.6L215.5,80.5L215.5,80.5z M228,85.5l1.6,0.7l-7.4,15.9
	l-1.6-0.7L228,85.5L228,85.5z M247.2,100.9l-1.7,0.1c-0.1-1.2-0.5-2.4-1.1-3.4c-0.6-1-1.5-1.9-2.5-2.6c-1.2-0.8-2.4-1.2-3.8-1.3
	c-1.4-0.1-2.6,0.2-3.8,0.8c-1.2,0.6-2.1,1.5-2.9,2.7c-1.2,1.8-1.5,3.7-1.1,5.7c0.5,2,1.6,3.6,3.5,4.8c2.1,1.3,4.3,1.7,6.7,0.9
	l0.6,1.6c-1.3,0.5-2.7,0.6-4.2,0.4c-1.4-0.2-2.8-0.7-4.2-1.6c-2.6-1.7-4-3.8-4.4-6.5c-0.3-2.3,0.2-4.4,1.5-6.5
	c1.4-2.2,3.3-3.5,5.8-4c2.5-0.5,4.8,0,7.1,1.5c1.4,0.9,2.4,2,3.2,3.2C246.7,98.1,247.1,99.4,247.2,100.9L247.2,100.9z M259.3,108.2
	l-6.6,18.2l-1.3-1.3l2.1-6l-5.3-5.3l-6,2.1l-1.4-1.4l18.3-6.5L259.3,108.2L259.3,108.2z M256.6,110.7l-6.6,2.4l4.2,4.2L256.6,110.7
	L256.6,110.7z M265.9,118.7l1.4-1l5.4,8l-1.4,1l-2.2-3.2l-13.1,8.9l-1-1.5l13.1-8.9L265.9,118.7L265.9,118.7z M274.3,128.6l0.9,1.5
	l-15,9l-0.9-1.5L274.3,128.6L274.3,128.6z M282,143.6c1,2.5,1,4.9,0,7.2c-1,2.3-2.7,4-5.1,4.9c-2.4,1-4.7,1-7.1,0
	c-2.3-1-4-2.7-4.9-5c-1-2.4-1-4.8,0-7.1c1-2.3,2.6-4,5-4.9c1.6-0.6,3.2-0.8,4.8-0.6c1.6,0.2,3.1,0.8,4.4,1.8
	C280.4,140.9,281.4,142.1,282,143.6L282,143.6z M280.4,144.4c-0.5-1.2-1.3-2.2-2.3-3c-1.1-0.8-2.2-1.3-3.6-1.5
	c-1.3-0.2-2.6,0-3.9,0.5c-1.9,0.8-3.3,2.1-4.1,4c-0.8,1.9-0.8,3.8,0,5.6c0.5,1.3,1.3,2.3,2.3,3.1c1,0.8,2.2,1.3,3.5,1.5
	c1.3,0.2,2.6,0,3.9-0.5c1.3-0.5,2.3-1.3,3.1-2.3c0.8-1,1.3-2.2,1.5-3.5C281.1,146.9,280.9,145.6,280.4,144.4L280.4,144.4z
	 M269,162.5l17.4-2.4l0.1,0.4l-11.7,13.4L288,172l0.2,1.7l-17.4,2.4l-0.1-0.4l11.5-13.3l-13.1,1.8L269,162.5L269,162.5z M274,186
	l0.7,1.6c-2,0.8-3.1,1.9-3.3,3.3c-0.1,0.6,0,1.1,0.2,1.7c0.2,0.5,0.5,1,1,1.3c0.4,0.3,0.9,0.5,1.4,0.6c0.6,0.1,1.2-0.1,1.8-0.4
	c0.8-0.5,1.9-1.4,3.1-2.7c1.3-1.3,2.1-2.2,2.7-2.5c0.9-0.5,1.8-0.7,2.8-0.6c0.8,0.1,1.4,0.3,2,0.8c0.6,0.4,1,1,1.3,1.7
	c0.3,0.7,0.4,1.4,0.3,2.2c-0.1,0.8-0.4,1.6-0.9,2.2c-0.5,0.7-1.3,1.4-2.5,2l-0.9-1.5c0.9-0.6,1.6-1.1,1.9-1.5
	c0.3-0.4,0.5-0.9,0.6-1.5c0.1-0.7-0.1-1.3-0.5-1.8c-0.4-0.5-0.9-0.8-1.5-0.8c-0.4,0-0.8,0-1.1,0.1c-0.4,0.1-0.8,0.4-1.3,0.7
	c-0.2,0.2-0.9,0.9-2,2.1c-1.3,1.4-2.4,2.3-3.3,2.8c-0.9,0.5-1.8,0.7-2.7,0.6c-1.3-0.1-2.3-0.7-3.1-1.8c-0.8-1.1-1.2-2.3-1-3.7
	c0.1-1.1,0.5-2,1.1-2.8C271.6,187.3,272.6,186.6,274,186L274,186z M286.4,202.3l-0.5,2l-8.1,2.6l5.9,6l-0.5,2l-7.5-7.6l-8.1-2
	l0.4-1.7l8.1,2L286.4,202.3L286.4,202.3z M268.6,212.7l0.3,1.7c-2.2,0.3-3.5,1-4,2.3c-0.2,0.5-0.3,1.1-0.2,1.7
	c0.1,0.6,0.3,1.1,0.6,1.5c0.3,0.4,0.7,0.7,1.2,0.9c0.5,0.2,1.2,0.3,1.8,0.1c0.9-0.2,2.2-0.8,3.7-1.7c1.6-0.9,2.7-1.5,3.2-1.6
	c1-0.3,1.9-0.2,2.8,0.1c0.7,0.3,1.3,0.7,1.7,1.3c0.4,0.6,0.7,1.2,0.8,2c0.1,0.8,0,1.5-0.3,2.2c-0.3,0.8-0.8,1.4-1.4,1.9
	c-0.6,0.5-1.6,0.9-3,1.3l-0.5-1.7c1.1-0.3,1.8-0.6,2.2-0.9c0.4-0.3,0.8-0.7,1-1.3c0.3-0.7,0.3-1.3,0.1-1.9c-0.2-0.6-0.6-1-1.2-1.2
	c-0.4-0.1-0.7-0.2-1.1-0.2c-0.4,0-0.9,0.1-1.4,0.4c-0.3,0.1-1.1,0.6-2.5,1.4c-1.6,1-2.9,1.6-3.9,1.8c-1,0.2-1.9,0.1-2.8-0.2
	c-1.2-0.5-2-1.3-2.5-2.6c-0.5-1.2-0.5-2.5,0-3.8c0.4-1,1-1.8,1.9-2.4C265.9,213.3,267.1,212.9,268.6,212.7L268.6,212.7z
	 M274.1,230.9l1.5,0.9l-5,8.2l-1.5-0.9l2-3.4l-13.6-8.2l0.9-1.5l13.6,8.2L274.1,230.9L274.1,230.9z M267.8,244.2l-6.3,7.8l-1.3-1.1
	l5.2-6.4l-4.3-3.5l-5.2,6.4l-1.3-1.1l5.2-6.4l-5.3-4.3l-5.2,6.4l-1.3-1.1l6.3-7.8L267.8,244.2L267.8,244.2z M246.6,242.8l9.1,15.2
	l-0.2,0.2l-14.6-6.7l3.6,15.6l-0.2,0.2l-13-12l1.3-1.1l9.2,8.7l-3.1-13.7l0.3-0.3l12.8,5.9l-6.6-10.9L246.6,242.8L246.6,242.8z"/>
<g>
	<path class="st0" d="M227.5,78.5C147.4,4.2,13.9,23.6,46.7,211.7C3.1,4.4,170.5-17.4,247.2,89.5C241.1,85.2,234.5,81.5,227.5,78.5
		L227.5,78.5z"/>
	<path class="st1" d="M187.3,69.4C79.3,5.9-34.7,99,76.1,276.5c-120-167.1,2.1-301.6,122.6-206.1C194.9,69.9,191.2,69.6,187.3,69.4
		L187.3,69.4z"/>
	<path class="st2" d="M126.5,84.2c-112.7,11.1-189,130.9-17.6,225.4C-81.4,213.1,9,67.5,142,76.8C136.6,78.9,131.4,81.4,126.5,84.2
		L126.5,84.2z"/>
	<path class="st0" d="M76.3,143.5C4.6,223.8,25.5,354.3,211.7,321.8C7,364.9-16.9,202.1,85.6,124.1
		C81.9,130.2,78.8,136.7,76.3,143.5L76.3,143.5z"/>
	<path class="st0" d="M143.5,289.1c80.4,71.6,210.8,50.7,178.4-135.4c43.1,204.7-119.8,228.6-197.7,126.1
		C130.2,283.5,136.7,286.6,143.5,289.1L143.5,289.1z"/>
	<path class="st1" d="M69.4,178C5.9,286,99,400.1,276.5,289.2c-167.1,120-301.6-2.2-206.1-122.6C69.9,170.4,69.6,174.2,69.4,178
		L69.4,178z"/>
	<path class="st1" d="M172.2,295.6C281.9,366,402.1,272.7,289.2,92c121.6,169.3-5.4,305.1-127.4,202.1
		C165.3,294.8,168.7,295.2,172.2,295.6L172.2,295.6z"/>
	<path class="st2" d="M231.8,284.9c116.5-6.7,199.6-129.5,24.6-225.9C450.2,157.1,353,306.3,216.1,291
		C221.5,289.4,226.8,287.3,231.8,284.9L231.8,284.9z"/>
	<path class="st0" d="M286.8,227.5c74.3-80.1,54.9-213.6-133.2-180.8C360.9,3.1,382.7,170.5,275.9,247.2
		C280.2,241.1,283.8,234.5,286.8,227.5L286.8,227.5z"/>
	<path class="st2" d="M84.2,238.9c11.1,112.7,130.9,189,225.4,17.6c-96.4,190.3-242.1,99.9-232.7-33.1
		C78.9,228.7,81.4,233.9,84.2,238.9L84.2,238.9z"/>
	<path class="st1" d="M295.6,193.1C365.9,83.4,272.7-36.7,92,76.1c169.3-121.6,305.1,5.4,202.1,127.3
		C294.8,200.1,295.2,196.6,295.6,193.1L295.6,193.1z"/>
	<path class="st2" d="M284.9,133.6C278.2,17,155.4-66.1,58.9,108.9C157.1-84.8,306.3,12.4,291,149.2
		C289.4,143.8,287.3,138.6,284.9,133.6L284.9,133.6z"/>
	<g>
		<defs>
			<path id="SVGID_1_" d="M69.3,182.7c0-62.6,50.8-113.4,113.4-113.4s113.4,50.8,113.4,113.4S245.3,296,182.7,296
				S69.3,245.3,69.3,182.7L69.3,182.7z M98.6,182.7c0-46.4,37.6-84.1,84.1-84.1c46.4,0,84.1,37.6,84.1,84.1
				c0,46.4-37.6,84.1-84.1,84.1C136.2,266.8,98.6,229.1,98.6,182.7L98.6,182.7z"/>
		</defs>
		<clipPath id="SVGID_2_">
			<use xlink:href="#SVGID_1_"  style="overflow:visible;"/>
		</clipPath>
		<polygon class="st3" points="296.1,69.3 296.1,296 69.3,296 69.3,69.3 296.1,69.3 		"/>
		<path class="st3" d="M182.7,184.6c1,0,1.9-0.8,1.9-1.9s-0.8-1.9-1.9-1.9c-1,0-1.9,0.8-1.9,1.9S181.6,184.6,182.7,184.6
			L182.7,184.6z"/>
		<path class="st3" d="M182.7,183.9c-0.7,0-1.3-0.6-1.3-1.3c0-0.7,0.6-1.3,1.3-1.3c0.7,0,1.3,0.6,1.3,1.3
			C183.9,183.4,183.4,183.9,182.7,183.9L182.7,183.9z M182.7,185.8c1.7,0,3.1-1.4,3.1-3.1s-1.4-3.1-3.1-3.1c-1.7,0-3.1,1.4-3.1,3.1
			S181,185.8,182.7,185.8L182.7,185.8z"/>
		<path class="st3" d="M182.7,185.2c-1.4,0-2.5-1.1-2.5-2.5s1.1-2.5,2.5-2.5c1.4,0,2.5,1.1,2.5,2.5S184.1,185.2,182.7,185.2
			L182.7,185.2z M182.7,187.1c2.4,0,4.4-2,4.4-4.4c0-2.4-2-4.4-4.4-4.4s-4.4,2-4.4,4.4C178.3,185.1,180.3,187.1,182.7,187.1
			L182.7,187.1z"/>
		<path class="st3" d="M182.7,186.4c-2.1,0-3.8-1.7-3.8-3.8s1.7-3.8,3.8-3.8c2.1,0,3.8,1.7,3.8,3.8S184.8,186.4,182.7,186.4
			L182.7,186.4z M182.7,188.3c3.1,0,5.6-2.5,5.6-5.6c0-3.1-2.5-5.6-5.6-5.6c-3.1,0-5.6,2.5-5.6,5.6
			C177,185.8,179.6,188.3,182.7,188.3L182.7,188.3z"/>
		<path class="st3" d="M182.7,187.7c-2.8,0-5-2.2-5-5c0-2.8,2.2-5,5-5c2.8,0,5,2.2,5,5C187.7,185.4,185.4,187.7,182.7,187.7
			L182.7,187.7z M182.7,189.6c3.8,0,6.9-3.1,6.9-6.9c0-3.8-3.1-6.9-6.9-6.9c-3.8,0-6.9,3.1-6.9,6.9
			C175.8,186.5,178.9,189.6,182.7,189.6L182.7,189.6z"/>
		<path class="st3" d="M182.7,188.9c-3.5,0-6.3-2.8-6.3-6.3c0-3.5,2.8-6.3,6.3-6.3c3.5,0,6.3,2.8,6.3,6.3
			C188.9,186.1,186.1,188.9,182.7,188.9L182.7,188.9z M182.7,190.8c4.5,0,8.1-3.6,8.1-8.1s-3.6-8.1-8.1-8.1c-4.5,0-8.1,3.6-8.1,8.1
			S178.2,190.8,182.7,190.8L182.7,190.8z"/>
		<path class="st3" d="M182.7,190.2c-4.2,0-7.5-3.4-7.5-7.5s3.4-7.5,7.5-7.5c4.2,0,7.5,3.4,7.5,7.5S186.8,190.2,182.7,190.2
			L182.7,190.2z M182.7,192.1c5.2,0,9.4-4.2,9.4-9.4s-4.2-9.4-9.4-9.4c-5.2,0-9.4,4.2-9.4,9.4S177.5,192.1,182.7,192.1L182.7,192.1z
			"/>
		<path class="st3" d="M182.7,191.4c-4.8,0-8.8-3.9-8.8-8.8s3.9-8.8,8.8-8.8c4.8,0,8.8,3.9,8.8,8.8S187.5,191.4,182.7,191.4
			L182.7,191.4z M182.7,193.3c5.9,0,10.6-4.8,10.6-10.6s-4.8-10.6-10.6-10.6c-5.9,0-10.6,4.8-10.6,10.6S176.8,193.3,182.7,193.3
			L182.7,193.3z"/>
		<path class="st3" d="M182.7,192.7c-5.5,0-10-4.5-10-10c0-5.5,4.5-10,10-10c5.5,0,10,4.5,10,10
			C192.7,188.2,188.2,192.7,182.7,192.7L182.7,192.7z M182.7,194.6c6.6,0,11.9-5.3,11.9-11.9c0-6.6-5.3-11.9-11.9-11.9
			c-6.6,0-11.9,5.3-11.9,11.9C170.8,189.3,176.1,194.6,182.7,194.6L182.7,194.6z"/>
		<path class="st3" d="M182.7,194c-6.2,0-11.3-5-11.3-11.3s5-11.3,11.3-11.3c6.2,0,11.3,5,11.3,11.3S188.9,194,182.7,194L182.7,194z
			 M182.7,195.8c7.3,0,13.2-5.9,13.2-13.2s-5.9-13.2-13.2-13.2c-7.3,0-13.2,5.9-13.2,13.2S175.4,195.8,182.7,195.8L182.7,195.8z"/>
		<path class="st3" d="M182.7,195.2c-6.9,0-12.5-5.6-12.5-12.5s5.6-12.5,12.5-12.5c6.9,0,12.5,5.6,12.5,12.5
			S189.6,195.2,182.7,195.2L182.7,195.2z M182.7,197.1c8,0,14.4-6.4,14.4-14.4s-6.4-14.4-14.4-14.4c-8,0-14.4,6.4-14.4,14.4
			S174.7,197.1,182.7,197.1L182.7,197.1z"/>
		<path class="st3" d="M182.7,196.5c-7.6,0-13.8-6.2-13.8-13.8c0-7.6,6.2-13.8,13.8-13.8c7.6,0,13.8,6.2,13.8,13.8
			C196.5,190.3,190.3,196.5,182.7,196.5L182.7,196.5z M182.7,198.3c8.6,0,15.7-7,15.7-15.7c0-8.6-7-15.7-15.7-15.7
			c-8.6,0-15.7,7-15.7,15.7C167,191.3,174,198.3,182.7,198.3L182.7,198.3z"/>
		<path class="st3" d="M182.7,197.7c-8.3,0-15-6.7-15-15c0-8.3,6.7-15,15-15c8.3,0,15,6.7,15,15C197.7,191,191,197.7,182.7,197.7
			L182.7,197.7z M182.7,199.6c9.3,0,16.9-7.6,16.9-16.9c0-9.3-7.6-16.9-16.9-16.9c-9.3,0-16.9,7.6-16.9,16.9
			C165.8,192,173.3,199.6,182.7,199.6L182.7,199.6z"/>
		<path class="st3" d="M182.7,199c-9,0-16.3-7.3-16.3-16.3c0-9,7.3-16.3,16.3-16.3c9,0,16.3,7.3,16.3,16.3
			C199,191.7,191.7,199,182.7,199L182.7,199z M182.7,200.8c10,0,18.2-8.1,18.2-18.2s-8.1-18.2-18.2-18.2c-10,0-18.2,8.1-18.2,18.2
			S172.6,200.8,182.7,200.8L182.7,200.8z"/>
		<path class="st3" d="M182.7,200.2c-9.7,0-17.5-7.9-17.5-17.5s7.9-17.5,17.5-17.5s17.5,7.9,17.5,17.5S192.4,200.2,182.7,200.2
			L182.7,200.2z M182.7,202.1c10.7,0,19.4-8.7,19.4-19.4s-8.7-19.4-19.4-19.4c-10.7,0-19.4,8.7-19.4,19.4S172,202.1,182.7,202.1
			L182.7,202.1z"/>
		<path class="st3" d="M182.7,201.5c-10.4,0-18.8-8.4-18.8-18.8s8.4-18.8,18.8-18.8c10.4,0,18.8,8.4,18.8,18.8
			S193.1,201.5,182.7,201.5L182.7,201.5z M182.7,203.3c11.4,0,20.7-9.3,20.7-20.7c0-11.4-9.3-20.7-20.7-20.7
			c-11.4,0-20.7,9.3-20.7,20.7C162,194.1,171.3,203.3,182.7,203.3L182.7,203.3z"/>
		<path class="st3" d="M182.7,202.7c-11.1,0-20-9-20-20c0-11.1,9-20,20-20c11.1,0,20,9,20,20C202.7,193.7,193.7,202.7,182.7,202.7
			L182.7,202.7z M182.7,204.6c12.1,0,21.9-9.8,21.9-21.9c0-12.1-9.8-21.9-21.9-21.9s-21.9,9.8-21.9,21.9
			C160.8,194.8,170.6,204.6,182.7,204.6L182.7,204.6z"/>
		<path class="st3" d="M182.7,204c-11.8,0-21.3-9.5-21.3-21.3c0-11.8,9.5-21.3,21.3-21.3c11.8,0,21.3,9.5,21.3,21.3
			C204,194.4,194.4,204,182.7,204L182.7,204z M182.7,205.9c12.8,0,23.2-10.4,23.2-23.2s-10.4-23.2-23.2-23.2
			c-12.8,0-23.2,10.4-23.2,23.2S169.9,205.9,182.7,205.9L182.7,205.9z"/>
		<path class="st3" d="M182.7,205.2c-12.5,0-22.5-10.1-22.5-22.5s10.1-22.5,22.5-22.5c12.5,0,22.5,10.1,22.5,22.5
			S195.1,205.2,182.7,205.2L182.7,205.2z M182.7,207.1c13.5,0,24.4-10.9,24.4-24.4c0-13.5-10.9-24.4-24.4-24.4
			c-13.5,0-24.4,10.9-24.4,24.4C158.3,196.2,169.2,207.1,182.7,207.1L182.7,207.1z"/>
		<path class="st3" d="M182.7,206.5c-13.1,0-23.8-10.7-23.8-23.8s10.7-23.8,23.8-23.8c13.1,0,23.8,10.7,23.8,23.8
			S195.8,206.5,182.7,206.5L182.7,206.5z M182.7,208.4c14.2,0,25.7-11.5,25.7-25.7c0-14.2-11.5-25.7-25.7-25.7
			c-14.2,0-25.7,11.5-25.7,25.7C157,196.9,168.5,208.4,182.7,208.4L182.7,208.4z"/>
		<path class="st3" d="M182.7,207.7c-13.8,0-25.1-11.2-25.1-25.1c0-13.8,11.2-25.1,25.1-25.1c13.8,0,25.1,11.2,25.1,25.1
			C207.7,196.5,196.5,207.7,182.7,207.7L182.7,207.7z M182.7,209.6c14.9,0,26.9-12.1,26.9-26.9c0-14.9-12.1-26.9-26.9-26.9
			c-14.9,0-26.9,12.1-26.9,26.9C155.7,197.6,167.8,209.6,182.7,209.6L182.7,209.6z"/>
		<path class="st3" d="M182.7,209c-14.5,0-26.3-11.8-26.3-26.3c0-14.5,11.8-26.3,26.3-26.3s26.3,11.8,26.3,26.3
			C209,197.2,197.2,209,182.7,209L182.7,209z M182.7,210.9c15.6,0,28.2-12.6,28.2-28.2c0-15.6-12.6-28.2-28.2-28.2
			c-15.6,0-28.2,12.6-28.2,28.2C154.5,198.2,167.1,210.9,182.7,210.9L182.7,210.9z"/>
		<path class="st3" d="M182.7,210.2c-15.2,0-27.6-12.3-27.6-27.6s12.3-27.6,27.6-27.6c15.2,0,27.6,12.3,27.6,27.6
			S197.9,210.2,182.7,210.2L182.7,210.2z M182.7,212.1c16.3,0,29.4-13.2,29.4-29.4s-13.2-29.4-29.4-29.4
			c-16.3,0-29.4,13.2-29.4,29.4S166.4,212.1,182.7,212.1L182.7,212.1z"/>
		<path class="st3" d="M182.7,211.5c-15.9,0-28.8-12.9-28.8-28.8c0-15.9,12.9-28.8,28.8-28.8c15.9,0,28.8,12.9,28.8,28.8
			C211.5,198.6,198.6,211.5,182.7,211.5L182.7,211.5z M182.7,213.4c16.9,0,30.7-13.7,30.7-30.7S199.6,152,182.7,152
			c-16.9,0-30.7,13.7-30.7,30.7S165.7,213.4,182.7,213.4L182.7,213.4z"/>
		<path class="st3" d="M182.7,212.7c-16.6,0-30.1-13.5-30.1-30.1s13.5-30.1,30.1-30.1c16.6,0,30.1,13.5,30.1,30.1
			S199.3,212.7,182.7,212.7L182.7,212.7z M182.7,214.6c17.6,0,31.9-14.3,31.9-31.9c0-17.6-14.3-31.9-31.9-31.9
			c-17.6,0-31.9,14.3-31.9,31.9C150.7,200.3,165,214.6,182.7,214.6L182.7,214.6z"/>
		<path class="st3" d="M182.7,214c-17.3,0-31.3-14-31.3-31.3s14-31.3,31.3-31.3c17.3,0,31.3,14,31.3,31.3S200,214,182.7,214
			L182.7,214z M182.7,215.9c18.3,0,33.2-14.9,33.2-33.2c0-18.3-14.9-33.2-33.2-33.2s-33.2,14.9-33.2,33.2
			C149.5,201,164.3,215.9,182.7,215.9L182.7,215.9z"/>
		<path class="st3" d="M182.7,215.2c-18,0-32.6-14.6-32.6-32.6s14.6-32.6,32.6-32.6c18,0,32.6,14.6,32.6,32.6
			S200.7,215.2,182.7,215.2L182.7,215.2z M182.7,217.1c19,0,34.4-15.4,34.4-34.4c0-19-15.4-34.4-34.4-34.4
			c-19,0-34.4,15.4-34.4,34.4C148.2,201.7,163.7,217.1,182.7,217.1L182.7,217.1z"/>
		<path class="st3" d="M182.7,216.5c-18.7,0-33.8-15.1-33.8-33.8c0-18.7,15.1-33.8,33.8-33.8c18.7,0,33.8,15.1,33.8,33.8
			C216.5,201.4,201.4,216.5,182.7,216.5L182.7,216.5z M182.7,218.4c19.7,0,35.7-16,35.7-35.7s-16-35.7-35.7-35.7
			c-19.7,0-35.7,16-35.7,35.7S163,218.4,182.7,218.4L182.7,218.4z"/>
		<path class="st3" d="M182.7,217.8c-19.4,0-35.1-15.7-35.1-35.1c0-19.4,15.7-35.1,35.1-35.1c19.4,0,35.1,15.7,35.1,35.1
			C217.8,202,202,217.8,182.7,217.8L182.7,217.8z M182.7,219.6c20.4,0,37-16.5,37-37c0-20.4-16.5-37-37-37c-20.4,0-37,16.5-37,37
			C145.7,203.1,162.3,219.6,182.7,219.6L182.7,219.6z"/>
		<path class="st3" d="M182.7,219c-20.1,0-36.3-16.3-36.3-36.3c0-20.1,16.3-36.3,36.3-36.3c20.1,0,36.3,16.3,36.3,36.3
			C219,202.7,202.7,219,182.7,219L182.7,219z M182.7,220.9c21.1,0,38.2-17.1,38.2-38.2s-17.1-38.2-38.2-38.2
			c-21.1,0-38.2,17.1-38.2,38.2S161.6,220.9,182.7,220.9L182.7,220.9z"/>
		<path class="st3" d="M182.7,220.3c-20.8,0-37.6-16.8-37.6-37.6s16.8-37.6,37.6-37.6c20.8,0,37.6,16.8,37.6,37.6
			S203.4,220.3,182.7,220.3L182.7,220.3z M182.7,222.1c21.8,0,39.5-17.7,39.5-39.5c0-21.8-17.7-39.5-39.5-39.5
			c-21.8,0-39.5,17.7-39.5,39.5C143.2,204.5,160.9,222.1,182.7,222.1L182.7,222.1z"/>
		<path class="st3" d="M182.7,221.5c-21.4,0-38.8-17.4-38.8-38.8s17.4-38.8,38.8-38.8c21.4,0,38.8,17.4,38.8,38.8
			S204.1,221.5,182.7,221.5L182.7,221.5z M182.7,223.4c22.5,0,40.7-18.2,40.7-40.7S205.2,142,182.7,142c-22.5,0-40.7,18.2-40.7,40.7
			S160.2,223.4,182.7,223.4L182.7,223.4z"/>
		<path class="st3" d="M182.7,222.8c-22.1,0-40.1-17.9-40.1-40.1s17.9-40.1,40.1-40.1c22.1,0,40.1,17.9,40.1,40.1
			S204.8,222.8,182.7,222.8L182.7,222.8z M182.7,224.6c23.2,0,42-18.8,42-42c0-23.2-18.8-42-42-42c-23.2,0-42,18.8-42,42
			C140.7,205.9,159.5,224.6,182.7,224.6L182.7,224.6z"/>
		<path class="st3" d="M182.7,224c-22.8,0-41.3-18.5-41.3-41.3s18.5-41.3,41.3-41.3s41.3,18.5,41.3,41.3S205.5,224,182.7,224
			L182.7,224z M182.7,225.9c23.9,0,43.2-19.3,43.2-43.2c0-23.9-19.3-43.2-43.2-43.2c-23.9,0-43.2,19.3-43.2,43.2
			C139.5,206.5,158.8,225.9,182.7,225.9L182.7,225.9z"/>
		<path class="st3" d="M182.7,225.3c-23.5,0-42.6-19.1-42.6-42.6s19.1-42.6,42.6-42.6c23.5,0,42.6,19.1,42.6,42.6
			S206.2,225.3,182.7,225.3L182.7,225.3z M182.7,227.1c24.6,0,44.5-19.9,44.5-44.5s-19.9-44.5-44.5-44.5
			c-24.6,0-44.5,19.9-44.5,44.5S158.1,227.1,182.7,227.1L182.7,227.1z"/>
		<path class="st3" d="M182.7,226.5c-24.2,0-43.8-19.6-43.8-43.8c0-24.2,19.6-43.8,43.8-43.8s43.8,19.6,43.8,43.8
			C226.5,206.9,206.9,226.5,182.7,226.5L182.7,226.5z M182.7,228.4c25.3,0,45.7-20.5,45.7-45.7c0-25.3-20.5-45.7-45.7-45.7
			c-25.3,0-45.7,20.5-45.7,45.7C137,207.9,157.4,228.4,182.7,228.4L182.7,228.4z"/>
		<path class="st3" d="M182.7,227.8c-24.9,0-45.1-20.2-45.1-45.1c0-24.9,20.2-45.1,45.1-45.1c24.9,0,45.1,20.2,45.1,45.1
			C227.8,207.6,207.6,227.8,182.7,227.8L182.7,227.8z M182.7,229.7c25.9,0,47-21,47-47s-21-47-47-47c-25.9,0-47,21-47,47
			S156.7,229.7,182.7,229.7L182.7,229.7z"/>
		<path class="st3" d="M182.7,229c-25.6,0-46.3-20.7-46.3-46.3c0-25.6,20.7-46.3,46.3-46.3s46.3,20.7,46.3,46.3
			C229,208.3,208.3,229,182.7,229L182.7,229z M182.7,230.9c26.6,0,48.2-21.6,48.2-48.2s-21.6-48.2-48.2-48.2s-48.2,21.6-48.2,48.2
			S156,230.9,182.7,230.9L182.7,230.9z"/>
		<path class="st3" d="M182.7,230.3c-26.3,0-47.6-21.3-47.6-47.6c0-26.3,21.3-47.6,47.6-47.6c26.3,0,47.6,21.3,47.6,47.6
			C230.3,209,209,230.3,182.7,230.3L182.7,230.3z M182.7,232.2c27.3,0,49.5-22.2,49.5-49.5c0-27.3-22.2-49.5-49.5-49.5
			c-27.3,0-49.5,22.2-49.5,49.5C133.2,210,155.4,232.2,182.7,232.2L182.7,232.2z"/>
		<path class="st3" d="M182.7,231.5c-27,0-48.9-21.9-48.9-48.9c0-27,21.9-48.9,48.9-48.9s48.9,21.9,48.9,48.9
			C231.5,209.7,209.7,231.5,182.7,231.5L182.7,231.5z M182.7,233.4c28,0,50.7-22.7,50.7-50.7s-22.7-50.7-50.7-50.7
			c-28,0-50.7,22.7-50.7,50.7S154.7,233.4,182.7,233.4L182.7,233.4z"/>
		<path class="st3" d="M182.7,232.8c-27.7,0-50.1-22.4-50.1-50.1c0-27.7,22.4-50.1,50.1-50.1c27.7,0,50.1,22.4,50.1,50.1
			C232.8,210.3,210.4,232.8,182.7,232.8L182.7,232.8z M182.7,234.7c28.7,0,52-23.3,52-52c0-28.7-23.3-52-52-52
			c-28.7,0-52,23.3-52,52C130.7,211.4,154,234.7,182.7,234.7L182.7,234.7z"/>
		<path class="st3" d="M182.7,234c-28.4,0-51.4-23-51.4-51.4c0-28.4,23-51.4,51.4-51.4c28.4,0,51.4,23,51.4,51.4
			C234,211,211,234,182.7,234L182.7,234z M182.7,235.9c29.4,0,53.2-23.8,53.2-53.2c0-29.4-23.8-53.2-53.2-53.2s-53.2,23.8-53.2,53.2
			C129.4,212.1,153.3,235.9,182.7,235.9L182.7,235.9z"/>
		<path class="st3" d="M182.7,235.3c-29.1,0-52.6-23.6-52.6-52.6s23.6-52.6,52.6-52.6c29.1,0,52.6,23.6,52.6,52.6
			S211.7,235.3,182.7,235.3L182.7,235.3z M182.7,237.2c30.1,0,54.5-24.4,54.5-54.5c0-30.1-24.4-54.5-54.5-54.5
			c-30.1,0-54.5,24.4-54.5,54.5C128.2,212.8,152.6,237.2,182.7,237.2L182.7,237.2z"/>
		<path class="st3" d="M182.7,236.5c-29.7,0-53.9-24.1-53.9-53.9s24.1-53.9,53.9-53.9c29.7,0,53.9,24.1,53.9,53.9
			S212.4,236.5,182.7,236.5L182.7,236.5z M182.7,238.4c30.8,0,55.7-25,55.7-55.7s-25-55.7-55.7-55.7s-55.7,25-55.7,55.7
			S151.9,238.4,182.7,238.4L182.7,238.4z"/>
		<path class="st3" d="M182.7,237.8c-30.4,0-55.1-24.7-55.1-55.1s24.7-55.1,55.1-55.1c30.4,0,55.1,24.7,55.1,55.1
			S213.1,237.8,182.7,237.8L182.7,237.8z M182.7,239.7c31.5,0,57-25.5,57-57s-25.5-57-57-57s-57,25.5-57,57S151.2,239.7,182.7,239.7
			L182.7,239.7z"/>
		<path class="st3" d="M182.7,239c-31.1,0-56.4-25.2-56.4-56.4s25.2-56.4,56.4-56.4s56.4,25.2,56.4,56.4S213.8,239,182.7,239
			L182.7,239z M182.7,240.9c32.2,0,58.2-26.1,58.2-58.2s-26.1-58.2-58.2-58.2s-58.2,26.1-58.2,58.2S150.5,240.9,182.7,240.9
			L182.7,240.9z"/>
		<path class="st3" d="M182.7,240.3c-31.8,0-57.6-25.8-57.6-57.6s25.8-57.6,57.6-57.6s57.6,25.8,57.6,57.6S214.5,240.3,182.7,240.3
			L182.7,240.3z M182.7,242.2c32.9,0,59.5-26.6,59.5-59.5c0-32.9-26.6-59.5-59.5-59.5c-32.9,0-59.5,26.6-59.5,59.5
			C123.2,215.5,149.8,242.2,182.7,242.2L182.7,242.2z"/>
		<path class="st3" d="M182.7,241.5c-32.5,0-58.9-26.4-58.9-58.9s26.4-58.9,58.9-58.9s58.9,26.4,58.9,58.9S215.2,241.5,182.7,241.5
			L182.7,241.5z M182.7,243.4c33.6,0,60.8-27.2,60.8-60.8s-27.2-60.8-60.8-60.8c-33.6,0-60.8,27.2-60.8,60.8
			S149.1,243.4,182.7,243.4L182.7,243.4z"/>
		<path class="st3" d="M182.7,242.8c-33.2,0-60.1-26.9-60.1-60.1s26.9-60.1,60.1-60.1s60.1,26.9,60.1,60.1S215.9,242.8,182.7,242.8
			L182.7,242.8z M182.7,244.7c34.2,0,62-27.8,62-62s-27.8-62-62-62s-62,27.8-62,62S148.4,244.7,182.7,244.7L182.7,244.7z"/>
		<path class="st3" d="M182.7,244.1c-33.9,0-61.4-27.5-61.4-61.4s27.5-61.4,61.4-61.4s61.4,27.5,61.4,61.4S216.6,244.1,182.7,244.1
			L182.7,244.1z M182.7,245.9c34.9,0,63.3-28.3,63.3-63.3s-28.3-63.3-63.3-63.3s-63.3,28.3-63.3,63.3S147.7,245.9,182.7,245.9
			L182.7,245.9z"/>
		<path class="st3" d="M182.7,245.3c-34.6,0-62.6-28-62.6-62.6c0-34.6,28-62.6,62.6-62.6s62.6,28,62.6,62.6
			C245.3,217.3,217.3,245.3,182.7,245.3L182.7,245.3z M182.7,247.2c35.6,0,64.5-28.9,64.5-64.5s-28.9-64.5-64.5-64.5
			s-64.5,28.9-64.5,64.5S147.1,247.2,182.7,247.2L182.7,247.2z"/>
		<path class="st3" d="M182.7,246.6c-35.3,0-63.9-28.6-63.9-63.9s28.6-63.9,63.9-63.9s63.9,28.6,63.9,63.9S218,246.6,182.7,246.6
			L182.7,246.6z M182.7,248.4c36.3,0,65.8-29.4,65.8-65.8s-29.4-65.8-65.8-65.8s-65.8,29.4-65.8,65.8S146.4,248.4,182.7,248.4
			L182.7,248.4z"/>
		<path class="st3" d="M182.7,247.8c-36,0-65.1-29.2-65.1-65.1s29.2-65.1,65.1-65.1s65.1,29.2,65.1,65.1S218.7,247.8,182.7,247.8
			L182.7,247.8z M182.7,249.7c37,0,67-30,67-67c0-37-30-67-67-67s-67,30-67,67C115.7,219.7,145.7,249.7,182.7,249.7L182.7,249.7z"/>
		<path class="st3" d="M182.7,249.1c-36.7,0-66.4-29.7-66.4-66.4s29.7-66.4,66.4-66.4s66.4,29.7,66.4,66.4S219.3,249.1,182.7,249.1
			L182.7,249.1z M182.7,250.9c37.7,0,68.3-30.6,68.3-68.3s-30.6-68.3-68.3-68.3s-68.3,30.6-68.3,68.3S145,250.9,182.7,250.9
			L182.7,250.9z"/>
		<path class="st3" d="M182.7,250.3c-37.4,0-67.6-30.3-67.6-67.6s30.3-67.6,67.6-67.6s67.6,30.3,67.6,67.6S220,250.3,182.7,250.3
			L182.7,250.3z M182.7,252.2c38.4,0,69.5-31.1,69.5-69.5s-31.1-69.5-69.5-69.5s-69.5,31.1-69.5,69.5S144.3,252.2,182.7,252.2
			L182.7,252.2z"/>
		<path class="st3" d="M182.7,251.6c-38,0-68.9-30.8-68.9-68.9s30.8-68.9,68.9-68.9s68.9,30.8,68.9,68.9S220.7,251.6,182.7,251.6
			L182.7,251.6z M182.7,253.4c39.1,0,70.8-31.7,70.8-70.8c0-39.1-31.7-70.8-70.8-70.8c-39.1,0-70.8,31.7-70.8,70.8
			C111.9,221.8,143.6,253.4,182.7,253.4L182.7,253.4z"/>
		<path class="st3" d="M182.7,252.8c-38.7,0-70.1-31.4-70.1-70.1s31.4-70.1,70.1-70.1s70.1,31.4,70.1,70.1S221.4,252.8,182.7,252.8
			L182.7,252.8z M182.7,254.7c39.8,0,72-32.2,72-72c0-39.8-32.2-72-72-72s-72,32.2-72,72C110.7,222.5,142.9,254.7,182.7,254.7
			L182.7,254.7z"/>
		<path class="st3" d="M182.7,254.1c-39.4,0-71.4-32-71.4-71.4c0-39.4,32-71.4,71.4-71.4s71.4,32,71.4,71.4
			C254.1,222.1,222.1,254.1,182.7,254.1L182.7,254.1z M182.7,256c40.5,0,73.3-32.8,73.3-73.3c0-40.5-32.8-73.3-73.3-73.3
			s-73.3,32.8-73.3,73.3C109.4,223.1,142.2,256,182.7,256L182.7,256z"/>
		<path class="st3" d="M182.7,255.3c-40.1,0-72.7-32.5-72.7-72.6s32.5-72.6,72.7-72.6s72.6,32.5,72.6,72.6S222.8,255.3,182.7,255.3
			L182.7,255.3z M182.7,257.2c41.2,0,74.5-33.4,74.5-74.5c0-41.2-33.4-74.5-74.5-74.5c-41.2,0-74.5,33.4-74.5,74.5
			C108.2,223.8,141.5,257.2,182.7,257.2L182.7,257.2z"/>
		<path class="st3" d="M182.7,256.6c-40.8,0-73.9-33.1-73.9-73.9c0-40.8,33.1-73.9,73.9-73.9s73.9,33.1,73.9,73.9
			C256.6,223.5,223.5,256.6,182.7,256.6L182.7,256.6z M182.7,258.5c41.9,0,75.8-33.9,75.8-75.8s-33.9-75.8-75.8-75.8
			c-41.9,0-75.8,33.9-75.8,75.8S140.8,258.5,182.7,258.5L182.7,258.5z"/>
		<path class="st3" d="M182.7,257.8c-41.5,0-75.2-33.6-75.2-75.2s33.6-75.2,75.2-75.2s75.2,33.6,75.2,75.2S224.2,257.8,182.7,257.8
			L182.7,257.8z M182.7,259.7c42.5,0,77-34.5,77-77c0-42.5-34.5-77-77-77s-77,34.5-77,77C105.6,225.2,140.1,259.7,182.7,259.7
			L182.7,259.7z"/>
		<path class="st3" d="M182.7,259.1c-42.2,0-76.4-34.2-76.4-76.4s34.2-76.4,76.4-76.4c42.2,0,76.4,34.2,76.4,76.4
			S224.9,259.1,182.7,259.1L182.7,259.1z M182.7,261c43.2,0,78.3-35.1,78.3-78.3s-35.1-78.3-78.3-78.3s-78.3,35.1-78.3,78.3
			S139.4,261,182.7,261L182.7,261z"/>
		<path class="st3" d="M182.7,260.3c-42.9,0-77.7-34.8-77.7-77.7c0-42.9,34.8-77.7,77.7-77.7c42.9,0,77.7,34.8,77.7,77.7
			C260.3,225.6,225.6,260.3,182.7,260.3L182.7,260.3z M182.7,262.2c43.9,0,79.5-35.6,79.5-79.5s-35.6-79.5-79.5-79.5
			s-79.5,35.6-79.5,79.5S138.8,262.2,182.7,262.2L182.7,262.2z"/>
		<path class="st3" d="M182.7,261.6c-43.6,0-78.9-35.3-78.9-78.9s35.3-78.9,78.9-78.9s78.9,35.3,78.9,78.9S226.3,261.6,182.7,261.6
			L182.7,261.6z M182.7,263.5c44.6,0,80.8-36.2,80.8-80.8c0-44.6-36.2-80.8-80.8-80.8s-80.8,36.2-80.8,80.8
			C101.9,227.3,138.1,263.5,182.7,263.5L182.7,263.5z"/>
		<path class="st3" d="M182.7,262.8c-44.3,0-80.2-35.9-80.2-80.2s35.9-80.2,80.2-80.2s80.2,35.9,80.2,80.2S227,262.8,182.7,262.8
			L182.7,262.8z M182.7,264.7c45.3,0,82-36.7,82-82s-36.7-82-82-82s-82,36.7-82,82S137.4,264.7,182.7,264.7L182.7,264.7z"/>
		<path class="st3" d="M182.7,264.1c-45,0-81.4-36.5-81.4-81.4c0-45,36.5-81.4,81.4-81.4c45,0,81.4,36.5,81.4,81.4
			C264.1,227.6,227.6,264.1,182.7,264.1L182.7,264.1z M182.7,266c46,0,83.3-37.3,83.3-83.3s-37.3-83.3-83.3-83.3
			s-83.3,37.3-83.3,83.3S136.7,266,182.7,266L182.7,266z"/>
		<path class="st3" d="M182.7,265.3c-45.7,0-82.7-37-82.7-82.7s37-82.7,82.7-82.7c45.7,0,82.7,37,82.7,82.7S228.3,265.3,182.7,265.3
			L182.7,265.3z M182.7,267.2c46.7,0,84.5-37.9,84.5-84.5s-37.9-84.5-84.5-84.5S98.1,136,98.1,182.7S136,267.2,182.7,267.2
			L182.7,267.2z"/>
		<path class="st3" d="M182.7,266.6c-46.3,0-83.9-37.6-83.9-83.9s37.6-83.9,83.9-83.9s83.9,37.6,83.9,83.9S229,266.6,182.7,266.6
			L182.7,266.6z M182.7,268.5c47.4,0,85.8-38.4,85.8-85.8c0-47.4-38.4-85.8-85.8-85.8s-85.8,38.4-85.8,85.8
			C96.9,230.1,135.3,268.5,182.7,268.5L182.7,268.5z"/>
		<path class="st3" d="M182.7,267.9c-47,0-85.2-38.1-85.2-85.2s38.1-85.2,85.2-85.2s85.2,38.1,85.2,85.2S229.7,267.9,182.7,267.9
			L182.7,267.9z M182.7,269.7c48.1,0,87.1-39,87.1-87.1s-39-87.1-87.1-87.1s-87.1,39-87.1,87.1S134.6,269.7,182.7,269.7L182.7,269.7
			z"/>
		<path class="st3" d="M182.7,269.1c-47.7,0-86.4-38.7-86.4-86.4c0-47.7,38.7-86.4,86.4-86.4c47.7,0,86.4,38.7,86.4,86.4
			C269.1,230.4,230.4,269.1,182.7,269.1L182.7,269.1z M182.7,271c48.8,0,88.3-39.5,88.3-88.3s-39.5-88.3-88.3-88.3
			c-48.8,0-88.3,39.5-88.3,88.3S133.9,271,182.7,271L182.7,271z"/>
		<path class="st3" d="M182.7,270.4c-48.4,0-87.7-39.3-87.7-87.7S134.3,95,182.7,95s87.7,39.3,87.7,87.7S231.1,270.4,182.7,270.4
			L182.7,270.4z M182.7,272.2c49.5,0,89.6-40.1,89.6-89.6s-40.1-89.6-89.6-89.6s-89.6,40.1-89.6,89.6S133.2,272.2,182.7,272.2
			L182.7,272.2z"/>
		<path class="st3" d="M182.7,271.6c-49.1,0-88.9-39.8-88.9-88.9s39.8-88.9,88.9-88.9s88.9,39.8,88.9,88.9S231.8,271.6,182.7,271.6
			L182.7,271.6z M182.7,273.5c50.2,0,90.8-40.7,90.8-90.8s-40.7-90.8-90.8-90.8s-90.8,40.7-90.8,90.8S132.5,273.5,182.7,273.5
			L182.7,273.5z"/>
		<path class="st3" d="M182.7,272.9c-49.8,0-90.2-40.4-90.2-90.2s40.4-90.2,90.2-90.2s90.2,40.4,90.2,90.2S232.5,272.9,182.7,272.9
			L182.7,272.9z M182.7,274.7c50.8,0,92.1-41.2,92.1-92.1s-41.2-92.1-92.1-92.1c-50.8,0-92.1,41.2-92.1,92.1
			S131.8,274.7,182.7,274.7L182.7,274.7z"/>
		<path class="st3" d="M182.7,274.1c-50.5,0-91.4-40.9-91.4-91.4s40.9-91.4,91.4-91.4c50.5,0,91.4,40.9,91.4,91.4
			S233.2,274.1,182.7,274.1L182.7,274.1z M182.7,276c51.5,0,93.3-41.8,93.3-93.3s-41.8-93.3-93.3-93.3c-51.5,0-93.3,41.8-93.3,93.3
			S131.1,276,182.7,276L182.7,276z"/>
		<path class="st3" d="M182.7,275.4c-51.2,0-92.7-41.5-92.7-92.7S131.5,90,182.7,90c51.2,0,92.7,41.5,92.7,92.7
			S233.9,275.4,182.7,275.4L182.7,275.4z M182.7,277.2c52.2,0,94.6-42.3,94.6-94.6s-42.3-94.6-94.6-94.6s-94.6,42.3-94.6,94.6
			S130.4,277.2,182.7,277.2L182.7,277.2z"/>
		<path class="st3" d="M182.7,276.6c-51.9,0-93.9-42.1-93.9-93.9c0-51.9,42.1-93.9,93.9-93.9s93.9,42.1,93.9,93.9
			C276.6,234.6,234.6,276.6,182.7,276.6L182.7,276.6z M182.7,278.5c52.9,0,95.8-42.9,95.8-95.8c0-52.9-42.9-95.8-95.8-95.8
			s-95.8,42.9-95.8,95.8C86.9,235.6,129.8,278.5,182.7,278.5L182.7,278.5z"/>
		<path class="st3" d="M182.7,277.9c-52.6,0-95.2-42.6-95.2-95.2c0-52.6,42.6-95.2,95.2-95.2s95.2,42.6,95.2,95.2
			C277.9,235.3,235.3,277.9,182.7,277.9L182.7,277.9z M182.7,279.8c53.6,0,97.1-43.5,97.1-97.1s-43.5-97.1-97.1-97.1
			s-97.1,43.5-97.1,97.1S129.1,279.8,182.7,279.8L182.7,279.8z"/>
		<path class="st3" d="M182.7,279.1c-53.3,0-96.4-43.2-96.4-96.4c0-53.3,43.2-96.4,96.4-96.4c53.3,0,96.4,43.2,96.4,96.4
			C279.1,235.9,235.9,279.1,182.7,279.1L182.7,279.1z M182.7,281c54.3,0,98.3-44,98.3-98.3s-44-98.3-98.3-98.3s-98.3,44-98.3,98.3
			S128.4,281,182.7,281L182.7,281z"/>
		<path class="st3" d="M182.7,280.4c-54,0-97.7-43.7-97.7-97.7S128.7,85,182.7,85s97.7,43.7,97.7,97.7S236.6,280.4,182.7,280.4
			L182.7,280.4z M182.7,282.3c55,0,99.6-44.6,99.6-99.6s-44.6-99.6-99.6-99.6s-99.6,44.6-99.6,99.6S127.7,282.3,182.7,282.3
			L182.7,282.3z"/>
		<path class="st3" d="M289,92c-54.7,0-99-44.3-99-99s44.3-99,99-99s99,44.3,99,99S343.7,92,289,92L289,92z M289,93.9
			c55.7,0,100.8-45.1,100.8-100.8S344.7-107.8,289-107.8S188.2-62.6,188.2-7S233.3,93.9,289,93.9L289,93.9z"/>
		<path class="st3" d="M182.7,282.9c-55.3,0-100.2-44.9-100.2-100.2S127.3,82.5,182.7,82.5s100.2,44.9,100.2,100.2
			S238,282.9,182.7,282.9L182.7,282.9z M182.7,284.8c56.4,0,102.1-45.7,102.1-102.1S239.1,80.6,182.7,80.6S80.6,126.3,80.6,182.7
			S126.3,284.8,182.7,284.8L182.7,284.8z"/>
		<path class="st3" d="M182.7,284.1c-56,0-101.5-45.4-101.5-101.5c0-56,45.4-101.5,101.5-101.5s101.5,45.4,101.5,101.5
			C284.1,238.7,238.7,284.1,182.7,284.1L182.7,284.1z M182.7,286c57.1,0,103.3-46.3,103.3-103.3c0-57.1-46.3-103.3-103.3-103.3
			S79.3,125.6,79.3,182.7C79.3,239.8,125.6,286,182.7,286L182.7,286z"/>
		<path class="st3" d="M182.7,285.4C126,285.4,80,239.4,80,182.7C80,126,126,80,182.7,80s102.7,46,102.7,102.7
			C285.4,239.4,239.4,285.4,182.7,285.4L182.7,285.4z M182.7,287.3c57.8,0,104.6-46.8,104.6-104.6S240.4,78.1,182.7,78.1
			c-57.8,0-104.6,46.8-104.6,104.6S124.9,287.3,182.7,287.3L182.7,287.3z"/>
		<path class="st3" d="M182.7,286.6c-57.4,0-104-46.5-104-104s46.5-104,104-104c57.4,0,104,46.5,104,104S240.1,286.6,182.7,286.6
			L182.7,286.6z M182.7,288.5c58.5,0,105.8-47.4,105.8-105.8S241.1,76.8,182.7,76.8S76.8,124.2,76.8,182.7S124.2,288.5,182.7,288.5
			L182.7,288.5z"/>
		<path class="st3" d="M182.7,287.9c-58.1,0-105.2-47.1-105.2-105.2c0-58.1,47.1-105.2,105.2-105.2s105.2,47.1,105.2,105.2
			C287.9,240.8,240.8,287.9,182.7,287.9L182.7,287.9z M182.7,289.8c59.1,0,107.1-47.9,107.1-107.1S241.8,75.6,182.7,75.6
			c-59.1,0-107.1,47.9-107.1,107.1S123.5,289.8,182.7,289.8L182.7,289.8z"/>
		<path class="st3" d="M182.7,289.1c-58.8,0-106.5-47.7-106.5-106.5S123.9,76.2,182.7,76.2s106.5,47.7,106.5,106.5
			S241.5,289.1,182.7,289.1L182.7,289.1z M182.7,291c59.8,0,108.3-48.5,108.3-108.3S242.5,74.3,182.7,74.3S74.3,122.8,74.3,182.7
			S122.8,291,182.7,291L182.7,291z"/>
		<path class="st3" d="M182.7,290.4C123.2,290.4,75,242.2,75,182.7S123.2,75,182.7,75s107.7,48.2,107.7,107.7
			S242.2,290.4,182.7,290.4L182.7,290.4z M182.7,292.3c60.5,0,109.6-49.1,109.6-109.6S243.2,73.1,182.7,73.1S73.1,122.1,73.1,182.7
			S122.1,292.3,182.7,292.3L182.7,292.3z"/>
		<path class="st3" d="M182.7,291.7c-60.2,0-109-48.8-109-109s48.8-109,109-109c60.2,0,109,48.8,109,109S242.9,291.7,182.7,291.7
			L182.7,291.7z M182.7,293.5c61.2,0,110.9-49.6,110.9-110.9S243.9,71.8,182.7,71.8S71.8,121.5,71.8,182.7S121.5,293.5,182.7,293.5
			L182.7,293.5z"/>
		<path class="st3" d="M182.7,292.9c-60.9,0-110.2-49.4-110.2-110.2c0-60.9,49.4-110.2,110.2-110.2s110.2,49.4,110.2,110.2
			C292.9,243.6,243.6,292.9,182.7,292.9L182.7,292.9z M182.7,294.8c61.9,0,112.1-50.2,112.1-112.1S244.6,70.6,182.7,70.6
			S70.6,120.8,70.6,182.7S120.8,294.8,182.7,294.8L182.7,294.8z"/>
		<path class="st3" d="M182.7,294.2c-61.6,0-111.5-49.9-111.5-111.5S121.1,71.2,182.7,71.2s111.5,49.9,111.5,111.5
			S244.2,294.2,182.7,294.2L182.7,294.2z M182.7,296c62.6,0,113.4-50.8,113.4-113.4S245.3,69.3,182.7,69.3
			c-62.6,0-113.4,50.8-113.4,113.4S120.1,296,182.7,296L182.7,296z"/>
		<path class="st3" d="M182.7,295.4c-62.3,0-112.7-50.5-112.7-112.7S120.4,69.9,182.7,69.9s112.7,50.5,112.7,112.7
			S244.9,295.4,182.7,295.4L182.7,295.4z M182.7,297.3c63.3,0,114.6-51.3,114.6-114.6S246,68.1,182.7,68.1S68.1,119.4,68.1,182.7
			S119.4,297.3,182.7,297.3L182.7,297.3z"/>
		<path class="st3" d="M182.7,296.7c-63,0-114-51-114-114s51-114,114-114s114,51,114,114S245.6,296.7,182.7,296.7L182.7,296.7z
			 M182.7,298.5c64,0,115.9-51.9,115.9-115.9S246.7,66.8,182.7,66.8S66.8,118.7,66.8,182.7S118.7,298.5,182.7,298.5L182.7,298.5z"/>
		<path class="st3" d="M182.7,297.9c-63.6,0-115.2-51.6-115.2-115.2S119,67.4,182.7,67.4S297.9,119,297.9,182.7
			S246.3,297.9,182.7,297.9L182.7,297.9z M182.7,299.8c64.7,0,117.1-52.4,117.1-117.1S247.4,65.6,182.7,65.6S65.6,118,65.6,182.7
			S118,299.8,182.7,299.8L182.7,299.8z"/>
		<path class="st3" d="M182.7,299.2c-64.3,0-116.5-52.2-116.5-116.5S118.3,66.2,182.7,66.2s116.5,52.2,116.5,116.5
			S247,299.2,182.7,299.2L182.7,299.2z M182.7,301c65.4,0,118.4-53,118.4-118.4s-53-118.4-118.4-118.4s-118.4,53-118.4,118.4
			S117.3,301,182.7,301L182.7,301z"/>
		<path class="st3" d="M182.7,300.4c-65,0-117.7-52.7-117.7-117.7S117.7,64.9,182.7,64.9s117.7,52.7,117.7,117.7
			S247.7,300.4,182.7,300.4L182.7,300.4z M182.7,302.3c66.1,0,119.6-53.6,119.6-119.6S248.7,63.1,182.7,63.1S63.1,116.6,63.1,182.7
			S116.6,302.3,182.7,302.3L182.7,302.3z"/>
		<path class="st3" d="M182.7,301.7c-65.7,0-119-53.3-119-119s53.3-119,119-119s119,53.3,119,119S248.4,301.7,182.7,301.7
			L182.7,301.7z M182.7,303.6c66.8,0,120.9-54.1,120.9-120.9S249.4,61.8,182.7,61.8S61.8,115.9,61.8,182.7S115.9,303.6,182.7,303.6
			L182.7,303.6z"/>
		<path class="st3" d="M182.7,302.9c-66.4,0-120.2-53.8-120.2-120.2S116.3,62.4,182.7,62.4s120.2,53.8,120.2,120.2
			S249.1,302.9,182.7,302.9L182.7,302.9z M182.7,304.8c67.4,0,122.1-54.7,122.1-122.1S250.1,60.6,182.7,60.6S60.6,115.2,60.6,182.7
			S115.2,304.8,182.7,304.8L182.7,304.8z"/>
		<path class="st3" d="M182.7,304.2c-67.1,0-121.5-54.4-121.5-121.5S115.6,61.2,182.7,61.2s121.5,54.4,121.5,121.5
			S249.8,304.2,182.7,304.2L182.7,304.2z M182.7,306.1c68.1,0,123.4-55.2,123.4-123.4S250.8,59.3,182.7,59.3S59.3,114.5,59.3,182.7
			S114.5,306.1,182.7,306.1L182.7,306.1z"/>
		<path class="st3" d="M182.7,305.4c-67.8,0-122.8-55-122.8-122.8s55-122.8,122.8-122.8s122.8,55,122.8,122.8
			S250.5,305.4,182.7,305.4L182.7,305.4z M182.7,307.3c68.8,0,124.6-55.8,124.6-124.6S251.5,58,182.7,58S58,113.8,58,182.7
			S113.8,307.3,182.7,307.3L182.7,307.3z"/>
		<path class="st3" d="M182.7,306.7c-68.5,0-124-55.5-124-124s55.5-124,124-124c68.5,0,124,55.5,124,124S251.2,306.7,182.7,306.7
			L182.7,306.7z M182.7,308.6c69.5,0,125.9-56.4,125.9-125.9S252.2,56.8,182.7,56.8S56.8,113.2,56.8,182.7S113.2,308.6,182.7,308.6
			L182.7,308.6z"/>
		<path class="st3" d="M182.7,307.9c-69.2,0-125.3-56.1-125.3-125.3S113.5,57.4,182.7,57.4c69.2,0,125.3,56.1,125.3,125.3
			S251.9,307.9,182.7,307.9L182.7,307.9z M182.7,309.8c70.2,0,127.1-56.9,127.1-127.1S252.9,55.5,182.7,55.5S55.5,112.5,55.5,182.7
			S112.5,309.8,182.7,309.8L182.7,309.8z"/>
		<path class="st3" d="M182.7,309.2c-69.9,0-126.5-56.6-126.5-126.5S112.8,56.2,182.7,56.2s126.5,56.6,126.5,126.5
			S252.5,309.2,182.7,309.2L182.7,309.2z M182.7,311.1c70.9,0,128.4-57.5,128.4-128.4S253.6,54.3,182.7,54.3S54.3,111.8,54.3,182.7
			S111.8,311.1,182.7,311.1L182.7,311.1z"/>
		<path class="st3" d="M182.7,310.4c-70.6,0-127.8-57.2-127.8-127.8S112.1,54.9,182.7,54.9s127.8,57.2,127.8,127.8
			S253.2,310.4,182.7,310.4L182.7,310.4z M182.7,312.3c71.6,0,129.6-58,129.6-129.6S254.3,53,182.7,53S53,111.1,53,182.7
			S111.1,312.3,182.7,312.3L182.7,312.3z"/>
		<path class="st3" d="M182.7,311.7c-71.3,0-129-57.8-129-129s57.8-129,129-129s129,57.8,129,129S253.9,311.7,182.7,311.7
			L182.7,311.7z M182.7,313.6c72.3,0,130.9-58.6,130.9-130.9S255,51.8,182.7,51.8S51.8,110.4,51.8,182.7S110.4,313.6,182.7,313.6
			L182.7,313.6z"/>
		<path class="st3" d="M182.7,312.9c-71.9,0-130.3-58.3-130.3-130.3S110.7,52.4,182.7,52.4s130.3,58.3,130.3,130.3
			S254.6,312.9,182.7,312.9L182.7,312.9z M182.7,314.8c73,0,132.1-59.2,132.1-132.1S255.7,50.5,182.7,50.5S50.5,109.7,50.5,182.7
			S109.7,314.8,182.7,314.8L182.7,314.8z"/>
		<path class="st3" d="M182.7,314.2c-72.6,0-131.5-58.9-131.5-131.5S110,51.2,182.7,51.2S314.2,110,314.2,182.7
			S255.3,314.2,182.7,314.2L182.7,314.2z M182.7,316.1c73.7,0,133.4-59.7,133.4-133.4S256.4,49.3,182.7,49.3S49.3,109,49.3,182.7
			S109,316.1,182.7,316.1L182.7,316.1z"/>
		<path class="st3" d="M182.7,315.5c-73.3,0-132.8-59.4-132.8-132.8S109.4,49.9,182.7,49.9s132.8,59.4,132.8,132.8
			S256,315.5,182.7,315.5L182.7,315.5z M182.7,317.3c74.4,0,134.7-60.3,134.7-134.7S257,48,182.7,48S48,108.3,48,182.7
			S108.3,317.3,182.7,317.3L182.7,317.3z"/>
		<path class="st3" d="M182.7,316.7c-74,0-134-60-134-134s60-134,134-134s134,60,134,134S256.7,316.7,182.7,316.7L182.7,316.7z
			 M182.7,318.6c75.1,0,135.9-60.8,135.9-135.9S257.7,46.8,182.7,46.8c-75.1,0-135.9,60.8-135.9,135.9S107.6,318.6,182.7,318.6
			L182.7,318.6z"/>
		<path class="st3" d="M182.7,318C108,318,47.4,257.4,47.4,182.7S108,47.4,182.7,47.4C257.4,47.4,318,108,318,182.7
			S257.4,318,182.7,318L182.7,318z M182.7,319.8c75.8,0,137.2-61.4,137.2-137.2S258.4,45.5,182.7,45.5S45.5,106.9,45.5,182.7
			S106.9,319.8,182.7,319.8L182.7,319.8z"/>
		<path class="st3" d="M182.7,319.2c-75.4,0-136.5-61.1-136.5-136.5S107.3,46.1,182.7,46.1s136.5,61.1,136.5,136.5
			S258.1,319.2,182.7,319.2L182.7,319.2z M182.7,321.1c76.4,0,138.4-62,138.4-138.4s-62-138.4-138.4-138.4s-138.4,62-138.4,138.4
			S106.2,321.1,182.7,321.1L182.7,321.1z"/>
		<path class="st3" d="M182.7,320.5c-76.1,0-137.8-61.7-137.8-137.8S106.6,44.9,182.7,44.9c76.1,0,137.8,61.7,137.8,137.8
			S258.8,320.5,182.7,320.5L182.7,320.5z M182.7,322.3c77.1,0,139.7-62.5,139.7-139.7S259.8,43,182.7,43S43,105.5,43,182.7
			S105.5,322.3,182.7,322.3L182.7,322.3z"/>
		<path class="st3" d="M182.7,321.7c-76.8,0-139-62.2-139-139s62.2-139,139-139s139,62.2,139,139S259.5,321.7,182.7,321.7
			L182.7,321.7z M182.7,323.6c77.8,0,140.9-63.1,140.9-140.9S260.5,41.8,182.7,41.8S41.8,104.9,41.8,182.7S104.9,323.6,182.7,323.6
			L182.7,323.6z"/>
		<path class="st3" d="M182.7,323c-77.5,0-140.3-62.8-140.3-140.3S105.2,42.4,182.7,42.4c77.5,0,140.3,62.8,140.3,140.3
			S260.2,323,182.7,323L182.7,323z M182.7,324.8c78.5,0,142.2-63.7,142.2-142.2S261.2,40.5,182.7,40.5S40.5,104.2,40.5,182.7
			S104.2,324.8,182.7,324.8L182.7,324.8z"/>
		<path class="st3" d="M182.7,324.2c-78.2,0-141.5-63.4-141.5-141.5S104.5,41.1,182.7,41.1s141.5,63.4,141.5,141.5
			S260.9,324.2,182.7,324.2L182.7,324.2z M182.7,326.1c79.2,0,143.4-64.2,143.4-143.4S261.9,39.3,182.7,39.3S39.3,103.5,39.3,182.7
			S103.5,326.1,182.7,326.1L182.7,326.1z"/>
		<path class="st3" d="M182.7,325.5c-78.9,0-142.8-63.9-142.8-142.8S103.8,39.9,182.7,39.9s142.8,63.9,142.8,142.8
			S261.5,325.5,182.7,325.5L182.7,325.5z M182.7,327.4c79.9,0,144.7-64.8,144.7-144.7S262.6,38,182.7,38S38,102.8,38,182.7
			S102.8,327.4,182.7,327.4L182.7,327.4z"/>
		<path class="st3" d="M182.7,326.7c-79.6,0-144-64.5-144-144s64.5-144,144-144s144,64.5,144,144S262.2,326.7,182.7,326.7
			L182.7,326.7z M182.7,328.6c80.6,0,145.9-65.3,145.9-145.9S263.3,36.8,182.7,36.8S36.8,102.1,36.8,182.7S102.1,328.6,182.7,328.6
			L182.7,328.6z"/>
		<path class="st3" d="M182.7,328c-80.2,0-145.3-65.1-145.3-145.3S102.4,37.4,182.7,37.4S328,102.4,328,182.7S262.9,328,182.7,328
			L182.7,328z M182.7,329.9c81.3,0,147.2-65.9,147.2-147.2S264,35.5,182.7,35.5S35.5,101.4,35.5,182.7S101.4,329.9,182.7,329.9
			L182.7,329.9z"/>
		<path class="st3" d="M182.7,329.2c-80.9,0-146.6-65.6-146.6-146.6S101.7,36.1,182.7,36.1s146.6,65.6,146.6,146.6
			S263.6,329.2,182.7,329.2L182.7,329.2z M182.7,331.1c82,0,148.4-66.5,148.4-148.4S264.7,34.2,182.7,34.2S34.2,100.7,34.2,182.7
			S100.7,331.1,182.7,331.1L182.7,331.1z"/>
		<path class="st3" d="M182.7,330.5c-81.6,0-147.8-66.2-147.8-147.8S101,34.9,182.7,34.9S330.5,101,330.5,182.7
			S264.3,330.5,182.7,330.5L182.7,330.5z M182.7,332.4c82.7,0,149.7-67,149.7-149.7S265.3,33,182.7,33C100,33,33,100,33,182.7
			S100,332.4,182.7,332.4L182.7,332.4z"/>
		<path class="st3" d="M182.7,331.7c-82.3,0-149.1-66.7-149.1-149.1S100.4,33.6,182.7,33.6s149.1,66.7,149.1,149.1
			S265,331.7,182.7,331.7L182.7,331.7z M182.7,333.6c83.4,0,150.9-67.6,150.9-150.9S266,31.7,182.7,31.7
			c-83.4,0-150.9,67.6-150.9,150.9S99.3,333.6,182.7,333.6L182.7,333.6z"/>
		<path class="st3" d="M182.7,333c-83,0-150.3-67.3-150.3-150.3S99.7,32.4,182.7,32.4c83,0,150.3,67.3,150.3,150.3
			S265.7,333,182.7,333L182.7,333z M182.7,334.9c84.1,0,152.2-68.1,152.2-152.2S266.7,30.5,182.7,30.5S30.5,98.6,30.5,182.7
			S98.6,334.9,182.7,334.9L182.7,334.9z"/>
		<path class="st3" d="M182.7,334.2c-83.7,0-151.6-67.9-151.6-151.6S99,31.1,182.7,31.1S334.2,99,334.2,182.7
			S266.4,334.2,182.7,334.2L182.7,334.2z M182.7,336.1c84.7,0,153.4-68.7,153.4-153.4S267.4,29.2,182.7,29.2S29.2,97.9,29.2,182.7
			S97.9,336.1,182.7,336.1L182.7,336.1z"/>
		<path class="st3" d="M182.7,335.5c-84.4,0-152.8-68.4-152.8-152.8S98.3,29.9,182.7,29.9s152.8,68.4,152.8,152.8
			S267.1,335.5,182.7,335.5L182.7,335.5z M182.7,337.4c85.4,0,154.7-69.3,154.7-154.7S268.1,28,182.7,28S28,97.2,28,182.7
			S97.2,337.4,182.7,337.4L182.7,337.4z"/>
		<path class="st3" d="M182.7,336.7c-85.1,0-154.1-69-154.1-154.1s69-154.1,154.1-154.1s154.1,69,154.1,154.1
			S267.8,336.7,182.7,336.7L182.7,336.7z M182.7,338.6c86.1,0,155.9-69.8,155.9-155.9S268.8,26.7,182.7,26.7S26.7,96.6,26.7,182.7
			S96.6,338.6,182.7,338.6L182.7,338.6z"/>
		<path class="st3" d="M182.7,338c-85.8,0-155.3-69.5-155.3-155.3S96.9,27.4,182.7,27.4S338,96.9,338,182.7S268.5,338,182.7,338
			L182.7,338z M182.7,339.9c86.8,0,157.2-70.4,157.2-157.2S269.5,25.5,182.7,25.5S25.5,95.9,25.5,182.7S95.9,339.9,182.7,339.9
			L182.7,339.9z"/>
		<path class="st3" d="M182.7,339.3c-86.5,0-156.6-70.1-156.6-156.6S96.2,26.1,182.7,26.1s156.6,70.1,156.6,156.6
			S269.2,339.3,182.7,339.3L182.7,339.3z M182.7,341.1c87.5,0,158.5-70.9,158.5-158.5S270.2,24.2,182.7,24.2S24.2,95.2,24.2,182.7
			S95.2,341.1,182.7,341.1L182.7,341.1z"/>
		<path class="st3" d="M182.7,340.5c-87.2,0-157.8-70.7-157.8-157.8S95.5,24.9,182.7,24.9s157.8,70.7,157.8,157.8
			S269.8,340.5,182.7,340.5L182.7,340.5z M182.7,342.4c88.2,0,159.7-71.5,159.7-159.7S270.9,23,182.7,23S23,94.5,23,182.7
			S94.5,342.4,182.7,342.4L182.7,342.4z"/>
		<path class="st3" d="M182.7,341.8c-87.9,0-159.1-71.2-159.1-159.1S94.8,23.6,182.7,23.6s159.1,71.2,159.1,159.1
			S270.5,341.8,182.7,341.8L182.7,341.8z M182.7,343c88.5,0,160.3-71.8,160.3-160.3S271.2,22.3,182.7,22.3S22.3,94.1,22.3,182.7
			S94.1,343,182.7,343L182.7,343z"/>
		
			<use xlink:href="#SVGID_1_"  style="overflow:visible;fill-rule:evenodd;clip-rule:evenodd;fill:none;stroke:#000000;stroke-width:3;stroke-miterlimit:10;"/>
	</g>
	<path class="st4" d="M179.2,162.6l-0.5,2.1c-0.6,0-1.3,0.1-2.2,0.3c-0.9,0.2-1.5,0.3-2,0.4c-0.8,0.3-1.3,0.6-1.7,1.2
		c-0.4,0.5-0.6,1.1-0.8,1.7l-6.4,28.1c-0.1,0.3-0.1,0.6-0.2,0.9c-0.1,0.3-0.1,0.5-0.1,0.7c0,0.9,0.3,1.5,1,1.9
		c0.7,0.4,2.1,0.7,4.1,0.9l-0.5,2.1h-21.7l0.5-2.1c0.8-0.1,1.5-0.2,2.3-0.3c0.8-0.1,1.4-0.3,1.8-0.4c0.8-0.3,1.4-0.7,1.8-1.2
		c0.4-0.5,0.7-1.1,0.9-1.9l6.8-30.1h-0.3l-21.8,35.3h-3.6c0-0.7-0.2-1.9-0.4-3.6c-0.2-1.6-0.4-3.2-0.6-4.6l-3.9-27.6h-0.3l-5.7,24.6
		c-0.2,0.9-0.4,1.9-0.5,2.8c-0.1,0.9-0.2,1.7-0.2,2.4c0,0.8,0.1,1.3,0.2,1.8c0.2,0.4,0.4,0.8,0.7,1.1c0.4,0.4,1.1,0.8,2.2,1.1
		c1.1,0.3,1.9,0.6,2.4,0.6l-0.5,2.1h-17.3l0.5-2.1c0.5-0.1,1.3-0.2,2.4-0.4c1.1-0.2,2.1-0.5,2.9-1c0.9-0.5,1.6-1.4,2.1-2.6
		c0.6-1.2,1.1-3,1.7-5.4l4.6-19.8c0.1-0.7,0.3-1.2,0.3-1.6c0-0.4,0.1-0.7,0.1-1.1c0-0.6-0.1-1.1-0.2-1.5c-0.2-0.4-0.4-0.8-0.7-1.1
		c-0.6-0.6-1.3-0.9-2.1-1.1c-0.8-0.2-1.6-0.3-2.3-0.4l0.5-2.1h18.4l3.9,26.5l13.1-21.6c0.6-1,1.1-2,1.6-3c0.5-1,0.7-1.7,0.8-2H179.2
		L179.2,162.6z M191.8,203.9c-2.2,0-4.5-0.3-6.7-0.8c-2.3-0.6-4.2-1.3-5.9-2.3l-2.4,2h-2.4l3-14.5h2.4c0.2,1.4,0.6,2.9,1.2,4.4
		c0.6,1.5,1.4,2.9,2.3,4.1c0.9,1.2,2.1,2.3,3.6,3.1c1.4,0.8,3.1,1.2,5,1.2c2.7,0,4.9-0.7,6.6-2c1.6-1.3,2.5-3.1,2.5-5.3
		c0-1.4-0.5-2.6-1.4-3.7c-0.9-1.1-2.4-2-4.5-2.7c-1.3-0.5-2.6-0.9-3.8-1.4c-1.2-0.4-2.4-0.9-3.5-1.4c-2.2-0.9-3.9-2.2-5-4
		c-1.1-1.7-1.7-3.5-1.7-5.5c0-1.8,0.4-3.5,1.2-5.1c0.8-1.6,2-3.1,3.5-4.4c1.5-1.3,3.3-2.3,5.5-3c2.2-0.8,4.6-1.2,7.2-1.2
		c2.2,0,4.4,0.3,6.5,1c2.2,0.6,3.7,1.2,4.8,1.8l2.1-1.7h2.4l-3,13.7H209c-0.2-1.6-0.6-3.1-1.1-4.5c-0.5-1.4-1.1-2.7-1.9-3.8
		c-0.8-1.1-1.8-2-3-2.6c-1.2-0.6-2.6-1-4.3-1c-2.3,0-4.2,0.6-5.8,1.9c-1.5,1.3-2.3,2.9-2.3,4.9c0,1.4,0.5,2.6,1.4,3.6
		c0.9,1,2.4,1.9,4.4,2.7c1.2,0.4,2.4,0.9,3.7,1.3c1.3,0.5,2.5,0.9,3.7,1.4c2.2,0.9,3.9,2.1,5.2,3.7c1.3,1.6,1.9,3.4,1.9,5.5
		c0,2-0.5,3.9-1.4,5.7c-0.9,1.8-2.2,3.3-3.9,4.6c-1.7,1.4-3.8,2.4-6.1,3.1C197.2,203.5,194.6,203.9,191.8,203.9L191.8,203.9z
		 M229.7,203.9c-2.2,0-4.5-0.3-6.7-0.8c-2.3-0.6-4.2-1.3-5.9-2.3l-2.4,2h-2.4l3-14.5h2.4c0.2,1.4,0.6,2.9,1.2,4.4
		c0.6,1.5,1.4,2.9,2.3,4.1c0.9,1.2,2.1,2.3,3.6,3.1c1.4,0.8,3.1,1.2,5,1.2c2.7,0,4.9-0.7,6.6-2c1.6-1.3,2.5-3.1,2.5-5.3
		c0-1.4-0.5-2.6-1.4-3.7c-0.9-1.1-2.4-2-4.5-2.7c-1.3-0.5-2.6-0.9-3.8-1.4c-1.2-0.4-2.4-0.9-3.5-1.4c-2.2-0.9-3.9-2.2-5-4
		c-1.1-1.7-1.7-3.5-1.7-5.5c0-1.8,0.4-3.5,1.2-5.1c0.8-1.6,2-3.1,3.5-4.4c1.5-1.3,3.3-2.3,5.5-3c2.2-0.8,4.6-1.2,7.2-1.2
		c2.2,0,4.4,0.3,6.5,1c2.2,0.6,3.7,1.2,4.8,1.8l2.1-1.7h2.4l-3,13.7h-2.4c-0.2-1.6-0.6-3.1-1.1-4.5c-0.5-1.4-1.1-2.7-1.9-3.8
		c-0.8-1.1-1.8-2-3-2.6c-1.2-0.6-2.6-1-4.3-1c-2.3,0-4.2,0.6-5.8,1.9c-1.5,1.3-2.3,2.9-2.3,4.9c0,1.4,0.5,2.6,1.4,3.6
		c0.9,1,2.4,1.9,4.4,2.7c1.2,0.4,2.4,0.9,3.7,1.3c1.3,0.5,2.5,0.9,3.7,1.4c2.2,0.9,3.9,2.1,5.2,3.7c1.3,1.6,1.9,3.4,1.9,5.5
		c0,2-0.5,3.9-1.4,5.7c-0.9,1.8-2.2,3.3-3.9,4.6c-1.7,1.4-3.8,2.4-6.1,3.1C235.1,203.5,232.5,203.9,229.7,203.9L229.7,203.9z"/>
</g>
</svg>
