<svg id="Слой_1" data-name="Слой 1" xmlns="http://www.w3.org/2000/svg" xmlns:xlink="http://www.w3.org/1999/xlink" viewBox="0 0 106.68 129.23"><defs><style>.cls-1,.cls-4{fill:none;}.cls-2{fill:#858a90;}.cls-3{clip-path:url(#clip-path);}.cls-4{stroke:#858a90;stroke-miterlimit:10;stroke-width:0.82px;}</style><clipPath id="clip-path" transform="translate(-150.01 -238.68)"><path class="cls-1" d="M169,317.92a31,31,0,0,1,31-31h0a31,31,0,0,1,31,31h0a31,31,0,0,1-31,31h0a31,31,0,0,1-31-31h0Zm8,0a23,23,0,0,1,23-23h0a23,23,0,0,1,23,23h0a23,23,0,0,1-23,23h0a23,23,0,0,1-23-23h0Z"/></clipPath></defs><title>logo-footer2</title><path class="cls-2" d="M183.78,341.59l-0.4-.27,2.68-4,0.4,0.27-2.68,4h0Zm1.32-4.83-3.28,3.5-0.08-.07,0.17-4.87-2.5,2.69-0.34-.33,3.28-3.5,0.08,0.08-0.17,4.83,2.46-2.65,0.36,0.34h0v0Zm-6.59-.41-0.37.27-1.63-2.08,0.37-.27,0.66,0.84,3.41-2.67,0.3,0.39-3.41,2.67,0.66,0.85h0Zm-2.8-2.9-1.37-2.39,0.41-.24,1.13,2,1.3-.75-1.12-2,0.41-.24,1.12,2,1.64-.94-1.12-2,0.37-.25,1.37,2.37-4.16,2.4h0v0Zm-2.15-3.83-0.34-.89a5.79,5.79,0,0,1-.33-1,1.25,1.25,0,0,1,.14-0.8,1.2,1.2,0,0,1,.64-0.53,1.28,1.28,0,0,1,.71-0.08,1.15,1.15,0,0,1,.61.33,2.42,2.42,0,0,1,.48.82l1.46-2.41,0.21,0.55L175.68,328l0.1,0.25,2.08-.8,0.17,0.45-4.48,1.75h0Zm0.27-.62,1.52-.59-0.29-.77a2,2,0,0,0-.34-0.63,0.75,0.75,0,0,0-.4-0.23,0.82,0.82,0,0,0-.46,0,0.78,0.78,0,0,0-.36.27,0.73,0.73,0,0,0-.14.42,2.11,2.11,0,0,0,.17.69l0.3,0.79h0Zm2.71-4.86-4.73.82,0-.11,3.06-3.78-3.62.64-0.08-.47,4.73-.83,0,0.11-3,3.75,3.57-.63,0.08,0.5h0Zm-5.6-6.93,4.84-2.16v0.52l-1.59.73,0,2.07,1.56,0.78v0.55L171,317.35v-0.12h0Zm1,0.08,1.72,0.86,0-1.64-1.75.79h0Zm-0.32-3.18-0.46-.08,0.41-2.6,0.46,0.08-0.17,1.06,4.28,0.68-0.08.48-4.28-.68-0.17,1.06h0Zm0.19-3.78,0.12-.46,4.64,1.25-0.12.46-4.64-1.25h0Zm1.33-4.3a2.53,2.53,0,0,1,4.68,0h0a2.53,2.53,0,0,1,0,2,2.46,2.46,0,0,1-1.37,1.37,2.4,2.4,0,0,1-1.91,0,2.56,2.56,0,0,1-1-.82,2.46,2.46,0,0,1-.32-2.48h0Zm0.44,0.16a2,2,0,0,0-.14,1,2,2,0,0,0,.4,1,2.08,2.08,0,0,0,.86.66,2,2,0,0,0,2.65-1v0a2,2,0,0,0,.15-1.06,1.94,1.94,0,0,0-.39-1,2.08,2.08,0,0,0-.85-0.64,2,2,0,0,0-1.06-.16,2,2,0,0,0-1,.4,2,2,0,0,0-.66.84h0Zm5.66-1.48-3.83-2.9,0.06-.09,4.85-.34-2.92-2.21,0.27-.38,3.83,2.89-0.06.09-4.8.34,2.9,2.19-0.3.4h0Zm1.37-8.84,4.84,2.16-0.39.34-1.61-.7-1.56,1.37,0.47,1.69-0.4.35L180.54,296l0.09-.08h0Zm0.62,0.81,0.5,1.87L183,297.5l-1.75-.78h0v0h0Zm2.21-3.06,0.4-.27,2.36,3.64,1.55-1L188,296.4l-2,1.28-2.61-4h0Zm9.92-3.54-0.27.4a2.06,2.06,0,0,0-.9-0.36,2.19,2.19,0,0,0-1,.1,2.13,2.13,0,0,0-.93.59,2,2,0,0,0-.5.94,2.05,2.05,0,0,0,.06,1.08,2,2,0,0,0,1,1.21,2.09,2.09,0,0,0,1.62.09,2.13,2.13,0,0,0,1.37-1.27l0.45,0.16a2.43,2.43,0,0,1-.63,1,2.8,2.8,0,0,1-1.06.61,2.5,2.5,0,0,1-2.15-.18,2.53,2.53,0,0,1-1.11-1.44,2.38,2.38,0,0,1,.15-1.92,2.54,2.54,0,0,1,1.54-1.25,2.72,2.72,0,0,1,1.24-.12,2.36,2.36,0,0,1,1.07.44h0Zm1.64-1.16,2.73-.34,0.06,0.47-2.25.27,0.18,1.5,2.23-.27L198,291l-2.23.27,0.23,1.87,2.22-.26,0.06,0.47-2.71.34L195,289h0v0Zm4.13-.43h0.94a5.79,5.79,0,0,1,1.09.07,1.25,1.25,0,0,1,.69.42,1.2,1.2,0,0,1,.28.78,1.29,1.29,0,0,1-.18.69,1.15,1.15,0,0,1-.53.45,2.42,2.42,0,0,1-.95.16l1.73,2.23h-0.59l-1.72-2.23h-0.27v2.23h-0.48v-4.8h0Zm0.48,0.47v1.64h0.82a2,2,0,0,0,.71-0.09,0.75,0.75,0,0,0,.36-0.29,0.82,0.82,0,0,0,.13-0.45,0.78,0.78,0,0,0-.13-0.44,0.73,0.73,0,0,0-.35-0.28,2.11,2.11,0,0,0-.7-0.09h-0.83Zm3.67,0.19,0.06-.46,2.61,0.37-0.08.45-1.06-.15-0.6,4.3-0.48-.07,0.6-4.29-1.06-.15h0Zm3.73,0.2,0.47,0.12-1.16,4.66-0.46-.12,1.16-4.66h0Zm2,0.59,2.27,0.78-0.16.44-1.83-.64-0.5,1.42,1.82,0.63-0.15.45-1.82-.63-0.77,2.23-0.45-.16,1.56-4.56h0Zm3.42,1.36,0.43,0.2-2,4.35-0.43-.2,2-4.35h0Zm5.25,4.21-0.47,0a2.06,2.06,0,0,0-.29-0.93,2.19,2.19,0,0,0-.69-0.7,2.13,2.13,0,0,0-1-.35,2,2,0,0,0-1,.21,2.05,2.05,0,0,0-.8.75,2,2,0,0,0-.29,1.56,2.09,2.09,0,0,0,1,1.32,2.13,2.13,0,0,0,1.84.25l0.17,0.44a2.42,2.42,0,0,1-1.13.11,2.8,2.8,0,0,1-1.14-.44,2.5,2.5,0,0,1-1.21-1.79,2.53,2.53,0,0,1,.4-1.75,2.37,2.37,0,0,1,1.6-1.09,2.54,2.54,0,0,1,1.94.41,2.72,2.72,0,0,1,.87.89,2.36,2.36,0,0,1,.34,1.11h0Zm3.32,2-1.81,5-0.36-.36,0.58-1.64L217.94,299l-1.64.58-0.38-.37,5-1.81,0.08,0.08h0Zm-0.75.68-1.82.64,1.16,1.16,0.65-1.81h0Zm2.56,2.19,0.37-.28,1.47,2.19-0.39.27-0.59-.88-3.59,2.42-0.27-.41,3.59-2.43-0.6-.89h0Zm2.29,2.73,0.25,0.41L221.25,306l-0.25-.41,4.11-2.45h0Zm2.09,4.12a2.53,2.53,0,0,1-4.69,1.93,2.46,2.46,0,0,1,0-1.94,2.4,2.4,0,0,1,1.37-1.35,2.56,2.56,0,0,1,1.31-.17,2.46,2.46,0,0,1,2,1.53h0Zm-0.44.19a2.13,2.13,0,0,0-1.59-1.25,2.08,2.08,0,0,0-1.07.15,2,2,0,0,0-1.13,2.62v0a2,2,0,0,0,.64.86,1.94,1.94,0,0,0,1,.41,2.08,2.08,0,0,0,1.07-.15,2,2,0,0,0,.86-0.64,2,2,0,0,0,.4-1,2,2,0,0,0-.12-1.06h0Zm-3.12,5,4.75-.67v0.11l-3.18,3.67,3.63-.52,0.06,0.47-4.75.66V316l3.15-3.64-3.59.5-0.07-.5h0v0h0Zm1.37,6.42,0.2,0.43a1.25,1.25,0,0,0-.89.91,1,1,0,0,0,.06.46,0.79,0.79,0,0,0,.27.35,0.77,0.77,0,0,0,.38.15,0.82,0.82,0,0,0,.5-0.11,3.92,3.92,0,0,0,.85-0.74,4.26,4.26,0,0,1,.73-0.68,1.2,1.2,0,0,1,.75-0.18,1.11,1.11,0,0,1,.55.21,1.08,1.08,0,0,1,.36.46,1.21,1.21,0,0,1,.08.61,1.25,1.25,0,0,1-.23.61,2.16,2.16,0,0,1-.67.55l-0.25-.42a1.88,1.88,0,0,0,.52-0.41,0.8,0.8,0,0,0,.16-0.4,0.66,0.66,0,0,0-.12-0.5,0.57,0.57,0,0,0-.41-0.23,0.75,0.75,0,0,0-.31,0,1.15,1.15,0,0,0-.34.2l-0.55.57a3.5,3.5,0,0,1-.89.77,1.32,1.32,0,0,1-.75.16,1.22,1.22,0,0,1-.86-0.5,1.34,1.34,0,0,1-.27-1,1.41,1.41,0,0,1,.33-0.75,2.14,2.14,0,0,1,.84-0.57h0Zm3.37,4.46-0.12.54-2.23.71,1.64,1.64-0.13.55-2.06-2.08-2.22-.55,0.11-.46,2.22,0.55,2.81-.9h0Zm-4.87,2.86,0.07,0.47a1.19,1.19,0,0,0-1.09.63,1,1,0,0,0-.06.46,0.78,0.78,0,0,0,.16.41,0.77,0.77,0,0,0,.33.25,0.82,0.82,0,0,0,.5,0,3.92,3.92,0,0,0,1-.47,4.25,4.25,0,0,1,.89-0.45,1.2,1.2,0,0,1,.77,0,1.11,1.11,0,0,1,.47.36,1.08,1.08,0,0,1,.22.55,1.22,1.22,0,0,1-.08.61,1.25,1.25,0,0,1-.39.53,2.17,2.17,0,0,1-.82.35l-0.13-.46a1.87,1.87,0,0,0,.61-0.25,0.8,0.8,0,0,0,.27-0.34,0.66,0.66,0,0,0,0-.5,0.57,0.57,0,0,0-.33-0.34,0.75,0.75,0,0,0-.31-0.06,1.16,1.16,0,0,0-.38.1c-0.08,0-.31.17-0.67,0.4a3.5,3.5,0,0,1-1.08.5,1.32,1.32,0,0,1-.75-0.06,1.22,1.22,0,0,1-.69-0.71,1.34,1.34,0,0,1,0-1,1.41,1.41,0,0,1,.5-0.65,2.14,2.14,0,0,1,1-.32h0v0h0Zm1.51,5,0.4,0.25-1.37,2.25-0.4-.25,0.55-.92-3.71-2.22,0.25-.42,3.71,2.23,0.55-.93h0Zm-1.73,3.63-1.72,2.13-0.37-.3,1.43-1.77-1.16-.95L220,335.62l-0.36-.3,1.42-1.75-1.46-1.19-1.42,1.75-0.37-.3,1.72-2.13,3.73,3h0v0Zm-5.81-.38,2.5,4.16-0.06.05-4-1.84,1,4.29-0.06.05-3.56-3.3,0.37-.3,2.51,2.38-0.84-3.74,0.09-.08,3.51,1.61-1.81-3,0.36-.29h0v0h0Z" transform="translate(-150.01 -238.68)"/><path class="cls-2" d="M212.29,289.41c-21.93-20.33-58.46-15-49.5,36.45-11.92-56.74,33.89-62.71,54.88-33.46a31,31,0,0,0-5.39-3h0Z" transform="translate(-150.01 -238.68)"/><path class="cls-2" d="M201.29,286.91c-29.57-17.38-60.77,8.1-30.44,56.69-32.83-45.73.58-82.55,33.54-56.41a29.87,29.87,0,0,0-3.1-.26h0v0Z" transform="translate(-150.01 -238.68)"/><path class="cls-2" d="M184.63,291c-30.85,3.05-51.72,35.84-4.8,61.7-52.09-26.4-27.35-66.29,9-63.71a30.89,30.89,0,0,0-4.25,2h0Z" transform="translate(-150.01 -238.68)"/><path class="cls-2" d="M170.89,307.18C151.29,329.18,157,364.89,208,356c-56,11.78-62.55-32.78-34.53-54.12a30.91,30.91,0,0,0-2.54,5.29h0Z" transform="translate(-150.01 -238.68)"/><path class="cls-2" d="M189.28,347c22,19.61,57.7,13.89,48.81-37.07,11.78,56-32.77,62.57-54.1,34.53a30.89,30.89,0,0,0,5.29,2.54h0Z" transform="translate(-150.01 -238.68)"/><path class="cls-2" d="M169,316.63c-17.39,29.56,8.1,60.8,56.68,30.45-45.73,32.85-82.54-.59-56.4-33.55a29.89,29.89,0,0,0-.28,3.09h0Z" transform="translate(-150.01 -238.68)"/><path class="cls-2" d="M197.15,348.81c30,19.28,62.91-6.25,32-55.72,33.29,46.35-1.5,83.52-34.86,55.33q1.39,0.25,2.82.39h0Z" transform="translate(-150.01 -238.68)"/><path class="cls-2" d="M213.45,345.89c31.89-1.83,54.63-35.45,6.75-61.83,53,26.86,26.43,67.7-11,63.5a30.82,30.82,0,0,0,4.28-1.69h0v0h0Z" transform="translate(-150.01 -238.68)"/><path class="cls-2" d="M228.51,330.18c20.33-21.93,15-58.47-36.45-49.5,56.73-11.92,62.7,33.91,33.45,54.91a31,31,0,0,0,3-5.4h0Z" transform="translate(-150.01 -238.68)"/><path class="cls-2" d="M173.06,333.29c3,30.86,35.83,51.75,61.68,4.82-26.4,52.09-66.26,27.33-63.7-9.07a30.91,30.91,0,0,0,2,4.25h0Z" transform="translate(-150.01 -238.68)"/><path class="cls-2" d="M230.91,320.79c19.25-30-6.25-62.92-55.71-32,46.34-33.3,83.49,1.48,55.31,34.85q0.25-1.39.39-2.83h0Z" transform="translate(-150.01 -238.68)"/><path class="cls-2" d="M228,304.47c-1.83-31.9-35.44-54.64-61.83-6.75,26.86-53,67.7-26.42,63.5,11a30.83,30.83,0,0,0-1.68-4.29h0Z" transform="translate(-150.01 -238.68)"/><g class="cls-3"><polygon class="cls-1" points="81.03 48.2 81.03 110.27 18.97 110.27 18.97 48.2 81.03 48.2 81.03 48.2"/><path class="cls-1" d="M200,318.43a0.52,0.52,0,1,0-.51-0.52h0a0.51,0.51,0,0,0,.51.52h0Z" transform="translate(-150.01 -238.68)"/><path class="cls-1" d="M200,318.26a0.34,0.34,0,1,1,.34-0.34,0.34,0.34,0,0,1-.34.34h0Zm0,0.52a0.86,0.86,0,1,0-.86-0.86h0a0.86,0.86,0,0,0,.85.87h0Z" transform="translate(-150.01 -238.68)"/><path class="cls-1" d="M200,318.6a0.69,0.69,0,0,1-.69-0.69h0a0.69,0.69,0,0,1,.69-0.69h0a0.69,0.69,0,0,1,.69.69h0a0.69,0.69,0,0,1-.69.69h0Zm0,0.52a1.2,1.2,0,0,0,1.2-1.2h0a1.2,1.2,0,0,0-1.2-1.2h0a1.2,1.2,0,0,0-1.2,1.2h0a1.2,1.2,0,0,0,1.2,1.2h0Z" transform="translate(-150.01 -238.68)"/><path class="cls-1" d="M200,318.95a1,1,0,1,1,1-1h0a1,1,0,0,1-1,1h0Zm0,0.52a1.55,1.55,0,0,0,.12-3.09H200a1.54,1.54,0,0,0,0,3.09h0Z" transform="translate(-150.01 -238.68)"/><path class="cls-1" d="M200,319.29a1.37,1.37,0,0,1-1.37-1.37h0a1.37,1.37,0,0,1,1.37-1.37h0a1.37,1.37,0,0,1,1.37,1.37h0a1.37,1.37,0,0,1-1.37,1.37h0Zm0,0.52a1.89,1.89,0,1,0-1.88-1.89h0A1.88,1.88,0,0,0,200,319.8h0Z" transform="translate(-150.01 -238.68)"/><path class="cls-1" d="M200,319.62a1.71,1.71,0,0,1-1.71-1.71h0A1.71,1.71,0,0,1,200,316.2h0a1.71,1.71,0,0,1,1.71,1.71h0a1.71,1.71,0,0,1-1.71,1.71h0Zm0,0.52a2.23,2.23,0,0,0,2.23-2.23h0a2.23,2.23,0,0,0-2.23-2.23h0a2.23,2.23,0,0,0-2.23,2.23h0a2.23,2.23,0,0,0,2.23,2.23h0Z" transform="translate(-150.01 -238.68)"/><path class="cls-1" d="M200,320a2.06,2.06,0,1,1,2.06-2.06h0A2.06,2.06,0,0,1,200,320h0Zm0,0.52a2.57,2.57,0,1,0-2.57-2.57h0a2.57,2.57,0,0,0,2.57,2.57h0Z" transform="translate(-150.01 -238.68)"/><path class="cls-1" d="M200,320.32a2.4,2.4,0,0,1-2.4-2.4h0a2.4,2.4,0,0,1,2.4-2.4h0a2.4,2.4,0,0,1,2.4,2.4h0a2.4,2.4,0,0,1-2.4,2.4h0Zm0,0.52a2.91,2.91,0,0,0,2.91-2.92h0A2.91,2.91,0,0,0,200,315h0a2.92,2.92,0,0,0,0,5.83h0Z" transform="translate(-150.01 -238.68)"/><path class="cls-1" d="M200,320.66a2.75,2.75,0,1,1,2.73-2.77v0a2.75,2.75,0,0,1-2.73,2.74h0Zm0,0.52a3.25,3.25,0,1,0-3.25-3.25h0a3.25,3.25,0,0,0,3.25,3.25h0Z" transform="translate(-150.01 -238.68)"/><path class="cls-1" d="M200,321a3.09,3.09,0,1,1,3.1-3.07A3.08,3.08,0,0,1,200,321h0Zm0,0.52a3.6,3.6,0,1,0-3.59-3.61h0a3.6,3.6,0,0,0,3.59,3.6h0Z" transform="translate(-150.01 -238.68)"/><path class="cls-1" d="M200,321.34a3.43,3.43,0,0,1-3.43-3.43h0a3.43,3.43,0,0,1,3.43-3.43h0a3.43,3.43,0,0,1,3.43,3.43h0a3.43,3.43,0,0,1-3.43,3.43h0Zm0,0.52a3.94,3.94,0,1,0-3.94-3.95h0a3.94,3.94,0,0,0,3.94,3.95h0Z" transform="translate(-150.01 -238.68)"/><path class="cls-1" d="M200,321.68a3.77,3.77,0,1,1,3.77-3.77h0a3.77,3.77,0,0,1-3.77,3.77h0Zm0,0.52a4.28,4.28,0,0,0,4.28-4.29h0a4.28,4.28,0,0,0-4.28-4.29h0a4.29,4.29,0,0,0,0,8.58h0Z" transform="translate(-150.01 -238.68)"/><path class="cls-1" d="M200,322a4.11,4.11,0,1,1,4.1-4.11h0A4.1,4.1,0,0,1,200,322h0Zm0,0.52a4.63,4.63,0,1,0-4.63-4.63h0a4.63,4.63,0,0,0,4.63,4.6h0v0Z" transform="translate(-150.01 -238.68)"/><path class="cls-1" d="M200,322.37a4.45,4.45,0,0,1-4.44-4.47h0a4.45,4.45,0,1,1,4.46,4.47h0Zm0,0.52a5,5,0,0,0,5-5h0a5,5,0,0,0-5-5h0a5,5,0,0,0-5,5h0a5,5,0,0,0,5,5h0Z" transform="translate(-150.01 -238.68)"/><path class="cls-1" d="M200,322.72a4.8,4.8,0,1,1,4.8-4.8h0a4.8,4.8,0,0,1-4.8,4.78h0Zm0,0.52a5.32,5.32,0,0,0,0-10.63h0a5.32,5.32,0,0,0,0,10.63h0Z" transform="translate(-150.01 -238.68)"/><path class="cls-1" d="M200,323.06a5.14,5.14,0,0,1-5.14-5.14h0a5.14,5.14,0,0,1,5.14-5.15h0a5.14,5.14,0,0,1,5.14,5.14h0a5.14,5.14,0,0,1-5.14,5.14h0Zm0,0.52a5.66,5.66,0,0,0,5.66-5.64h0a5.66,5.66,0,1,0-5.67,5.64h0Z" transform="translate(-150.01 -238.68)"/><path class="cls-1" d="M200,323.4a5.48,5.48,0,1,1,5.47-5.48h0a5.47,5.47,0,0,1-5.47,5.48h0Zm0,0.52a6,6,0,1,0-6-6,6,6,0,0,0,6,6h0Z" transform="translate(-150.01 -238.68)"/><path class="cls-1" d="M200,323.75a5.83,5.83,0,1,1,5.84-5.82,5.83,5.83,0,0,1-5.84,5.82h0Zm0,0.52a6.34,6.34,0,1,0-6.34-6.35h0a6.34,6.34,0,0,0,6.34,6.34h0Z" transform="translate(-150.01 -238.68)"/><path class="cls-1" d="M200,324.09a6.17,6.17,0,0,1-6.17-6.17h0a6.17,6.17,0,0,1,6.17-6.17h0a6.17,6.17,0,0,1,6.16,6.18h0a6.17,6.17,0,0,1-6.16,6.17h0Zm0,0.52a6.69,6.69,0,0,0,0-13.37h0a6.69,6.69,0,0,0-6.69,6.69h0A6.69,6.69,0,0,0,200,324.6h0Z" transform="translate(-150.01 -238.68)"/><path class="cls-1" d="M200,324.43a6.52,6.52,0,1,1,6.51-6.52h0a6.51,6.51,0,0,1-6.51,6.52h0Zm0,0.52a7,7,0,0,0,7-7h0a7,7,0,0,0-7-7h0a7,7,0,0,0-7,7h0a7,7,0,0,0,7,7h0Z" transform="translate(-150.01 -238.68)"/><path class="cls-1" d="M200,324.77a6.85,6.85,0,0,1-6.85-6.86h0a6.85,6.85,0,0,1,6.85-6.86h0a6.85,6.85,0,0,1,6.85,6.86h0a6.85,6.85,0,0,1-6.85,6.86h0Zm0,0.52a7.37,7.37,0,1,0-7.37-7.37h0a7.37,7.37,0,0,0,7.37,7.37h0Z" transform="translate(-150.01 -238.68)"/><path class="cls-1" d="M200,325.12a7.2,7.2,0,0,1-7.2-7.19h0a7.2,7.2,0,0,1,7.18-7.21h0a7.2,7.2,0,0,1,7.2,7.2h0a7.2,7.2,0,0,1-7.19,7.2h0Zm0,0.52a7.71,7.71,0,0,0,7.71-7.71h0a7.71,7.71,0,0,0-7.7-7.72h0a7.71,7.71,0,0,0-7.71,7.71h0a7.71,7.71,0,0,0,7.71,7.7h0Z" transform="translate(-150.01 -238.68)"/><path class="cls-1" d="M200,325.46a7.55,7.55,0,0,1,0-15.09h0a7.54,7.54,0,0,1,7.54,7.54h0a7.54,7.54,0,0,1-7.54,7.54h0Zm0,0.52a8.06,8.06,0,1,0-8.06-8.06h0A8.06,8.06,0,0,0,200,326h0Z" transform="translate(-150.01 -238.68)"/><path class="cls-1" d="M200,325.8a7.88,7.88,0,0,1-7.88-7.89h0A7.88,7.88,0,0,1,200,310h0a7.88,7.88,0,0,1,7.88,7.89h0A7.88,7.88,0,0,1,200,325.8h0Zm0,0.52a8.4,8.4,0,0,0,8.41-8.39h0a8.4,8.4,0,0,0-8.4-8.4h0a8.4,8.4,0,0,0-8.4,8.4h0a8.4,8.4,0,0,0,8.4,8.4h0v0Z" transform="translate(-150.01 -238.68)"/><path class="cls-1" d="M200,326.15a8.23,8.23,0,0,1-8.23-8.23h0a8.23,8.23,0,0,1,8.22-8.24h0a8.23,8.23,0,0,1,8.23,8.23h0a8.23,8.23,0,0,1-8.22,8.24h0Zm0,0.52a8.75,8.75,0,0,0,0-17.5h0a8.75,8.75,0,0,0-8.75,8.75h0a8.75,8.75,0,0,0,8.75,8.75h0Z" transform="translate(-150.01 -238.68)"/><path class="cls-1" d="M200,326.49a8.57,8.57,0,0,1-8.57-8.57h0a8.57,8.57,0,0,1,8.57-8.57h0a8.57,8.57,0,0,1,0,17.14h0Zm0,0.52a9.09,9.09,0,1,0-9.09-9.09h0A9.08,9.08,0,0,0,200,327h0Z" transform="translate(-150.01 -238.68)"/><path class="cls-1" d="M200,326.83a8.91,8.91,0,0,1-8.91-8.92h0A8.91,8.91,0,0,1,200,309h0a8.92,8.92,0,0,1,0,17.83h0Zm0,0.52a9.43,9.43,0,1,0-9.43-9.43h0a9.43,9.43,0,0,0,9.43,9.43h0Z" transform="translate(-150.01 -238.68)"/><path class="cls-1" d="M200,327.18a9.25,9.25,0,1,1,9.25-9.25h0a9.25,9.25,0,0,1-9.25,9.25h0Zm0,0.52a9.77,9.77,0,0,0,9.77-9.77h0a9.77,9.77,0,0,0-9.75-9.79h0a9.77,9.77,0,0,0-9.77,9.77h0a9.77,9.77,0,0,0,9.77,9.77h0v0Z" transform="translate(-150.01 -238.68)"/><path class="cls-1" d="M200,327.52a9.6,9.6,0,1,1,9.6-9.6,9.6,9.6,0,0,1-9.6,9.6h0Zm0,0.52a10.13,10.13,0,1,0-10.13-10.13h0A10.13,10.13,0,0,0,200,328h0Z" transform="translate(-150.01 -238.68)"/><path class="cls-1" d="M200,327.86a9.94,9.94,0,0,1-9.94-9.94h0A9.94,9.94,0,0,1,200,308h0a9.94,9.94,0,0,1,9.94,9.94h0a9.94,9.94,0,0,1-9.93,9.95h0Zm0,0.52a10.45,10.45,0,0,0,10.45-10.46h0A10.45,10.45,0,0,0,200,307.46h0a10.45,10.45,0,0,0-10.45,10.46h0A10.45,10.45,0,0,0,200,328.37h0Z" transform="translate(-150.01 -238.68)"/><path class="cls-1" d="M200,328.2a10.28,10.28,0,0,1-10.28-10.29h0A10.28,10.28,0,0,1,200,307.62h0a10.28,10.28,0,0,1,10.28,10.29h0A10.28,10.28,0,0,1,200,328.2h0Zm0,0.52a10.8,10.8,0,1,0-10.8-10.8h0a10.8,10.8,0,0,0,10.8,10.8h0v0Z" transform="translate(-150.01 -238.68)"/><path class="cls-1" d="M200,328.54a10.63,10.63,0,1,1,10.63-10.63h0A10.63,10.63,0,0,1,200,328.54h0Zm0,0.52a11.14,11.14,0,0,0,11.16-11.12h0a11.14,11.14,0,1,0-22.28-.35v0.33h0A11.14,11.14,0,0,0,200,329.06h0Z" transform="translate(-150.01 -238.68)"/><path class="cls-1" d="M200,328.89a11,11,0,0,1-11-11h0a11,11,0,1,1,21.94,0h0a11,11,0,0,1-11,11h0Zm0,0.52a11.5,11.5,0,0,0,0-23h0a11.5,11.5,0,0,0-11.5,11.5h0A11.5,11.5,0,0,0,200,329.4h0Z" transform="translate(-150.01 -238.68)"/><path class="cls-1" d="M200,329.23a11.31,11.31,0,0,1-11.32-11.31h0A11.31,11.31,0,0,1,200,306.6h0a11.31,11.31,0,0,1,11.32,11.31h0A11.31,11.31,0,0,1,200,329.22h0Zm0,0.52a11.83,11.83,0,1,0-11.82-11.83h0A11.83,11.83,0,0,0,200,329.74h0Z" transform="translate(-150.01 -238.68)"/><path class="cls-1" d="M200,329.58a11.66,11.66,0,0,1-11.66-11.66h0A11.66,11.66,0,0,1,200,306.26h0a11.66,11.66,0,0,1,11.66,11.66h0A11.66,11.66,0,0,1,200,329.58h0Zm0,0.52a12.17,12.17,0,1,0-12.18-12.17h0A12.17,12.17,0,0,0,200,330.09h0Z" transform="translate(-150.01 -238.68)"/><path class="cls-1" d="M200,329.92a12,12,0,1,1,12-12h0a12,12,0,0,1-12,12h0Zm0,0.52a12.51,12.51,0,0,0,12.52-12.5h0A12.51,12.51,0,0,0,200,305.41h0a12.5,12.5,0,0,0-12.52,12.48h0v0h0A12.5,12.5,0,0,0,200,330.43h0Z" transform="translate(-150.01 -238.68)"/><path class="cls-1" d="M200,330.26a12.34,12.34,0,0,1-12.34-12.34h0A12.34,12.34,0,0,1,200,305.57h0a12.34,12.34,0,0,1,12.34,12.34h0A12.34,12.34,0,0,1,200,330.26h0Zm0,0.52a12.87,12.87,0,1,0-12.86-12.87h0A12.86,12.86,0,0,0,200,330.77h0Z" transform="translate(-150.01 -238.68)"/><path class="cls-1" d="M200,330.6a12.68,12.68,0,0,1-12.69-12.66h0A12.68,12.68,0,0,1,200,305.24h0a12.68,12.68,0,0,1,12.69,12.68h0v0A12.68,12.68,0,0,1,200,330.6h0Zm0,0.52a13.2,13.2,0,0,0,13.2-13.2h0a13.2,13.2,0,0,0-13.2-13.2h0a13.2,13.2,0,0,0-13.2,13.2h0a13.2,13.2,0,0,0,13.2,13.2h0Z" transform="translate(-150.01 -238.68)"/><path class="cls-1" d="M200,330.95a13,13,0,0,1-13-13h0a13,13,0,0,1,13-13h0a13,13,0,0,1,13,13h0a13,13,0,0,1-13,13h0Zm0,0.52a13.54,13.54,0,0,0,13.54-13.54h0A13.54,13.54,0,0,0,200,304.37h0a13.54,13.54,0,0,0-13.54,13.54h0A13.54,13.54,0,0,0,200,331.46h0Z" transform="translate(-150.01 -238.68)"/><path class="cls-1" d="M200,331.29a13.37,13.37,0,1,1,13.37-13.37h0A13.37,13.37,0,0,1,200,331.29h0Zm0,0.52a13.88,13.88,0,0,0,13.88-13.89h0A13.88,13.88,0,0,0,200,304h0a13.88,13.88,0,0,0-13.88,13.89h0A13.88,13.88,0,0,0,200,331.8h0Z" transform="translate(-150.01 -238.68)"/><path class="cls-1" d="M200,331.62a13.71,13.71,0,0,1-13.71-13.71h0A13.71,13.71,0,0,1,200,304.2h0a13.71,13.71,0,0,1,13.71,13.72h0A13.71,13.71,0,0,1,200,331.62h0Zm0,0.52a14.23,14.23,0,1,0-14.23-14.23h0A14.23,14.23,0,0,0,200,332.14h0Z" transform="translate(-150.01 -238.68)"/><path class="cls-1" d="M200,332a14.06,14.06,0,0,1-14.07-14h0a14.06,14.06,0,1,1,28.11-.4h0v0.38h0v0a14.06,14.06,0,0,1-14,14h0Zm0,0.52a14.57,14.57,0,1,0-14.57-14.57h0A14.57,14.57,0,0,0,200,332.48h0Z" transform="translate(-150.01 -238.68)"/><path class="cls-1" d="M200,332.32a14.4,14.4,0,0,1-14.4-14.4h0a14.4,14.4,0,0,1,14.4-14.4h0a14.4,14.4,0,0,1,14.41,14.39h0a14.4,14.4,0,0,1-14.4,14.4h0Zm0,0.52a14.92,14.92,0,1,0-14.91-14.92h0A14.91,14.91,0,0,0,200,332.83h0Z" transform="translate(-150.01 -238.68)"/><path class="cls-1" d="M200,332.66a14.75,14.75,0,1,1,14.75-14.75h0A14.75,14.75,0,0,1,200,332.66h0Zm0,0.52a15.25,15.25,0,1,0-15.25-15.25h0A15.25,15.25,0,0,0,200,333.18h0Z" transform="translate(-150.01 -238.68)"/><path class="cls-1" d="M200,333a15.08,15.08,0,0,1-15.09-15.07h0A15.08,15.08,0,0,1,200,302.84h0a15.08,15.08,0,0,1,15.08,15.08h0A15.08,15.08,0,0,1,200,333h0Zm0,0.52a15.6,15.6,0,0,0,15.6-15.6h0A15.6,15.6,0,0,0,200,302.31h0a15.6,15.6,0,0,0-15.59,15.61h0A15.6,15.6,0,0,0,200,333.52h0Z" transform="translate(-150.01 -238.68)"/><path class="cls-1" d="M200,333.33a15.43,15.43,0,0,1-15.44-15.4h0A15.43,15.43,0,0,1,200,302.49h0a15.43,15.43,0,0,1,15.44,15.42v0A15.43,15.43,0,0,1,200,333.33h0Zm0,0.52A15.94,15.94,0,0,0,216,317.91h0A15.94,15.94,0,0,0,200,302h0a15.94,15.94,0,0,0-15.94,15.94h0A15.94,15.94,0,0,0,200,333.85h0Z" transform="translate(-150.01 -238.68)"/><path class="cls-1" d="M200,333.68a15.77,15.77,0,0,1-15.77-15.77h0A15.77,15.77,0,0,1,200,302.14h0a15.77,15.77,0,0,1,15.77,15.77h0A15.77,15.77,0,0,1,200,333.68h0Zm0,0.52a16.29,16.29,0,0,0,0-32.58h0a16.28,16.28,0,0,0-16.28,16.29h0A16.28,16.28,0,0,0,200,334.18h0v0Z" transform="translate(-150.01 -238.68)"/><path class="cls-1" d="M200,334a16.11,16.11,0,1,1,16.11-16.11h0A16.11,16.11,0,0,1,200,334h0Zm0,0.52a16.63,16.63,0,0,0,16.63-16.62h0A16.63,16.63,0,0,0,200,301.28h0a16.63,16.63,0,0,0,0,33.25h0v0Z" transform="translate(-150.01 -238.68)"/><path class="cls-1" d="M200,334.37a16.46,16.46,0,0,1,0-32.91h0a16.45,16.45,0,0,1,16.45,16.46h0A16.45,16.45,0,0,1,200,334.37h0Zm0,0.52a17,17,0,0,0,17-17h0a17,17,0,1,0-33.94,0h0a17,17,0,0,0,17,17h0Z" transform="translate(-150.01 -238.68)"/><path class="cls-1" d="M200,334.72a16.8,16.8,0,0,1-16.8-16.8h0a16.8,16.8,0,1,1,33.6,0h0a16.8,16.8,0,0,1-16.8,16.8h0Zm0,0.52a17.32,17.32,0,1,0-17.31-17.32h0A17.31,17.31,0,0,0,200,335.23h0Z" transform="translate(-150.01 -238.68)"/><path class="cls-1" d="M200,335.06a17.14,17.14,0,0,1-17.14-17.14h0A17.14,17.14,0,0,1,200,300.78h0a17.14,17.14,0,0,1,17.14,17.14h0A17.14,17.14,0,0,1,200,335.06h0Zm0,0.52a17.66,17.66,0,0,0,17.66-17.64h0A17.65,17.65,0,1,0,200,335.58h0Z" transform="translate(-150.01 -238.68)"/><path class="cls-1" d="M200,335.4a17.49,17.49,0,1,1,17.48-17.5h0A17.48,17.48,0,0,1,200,335.4h0Zm0,0.52a18,18,0,1,0-18-18,18,18,0,0,0,18,18h0Z" transform="translate(-150.01 -238.68)"/><path class="cls-1" d="M200,335.74a17.82,17.82,0,0,1-17.82-17.83h0A17.82,17.82,0,0,1,200,300.09h0a17.82,17.82,0,0,1,17.82,17.83h0A17.82,17.82,0,0,1,200,335.74h0Zm0,0.52a18.34,18.34,0,0,0,18.34-18.34h0A18.34,18.34,0,0,0,200,299.58h0a18.34,18.34,0,0,0-18.34,18.34h0A18.34,18.34,0,0,0,200,336.26h0Z" transform="translate(-150.01 -238.68)"/><path class="cls-1" d="M200,336.09a18.17,18.17,0,0,1-18.17-18.17h0A18.17,18.17,0,0,1,200,299.74h0a18.18,18.18,0,0,1,0,36.35h0Zm0,0.52a18.69,18.69,0,0,0,0-37.37h0a18.68,18.68,0,0,0-18.68,18.69h0A18.68,18.68,0,0,0,200,336.61h0Z" transform="translate(-150.01 -238.68)"/><path class="cls-1" d="M200,336.43a18.52,18.52,0,1,1,18.5-18.53v0A18.51,18.51,0,0,1,200,336.43h0Zm0,0.52a19,19,0,1,0-19-19h0a19,19,0,0,0,19,19h0Z" transform="translate(-150.01 -238.68)"/><path class="cls-1" d="M200,336.77a18.86,18.86,0,1,1,18.85-18.86h0A18.85,18.85,0,0,1,200,336.77h0Zm0,0.52a19.38,19.38,0,0,0,0-38.75h0a19.37,19.37,0,0,0-19.37,19.37h0A19.37,19.37,0,0,0,200,337.29h0Z" transform="translate(-150.01 -238.68)"/><path class="cls-1" d="M200,337.12a19.2,19.2,0,0,1-19.2-19.19h0A19.2,19.2,0,0,1,200,298.73h0a19.2,19.2,0,0,1,0,38.4h0Zm0,0.52a19.71,19.71,0,0,0,19.7-19.71h0A19.7,19.7,0,1,0,200,337.62h0v0Z" transform="translate(-150.01 -238.68)"/><path class="cls-1" d="M200,337.46a19.55,19.55,0,0,1,0-39.09h0a19.55,19.55,0,0,1,0,39.09h0Zm0,0.52A20.06,20.06,0,1,0,180,317.92h0A20.06,20.06,0,0,0,200,338h0Z" transform="translate(-150.01 -238.68)"/><path class="cls-1" d="M200,337.8a19.89,19.89,0,1,1,19.88-19.89h0A19.88,19.88,0,0,1,200,337.8h0Zm0,0.52a20.4,20.4,0,1,0-20.4-20.4h0a20.4,20.4,0,0,0,20.4,20.4h0Z" transform="translate(-150.01 -238.68)"/><path class="cls-1" d="M200,338.15a20.23,20.23,0,1,1,20.22-20.23h0A20.23,20.23,0,0,1,200,338.15h0Zm0,0.52a20.75,20.75,0,0,0,20.75-20.75h0a20.75,20.75,0,1,0-41.5,0h0A20.75,20.75,0,0,0,200,338.66h0Z" transform="translate(-150.01 -238.68)"/><path class="cls-1" d="M200,338.49a20.57,20.57,0,1,1,20.57-20.58h0A20.57,20.57,0,0,1,200,338.49h0Zm0,0.52a21.08,21.08,0,1,0-21.07-21.08h0A21.07,21.07,0,0,0,200,339h0Z" transform="translate(-150.01 -238.68)"/><path class="cls-1" d="M200,338.83a20.91,20.91,0,0,1-20.91-20.91h0A20.91,20.91,0,0,1,200,297h0a20.91,20.91,0,0,1,20.91,20.92h0A20.91,20.91,0,0,1,200,338.83h0Zm0,0.52a21.43,21.43,0,0,0,0-42.86h0a21.43,21.43,0,0,0-21.43,21.43h0A21.43,21.43,0,0,0,200,339.36h0Z" transform="translate(-150.01 -238.68)"/><path class="cls-1" d="M200,339.18a21.25,21.25,0,0,1-21.25-21.25h0A21.25,21.25,0,0,1,200,296.68h0a21.25,21.25,0,0,1,21.25,21.25h0A21.25,21.25,0,0,1,200,339.18h0Zm0,0.52a21.77,21.77,0,1,0-21.77-21.77h0A21.77,21.77,0,0,0,200,339.68h0v0Z" transform="translate(-150.01 -238.68)"/><path class="cls-1" d="M200,339.52a21.6,21.6,0,0,1,0-43.2h0a21.6,21.6,0,0,1,21.59,21.6h0A21.6,21.6,0,0,1,200,339.52h0Zm0,0.52a22.11,22.11,0,1,0-22.11-22.11h0A22.11,22.11,0,0,0,200,340h0Z" transform="translate(-150.01 -238.68)"/><path class="cls-1" d="M200,339.86a21.94,21.94,0,0,1-21.94-21.94h0A21.94,21.94,0,1,1,200,339.86h0Zm0,0.52a22.44,22.44,0,0,0,22.44-22.44h0A22.44,22.44,0,0,0,200,295.48h0a22.44,22.44,0,0,0-22.44,22.44h0A22.44,22.44,0,0,0,200,340.37h0Z" transform="translate(-150.01 -238.68)"/><path class="cls-1" d="M200,340.2a22.28,22.28,0,0,1-22.28-22.29h0A22.28,22.28,0,0,1,200,295.62h0a22.28,22.28,0,0,1,22.28,22.29h0A22.28,22.28,0,0,1,200,340.2h0Zm0,0.52a22.8,22.8,0,1,0-22.8-22.8h0A22.8,22.8,0,0,0,200,340.72h0Z" transform="translate(-150.01 -238.68)"/><path class="cls-1" d="M200,340.54a22.63,22.63,0,1,1,22.62-22.63h0A22.63,22.63,0,0,1,200,340.54h0Zm0,0.52a23.14,23.14,0,1,0-23.14-23.15h0A23.14,23.14,0,0,0,200,341.06h0Z" transform="translate(-150.01 -238.68)"/><path class="cls-1" d="M200,340.89a23,23,0,1,1,23-23h0a23,23,0,0,1-23,23h0Zm0,0.52a23.48,23.48,0,0,0,23.48-23.47h0A23.48,23.48,0,0,0,200,294.43h0a23.48,23.48,0,0,0-23.48,23.48h0A23.48,23.48,0,0,0,200,341.42h0Z" transform="translate(-150.01 -238.68)"/><path class="cls-1" d="M200,341.23a23.32,23.32,0,1,1,23.31-23.32h0A23.31,23.31,0,0,1,200,341.23h0Zm0,0.52a23.82,23.82,0,0,0,23.82-23.83h0A23.82,23.82,0,0,0,200,294.09h0a23.82,23.82,0,0,0-23.82,23.83h0A23.82,23.82,0,0,0,200,341.75h0Z" transform="translate(-150.01 -238.68)"/><path class="cls-1" d="M200,341.58a23.65,23.65,0,0,1-23.65-23.64h0A23.65,23.65,0,0,1,200,294.26h0a23.65,23.65,0,0,1,23.66,23.65h0A23.65,23.65,0,0,1,200,341.58h0Zm0,0.52a24.17,24.17,0,0,0,0-48.35h0a24.17,24.17,0,0,0-24.17,24.17h0A24.17,24.17,0,0,0,200,342.09h0Z" transform="translate(-150.01 -238.68)"/><path class="cls-1" d="M200,341.92a24,24,0,1,1,24-24h0a24,24,0,0,1-24,24h0Zm0,0.52a24.52,24.52,0,1,0-24.5-24.53v0h0A24.51,24.51,0,0,0,200,342.43h0Z" transform="translate(-150.01 -238.68)"/><path class="cls-1" d="M200,342.26a24.34,24.34,0,0,1-24.34-24.34h0A24.34,24.34,0,0,1,200,293.57h0a24.34,24.34,0,0,1,24.34,24.34h0A24.34,24.34,0,0,1,200,342.26h0Zm0,0.52a24.85,24.85,0,0,0,24.85-24.86h0A24.85,24.85,0,0,0,200,293.06h0a24.85,24.85,0,0,0-24.85,24.86h0A24.85,24.85,0,0,0,200,342.77h0Z" transform="translate(-150.01 -238.68)"/><path class="cls-1" d="M200,342.6a24.68,24.68,0,0,1-24.68-24.69h0A24.68,24.68,0,0,1,200,293.23h0a24.68,24.68,0,0,1,24.68,24.69h0A24.68,24.68,0,0,1,200,342.6h0Zm0,0.52a25.2,25.2,0,1,0-25.19-25.21h0A25.2,25.2,0,0,0,200,343.12h0Z" transform="translate(-150.01 -238.68)"/><path class="cls-1" d="M200,342.95a25,25,0,0,1-25-25h0a25,25,0,0,1,25-25h0a25,25,0,0,1,25,25h0a25,25,0,0,1-25,25h0Zm0,0.52a25.55,25.55,0,1,0-25.54-25.55h0A25.54,25.54,0,0,0,200,343.46h0Z" transform="translate(-150.01 -238.68)"/><path class="cls-1" d="M200,343.29a25.38,25.38,0,0,1,0-50.75h0a25.38,25.38,0,0,1,0,50.75h0Zm0,0.52a25.89,25.89,0,1,0-25.88-25.89h0A25.88,25.88,0,0,0,200,343.8h0Z" transform="translate(-150.01 -238.68)"/><path class="cls-1" d="M200,343.62a25.71,25.71,0,0,1-.58-51.42H200a25.71,25.71,0,0,1,0,51.42h0Zm0,0.52a26.23,26.23,0,0,0,.5-52.46H200a26.22,26.22,0,0,0-26.22,26.23h0A26.22,26.22,0,0,0,200,344.15h0Z" transform="translate(-150.01 -238.68)"/><path class="cls-1" d="M200,344a26.06,26.06,0,1,1,26.06-26.06A26.06,26.06,0,0,1,200,344h0Zm0,0.52a26.57,26.57,0,0,0,26.57-26.56h0A26.57,26.57,0,0,0,200,291.34h0a26.57,26.57,0,0,0-26.57,26.57h0A26.57,26.57,0,0,0,200,344.49h0Z" transform="translate(-150.01 -238.68)"/><path class="cls-1" d="M200,344.32a26.4,26.4,0,0,1-26.39-26.4h0A26.4,26.4,0,0,1,200,291.52h0a26.4,26.4,0,0,1,26.4,26.4h0A26.4,26.4,0,0,1,200,344.32h0Zm0,0.52a26.91,26.91,0,0,0,26.91-26.9h0a26.91,26.91,0,1,0-53.82,0h0A26.91,26.91,0,0,0,200,344.83h0Z" transform="translate(-150.01 -238.68)"/><path class="cls-1" d="M200,344.66a26.75,26.75,0,1,1,26.75-26.75A26.75,26.75,0,0,1,200,344.66h0Zm0,0.52a27.25,27.25,0,1,0-27.25-27.25h0A27.25,27.25,0,0,0,200,345.18h0Z" transform="translate(-150.01 -238.68)"/><path class="cls-1" d="M229.11,293.1a27.1,27.1,0,0,1,0-54.2h0a27.1,27.1,0,0,1,0,54.2h0Zm0,0.52A27.59,27.59,0,0,0,256.69,266h0a27.59,27.59,0,0,0-55.18,0h0a27.59,27.59,0,0,0,27.58,27.6h0Z" transform="translate(-150.01 -238.68)"/><path class="cls-1" d="M200,345.34a27.43,27.43,0,0,1-27.42-27.43h0A27.43,27.43,0,0,1,200,290.48h0a27.43,27.43,0,0,1,27.42,27.43h0A27.43,27.43,0,0,1,200,345.34h0Zm0,0.52A27.95,27.95,0,0,0,200,290h0a27.94,27.94,0,0,0-27.94,27.94h0A27.94,27.94,0,0,0,200,345.86h0Z" transform="translate(-150.01 -238.68)"/><path class="cls-1" d="M200,345.68a27.77,27.77,0,0,1-27.77-27.77h0A27.77,27.77,0,0,1,200,290.14h0a27.77,27.77,0,0,1,0,55.54h0Zm0,0.52a28.29,28.29,0,0,0,0-56.58h0a28.28,28.28,0,0,0-28.28,28.29h0A28.28,28.28,0,0,0,200,346.2h0Z" transform="translate(-150.01 -238.68)"/><path class="cls-1" d="M200,346a28.11,28.11,0,0,1-28.11-28.1h0A28.11,28.11,0,0,1,200,289.8h0A28.12,28.12,0,0,1,200,346h0Zm0,0.52a28.63,28.63,0,1,0-28.62-28.63h0A28.63,28.63,0,0,0,200,346.54h0v0Z" transform="translate(-150.01 -238.68)"/><path class="cls-1" d="M200,346.37a28.46,28.46,0,0,1-28.46-28.47h0A28.46,28.46,0,0,1,200,289.43h0a28.47,28.47,0,0,1,0,56.94h0Zm0,0.52a29,29,0,0,0,29-29h0a29,29,0,0,0-28.95-29h0a29,29,0,0,0-29,29h0a29,29,0,0,0,29,29h0Z" transform="translate(-150.01 -238.68)"/><path class="cls-1" d="M200,346.72a28.8,28.8,0,1,1,28.8-28.8,28.8,28.8,0,0,1-28.8,28.8h0Zm0,0.52a29.31,29.31,0,0,0,29.31-29.3h0A29.31,29.31,0,0,0,200,288.6h0a29.31,29.31,0,0,0-29.31,29.31h0A29.31,29.31,0,0,0,200,347.23h0Z" transform="translate(-150.01 -238.68)"/><path class="cls-1" d="M200,347.06a29.14,29.14,0,0,1-29.14-29.14h0A29.14,29.14,0,0,1,200,288.78h0a29.14,29.14,0,0,1,29.14,29.13h0A29.14,29.14,0,0,1,200,347.06h0Zm0,0.52a29.65,29.65,0,0,0,29.66-29.64h0A29.65,29.65,0,0,0,200,288.26h0a29.65,29.65,0,0,0-29.65,29.66h0A29.65,29.65,0,0,0,200,347.57h0Z" transform="translate(-150.01 -238.68)"/><path class="cls-1" d="M200,347.4a29.49,29.49,0,0,1,0-59h0a29.49,29.49,0,0,1,0,59h0Zm0,0.52a30,30,0,1,0-30-30h0a30,30,0,0,0,30,30h0Z" transform="translate(-150.01 -238.68)"/><path class="cls-1" d="M200,347.74a29.83,29.83,0,0,1-29.84-29.83h0A29.83,29.83,0,0,1,200,288.07h0a29.83,29.83,0,0,1,29.83,29.83h0A29.83,29.83,0,0,1,200,347.74h0Zm0,0.52a30.34,30.34,0,1,0-30.34-30.35h0A30.34,30.34,0,0,0,200,348.26h0Z" transform="translate(-150.01 -238.68)"/><path class="cls-1" d="M200,348.09a30.17,30.17,0,0,1-30.17-30.17h0A30.17,30.17,0,0,1,200,287.74h0a30.17,30.17,0,0,1,30.16,30.17h0A30.17,30.17,0,0,1,200,348.09h0Zm0,0.52a30.69,30.69,0,1,0-30.68-30.69h0A30.68,30.68,0,0,0,200,348.6h0Z" transform="translate(-150.01 -238.68)"/><path class="cls-1" d="M200,348.43a30.5,30.5,0,0,1-30.5-30.5h0a30.5,30.5,0,0,1,30.5-30.5h0a30.5,30.5,0,0,1,30.5,30.5h0A30.5,30.5,0,0,1,200,348.43h0Zm0,0.52a31,31,0,1,0-31-31h0a31,31,0,0,0,31,31h0Z" transform="translate(-150.01 -238.68)"/><path class="cls-1" d="M200,348.77a30.85,30.85,0,0,1-30.85-30.86h0A30.85,30.85,0,0,1,200,287.06h0a30.85,30.85,0,0,1,30.85,30.86h0A30.85,30.85,0,0,1,200,348.77h0Zm0,0.52a31.37,31.37,0,1,0-31.36-31.38h0A31.37,31.37,0,0,0,200,349.29h0Z" transform="translate(-150.01 -238.68)"/><path class="cls-1" d="M200,349.12a31.21,31.21,0,0,1,0-62.42h0a31.2,31.2,0,0,1,31.2,31.21h0A31.2,31.2,0,0,1,200,349.12h0Zm0,0.52a31.71,31.71,0,0,0,31.71-31.71h0A31.71,31.71,0,0,0,200,286.2h0a31.71,31.71,0,0,0-31.71,31.71h0A31.71,31.71,0,0,0,200,349.62h0v0Z" transform="translate(-150.01 -238.68)"/><path class="cls-1" d="M200,349.46a31.55,31.55,0,0,1,0-63.09h0a31.55,31.55,0,0,1,0,63.09h0Zm0,0.52a32.05,32.05,0,0,0,32.06-32h0a32.05,32.05,0,0,0-32-32.07h0A32.05,32.05,0,0,0,168,317.92h0A32.05,32.05,0,0,0,200,350h0Z" transform="translate(-150.01 -238.68)"/><path class="cls-1" d="M200,349.8a31.88,31.88,0,0,1-31.88-31.88h0A31.88,31.88,0,0,1,200,286h0a31.88,31.88,0,0,1,31.88,31.88h0A31.88,31.88,0,0,1,200,349.8h0Zm0,0.52a32.4,32.4,0,0,0,32.39-32.4h0A32.4,32.4,0,0,0,200,285.52h0a32.4,32.4,0,0,0-32.39,32.4h0A32.4,32.4,0,0,0,200,350.3h0v0Z" transform="translate(-150.01 -238.68)"/><path class="cls-1" d="M200,350.15a32.22,32.22,0,0,1-32.22-32.21h0A32.22,32.22,0,0,1,200,285.68h0a32.22,32.22,0,0,1,32.22,32.23h0A32.22,32.22,0,0,1,200,350.15h0Zm0,0.52a32.75,32.75,0,1,0-32.75-32.75h0A32.75,32.75,0,0,0,200,350.66h0Z" transform="translate(-150.01 -238.68)"/><path class="cls-1" d="M200,350.49a32.57,32.57,0,0,1-32.57-32.57h0A32.57,32.57,0,0,1,200,285.34h0a32.57,32.57,0,0,1,32.57,32.57h0A32.57,32.57,0,0,1,200,350.49h0Zm0,0.52a33.09,33.09,0,1,0-33.09-33.09h0A33.08,33.08,0,0,0,200,351h0Z" transform="translate(-150.01 -238.68)"/><path class="cls-1" d="M200,350.83a32.91,32.91,0,0,1-32.91-32.91h0A32.91,32.91,0,0,1,200,285h0a32.91,32.91,0,0,1,32.91,32.91h0A32.91,32.91,0,0,1,200,350.83h0Zm0,0.52a33.43,33.43,0,1,0-33.42-33.43h0A33.43,33.43,0,0,0,200,351.35h0Z" transform="translate(-150.01 -238.68)"/><path class="cls-1" d="M200,351.18a33.25,33.25,0,1,1,33.25-33.25A33.25,33.25,0,0,1,200,351.18h0Zm0,0.52a33.77,33.77,0,1,0-33.77-33.79h0A33.77,33.77,0,0,0,200,351.68h0v0Z" transform="translate(-150.01 -238.68)"/><path class="cls-1" d="M200,351.52a33.6,33.6,0,1,1,33.6-33.6h0A33.6,33.6,0,0,1,200,351.52h0Zm0,0.52a34.12,34.12,0,1,0-34.12-34.11A34.12,34.12,0,0,0,200,352h0Z" transform="translate(-150.01 -238.68)"/><path class="cls-1" d="M200,351.86A33.94,33.94,0,0,1,200,284h0a33.94,33.94,0,0,1,33.94,33.94h0A33.94,33.94,0,0,1,200,351.86h0Zm0,0.52a34.45,34.45,0,0,0,34.45-34.46h0A34.45,34.45,0,0,0,200,283.46h0a34.45,34.45,0,0,0-34.45,34.45h0A34.46,34.46,0,0,0,200,352.37h0Z" transform="translate(-150.01 -238.68)"/><path class="cls-1" d="M200,352.2a34.29,34.29,0,0,1,0-68.58h0a34.28,34.28,0,0,1,34.28,34.29h0A34.28,34.28,0,0,1,200,352.2h0Zm0,0.52a34.8,34.8,0,0,0,34.79-34.8h0a34.8,34.8,0,0,0-69.59,0h0A34.8,34.8,0,0,0,200,352.72h0Z" transform="translate(-150.01 -238.68)"/><path class="cls-1" d="M200,352.54a34.62,34.62,0,0,1-34.62-34.63h0A34.62,34.62,0,0,1,200,283.28h0a34.63,34.63,0,0,1,0,69.25h0Zm0,0.52a35.14,35.14,0,0,0,35.14-35.13h0a35.14,35.14,0,1,0-70.27,0h0A35.14,35.14,0,0,0,200,353.06h0Z" transform="translate(-150.01 -238.68)"/><path class="cls-1" d="M200,352.89a35,35,0,0,1-35-35h0a35,35,0,0,1,35-35h0a35,35,0,0,1,35,35h0a35,35,0,0,1-35,35h0Zm0,0.52a35.48,35.48,0,0,0,35.47-35.5h0A35.48,35.48,0,0,0,200,282.43h0a35.49,35.49,0,0,0,0,71h0Z" transform="translate(-150.01 -238.68)"/><path class="cls-1" d="M200,353.23a35.31,35.31,0,0,1-35.3-35.31h0A35.3,35.3,0,1,1,200,353.23h0Zm0,0.52a35.83,35.83,0,0,0,0-71.66h0a35.83,35.83,0,0,0-35.82,35.83h0A35.83,35.83,0,0,0,200,353.74h0Z" transform="translate(-150.01 -238.68)"/><path class="cls-1" d="M200,353.57a35.65,35.65,0,0,1-35.65-35.66h0A35.65,35.65,0,0,1,200,282.26h0a35.65,35.65,0,0,1,35.66,35.65h0A35.65,35.65,0,0,1,200,353.57h0Zm0,0.52a36.17,36.17,0,1,0-36.17-36.17h0A36.17,36.17,0,0,0,200,354.09h0Z" transform="translate(-150.01 -238.68)"/><path class="cls-1" d="M200,353.92a36,36,0,1,1,36-36,36,36,0,0,1-36,36h0Zm0,0.52a36.5,36.5,0,0,0,36.5-36.5h0A36.5,36.5,0,0,0,200,281.42h0a36.5,36.5,0,0,0-36.5,36.5h0a36.5,36.5,0,0,0,36.5,36.5h0Z" transform="translate(-150.01 -238.68)"/><path class="cls-1" d="M200,354.26a36.34,36.34,0,0,1-36.34-36.34h0A36.34,36.34,0,0,1,200,281.57h0a36.34,36.34,0,0,1,0,72.69h0Zm0,0.52a36.86,36.86,0,1,0-36.86-36.86h0A36.86,36.86,0,0,0,200,354.77h0Z" transform="translate(-150.01 -238.68)"/><path class="cls-1" d="M200,354.6a36.67,36.67,0,0,1-36.67-36.67h0A36.67,36.67,0,0,1,200,281.24h0a36.67,36.67,0,0,1,36.67,36.68h0A36.67,36.67,0,0,1,200,354.6h0Zm0,0.52a37.2,37.2,0,1,0-37.19-37.21h0A37.2,37.2,0,0,0,200,355.12h0Z" transform="translate(-150.01 -238.68)"/><path class="cls-1" d="M200,355a37,37,0,1,1,37-37,37,37,0,0,1-37,37h0Zm0,0.52a37.54,37.54,0,1,0-37.54-37.55A37.54,37.54,0,0,0,200,355.47h0Z" transform="translate(-150.01 -238.68)"/><path class="cls-1" d="M200,355.29a37.37,37.37,0,0,1-37.36-37.37h0A37.37,37.37,0,0,1,200,280.53h0a37.38,37.38,0,0,1,0,74.75h0Zm0,0.52a37.88,37.88,0,0,0,37.88-37.88h0a37.88,37.88,0,1,0-75.74-1.28v1.28h0A37.88,37.88,0,0,0,200,355.8h0Z" transform="translate(-150.01 -238.68)"/><path class="cls-1" d="M200,355.62a37.71,37.71,0,0,1,0-75.42h0a37.71,37.71,0,0,1,.61,75.42H200Zm0,0.52a38.23,38.23,0,0,0,0-76.46h0a38.23,38.23,0,0,0,0,76.46h0Z" transform="translate(-150.01 -238.68)"/><path class="cls-1" d="M200,356a38,38,0,0,1-38-38h0a38,38,0,0,1,38-38.06h0a38,38,0,0,1,38,38h0A38,38,0,0,1,200,356h0Zm0,0.52a38.57,38.57,0,0,0,38.57-38.56h0a38.57,38.57,0,1,0-77.13,0h0A38.57,38.57,0,0,0,200,356.49h0Z" transform="translate(-150.01 -238.68)"/><path class="cls-1" d="M200,356.33a38.4,38.4,0,0,1-38.39-38.41h0A38.4,38.4,0,0,1,200,279.53h0a38.4,38.4,0,0,1,0,76.8h0Zm0,0.52a38.91,38.91,0,0,0,38.91-38.91h0A38.91,38.91,0,0,0,200,279h0a38.91,38.91,0,0,0,0,77.82h0Z" transform="translate(-150.01 -238.68)"/><path class="cls-1" d="M200,356.66a38.75,38.75,0,0,1-38.75-38.75h0a38.75,38.75,0,1,1,77.5,0h0A38.75,38.75,0,0,1,200,356.66h0Zm0,0.52a39.25,39.25,0,0,0,0-78.5h0a39.25,39.25,0,0,0-39.25,39.25h0A39.25,39.25,0,0,0,200,357.18h0Z" transform="translate(-150.01 -238.68)"/><path class="cls-1" d="M200,357a39.08,39.08,0,0,1-39.09-39.07h0A39.08,39.08,0,0,1,200,278.83h0a39.08,39.08,0,0,1,39.08,39.08h0A39.08,39.08,0,0,1,200,357h0Zm0,0.52a39.6,39.6,0,1,0-39.59-39.61v0A39.6,39.6,0,0,0,200,357.52h0Z" transform="translate(-150.01 -238.68)"/><path class="cls-1" d="M200,357.35a39.41,39.41,0,0,1-39.41-39.41h0A39.41,39.41,0,0,1,200,278.51h0a39.41,39.41,0,0,1,39.41,39.41h0A39.41,39.41,0,0,1,200,357.35h0Zm0,0.52a39.95,39.95,0,1,0-39.94-40h0a39.94,39.94,0,0,0,39.93,40h0Z" transform="translate(-150.01 -238.68)"/><path class="cls-1" d="M200,357.68a39.77,39.77,0,1,1,39.75-39.79h0v0A39.77,39.77,0,0,1,200,357.68h0Zm0,0.52a40.29,40.29,0,1,0-40.28-40.29h0A40.28,40.28,0,0,0,200,358.21h0Z" transform="translate(-150.01 -238.68)"/><path class="cls-1" d="M200,358a40.11,40.11,0,0,1-40.11-40.1h0A40.11,40.11,0,0,1,200,277.8h0a40.11,40.11,0,0,1,40.11,40.11h0A40.11,40.11,0,0,1,200,358h0Zm0,0.52a40.62,40.62,0,0,0,40.62-40.62h0a40.62,40.62,0,1,0-81.25,0h0A40.62,40.62,0,0,0,200,358.54h0v0Z" transform="translate(-150.01 -238.68)"/><path class="cls-1" d="M200,358.37a40.45,40.45,0,0,1-40.45-40.45h0A40.45,40.45,0,0,1,200,277.46h0a40.45,40.45,0,0,1,40.45,40.46h0A40.45,40.45,0,0,1,200,358.37h0Zm0,0.52a41,41,0,0,0,41-41h0a41,41,0,0,0-40.95-41h0a41,41,0,0,0-41,41h0a41,41,0,0,0,41,41h0Z" transform="translate(-150.01 -238.68)"/><path class="cls-1" d="M200,358.72a40.8,40.8,0,0,1-40.79-40.8h0a40.8,40.8,0,1,1,40.8,40.8h0Zm0,0.52a41.31,41.31,0,0,0,41.31-41.3h0a41.31,41.31,0,1,0-82.62,0h0A41.31,41.31,0,0,0,200,359.23h0Z" transform="translate(-150.01 -238.68)"/><path class="cls-1" d="M200,359.06a41.14,41.14,0,0,1-41.13-41.14h0A41.14,41.14,0,0,1,200,276.78h0a41.14,41.14,0,0,1,0,82.29h0Zm0,0.52a41.65,41.65,0,0,0,41.66-41.65h0A41.65,41.65,0,0,0,200,276.26h0a41.66,41.66,0,0,0,0,83.31h0Z" transform="translate(-150.01 -238.68)"/><path class="cls-1" d="M200,359.4a41.48,41.48,0,0,1-41.48-41.48h0A41.48,41.48,0,0,1,200,276.43h0a41.48,41.48,0,0,1,41.48,41.48h0A41.48,41.48,0,0,1,200,359.4h0Zm0,0.52a42,42,0,1,0-42-42h0a42,42,0,0,0,42,42h0Z" transform="translate(-150.01 -238.68)"/><path class="cls-1" d="M200,359.74a41.83,41.83,0,0,1-41.83-41.81h0A41.83,41.83,0,0,1,200,276.08h0a41.83,41.83,0,0,1,41.85,41.81h0A41.83,41.83,0,0,1,200,359.74h0Zm0,0.52a42.34,42.34,0,0,0,0-84.69h0a42.34,42.34,0,0,0-42.33,42.34h0A42.34,42.34,0,0,0,200,360.26h0Z" transform="translate(-150.01 -238.68)"/><path class="cls-1" d="M200,360.09a42.17,42.17,0,0,1,0-84.35h0a42.17,42.17,0,0,1,0,84.35h0Zm0,0.52a42.69,42.69,0,1,0-42.68-42.69h0A42.68,42.68,0,0,0,200,360.6h0Z" transform="translate(-150.01 -238.68)"/><path class="cls-1" d="M200,360.43a42.5,42.5,0,0,1-42.5-42.5h0a42.5,42.5,0,0,1,42.5-42.5h0a42.5,42.5,0,0,1,42.5,42.5h0A42.5,42.5,0,0,1,200,360.43h0Zm0,0.52a43,43,0,0,0,43-43h0a43,43,0,1,0-86-.7v0.7h0a43,43,0,0,0,43,43h0Z" transform="translate(-150.01 -238.68)"/><path class="cls-1" d="M200,360.77a42.85,42.85,0,0,1-42.85-42.85h0A42.85,42.85,0,0,1,200,275.06h0a42.85,42.85,0,0,1,42.85,42.86h0A42.85,42.85,0,0,1,200,360.77h0Zm0,0.52a43.37,43.37,0,0,0,43.36-43.36h0a43.36,43.36,0,1,0-86.73-.68h0v0.66h0A43.37,43.37,0,0,0,200,361.29h0Z" transform="translate(-150.01 -238.68)"/><path class="cls-1" d="M200,361.12a43.2,43.2,0,0,1-43.19-43.19h0A43.2,43.2,0,0,1,200,274.71h0a43.2,43.2,0,0,1,43.19,43.2h0A43.2,43.2,0,0,1,200,361.12h0Zm0,0.52a43.71,43.71,0,0,0,43.71-43.71h0A43.71,43.71,0,0,0,200,274.21h0a43.71,43.71,0,0,0-43.7,43.7h0A43.71,43.71,0,0,0,200,361.62h0v0Z" transform="translate(-150.01 -238.68)"/><path class="cls-1" d="M200,361.46a43.54,43.54,0,0,1-43.53-43.54h0A43.54,43.54,0,0,1,200,274.37h0a43.54,43.54,0,0,1,43.54,43.54h0A43.54,43.54,0,0,1,200,361.46h0Zm0,0.34a43.88,43.88,0,0,0,43.88-43.87h0a43.88,43.88,0,1,0-87.74-1.33h0v1.33h0A43.88,43.88,0,0,0,200,361.79h0v0h0Z" transform="translate(-150.01 -238.68)"/></g><path class="cls-4" d="M169,317.92a31,31,0,0,1,31-31h0a31,31,0,0,1,31,31h0a31,31,0,0,1-31,31h0a31,31,0,0,1-31-31h0Zm8,0a23,23,0,0,1,23-23h0a23,23,0,0,1,23,23h0a23,23,0,0,1-23,23h0a23,23,0,0,1-23-23h0Z" transform="translate(-150.01 -238.68)"/><path class="cls-2" d="M199.07,312.41l-0.13.57a4.25,4.25,0,0,0-.59.08,5,5,0,0,0-.55.12,0.88,0.88,0,0,0-.47.32,1.37,1.37,0,0,0-.21.47l-1.75,7.69,0,0.23a1,1,0,0,0,0,.2,0.55,0.55,0,0,0,.27.5,3.23,3.23,0,0,0,1.12.25l-0.13.57h-5.94l0.13-.57,0.63-.09a2.85,2.85,0,0,0,.5-0.11,1.13,1.13,0,0,0,.49-0.32,1.16,1.16,0,0,0,.25-0.52l1.86-8.25h-0.06l-6,9.67h-1a8.88,8.88,0,0,0-.11-1c-0.06-.45-0.12-0.87-0.17-1.25l-1.06-7.58h-0.08l-1.56,6.75a7.21,7.21,0,0,0-.14.75,4.45,4.45,0,0,0-.05.66,1.46,1.46,0,0,0,.06.49,0.82,0.82,0,0,0,.18.29,1.57,1.57,0,0,0,.61.31,4.65,4.65,0,0,0,.66.18l-0.13.57H181l0.13-.57,0.66-.11a2.21,2.21,0,0,0,.77-0.28,1.6,1.6,0,0,0,.58-0.72,8.36,8.36,0,0,0,.45-1.48l1.25-5.43c0-.19.07-0.33,0.08-0.43a2.19,2.19,0,0,0,0-.28,1.19,1.19,0,0,0-.06-0.42,0.87,0.87,0,0,0-.2-0.31,1.16,1.16,0,0,0-.57-0.31,4.25,4.25,0,0,0-.63-0.1l0.13-.57h5l1.06,7.25,3.6-5.9c0.15-.27.3-0.55,0.43-0.82a3.52,3.52,0,0,0,.22-0.55h5.13Zm3.44,11.3a7.73,7.73,0,0,1-1.84-.23,6.39,6.39,0,0,1-1.62-.62l-0.67.55h-0.67l0.82-4h0.67a5.55,5.55,0,0,0,.34,1.21,4.3,4.3,0,0,0,.64,1.12,3.18,3.18,0,0,0,1,.85,3.11,3.11,0,0,0,3.16-.21A1.78,1.78,0,0,0,205,321a1.48,1.48,0,0,0-.38-1,3,3,0,0,0-1.24-.75l-1-.37c-0.34-.12-0.66-0.25-1-0.38a2.91,2.91,0,0,1-1.37-1.1,2.7,2.7,0,0,1-.46-1.5,3.12,3.12,0,0,1,.33-1.4,3.72,3.72,0,0,1,1-1.2,4.67,4.67,0,0,1,1.52-.82,6,6,0,0,1,2-.33,6.25,6.25,0,0,1,1.78.27,6.34,6.34,0,0,1,1.3.5l0.57-.46h0.67l-0.82,3.75h-0.65a7.67,7.67,0,0,0-.29-1.25,3.83,3.83,0,0,0-.52-1,2.45,2.45,0,0,0-.82-0.72,2.65,2.65,0,0,0-2.75.25,1.66,1.66,0,0,0-.63,1.33,1.41,1.41,0,0,0,.38,1,3.05,3.05,0,0,0,1.2.73l1,0.37c0.35,0.13.69,0.25,1,.39a3.52,3.52,0,0,1,1.42,1,2.34,2.34,0,0,1,.52,1.52,3.36,3.36,0,0,1-.38,1.56,3.83,3.83,0,0,1-1.06,1.25,5.22,5.22,0,0,1-1.68.86,7.11,7.11,0,0,1-2.11.3h0v0Zm10.36,0a7.73,7.73,0,0,1-1.83-.25,6.39,6.39,0,0,1-1.62-.6l-0.66.55h-0.67l0.83-4h0.67a5.55,5.55,0,0,0,.33,1.21,4.3,4.3,0,0,0,.64,1.12,3.18,3.18,0,0,0,1,.84,3.11,3.11,0,0,0,3.16-.21,1.78,1.78,0,0,0,.67-1.45,1.48,1.48,0,0,0-.38-1,3,3,0,0,0-1.25-.75l-1.06-.36c-0.34-.12-0.66-0.25-1-0.38a2.91,2.91,0,0,1-1.37-1.1,2.7,2.7,0,0,1-.47-1.5,3.12,3.12,0,0,1,.34-1.39,3.72,3.72,0,0,1,1-1.2,4.67,4.67,0,0,1,1.52-.82,6,6,0,0,1,2-.33,6.25,6.25,0,0,1,1.78.27,6.34,6.34,0,0,1,1.3.5l0.58-.46h0.67l-0.82,3.75h-0.67a7.67,7.67,0,0,0-.29-1.25,3.83,3.83,0,0,0-.52-1,2.45,2.45,0,0,0-.83-0.7,2.65,2.65,0,0,0-2.75.25,1.66,1.66,0,0,0-.63,1.33,1.41,1.41,0,0,0,.38,1,3.05,3.05,0,0,0,1.2.73l1,0.37c0.35,0.13.69,0.25,1,.39a3.52,3.52,0,0,1,1.42,1,2.34,2.34,0,0,1,.52,1.52,3.36,3.36,0,0,1-.38,1.56,3.83,3.83,0,0,1-1.06,1.25,5.22,5.22,0,0,1-1.68.86,7.11,7.11,0,0,1-2.11.3h0Z" transform="translate(-150.01 -238.68)"/></svg>