<svg id="Слой_1" data-name="Слой 1" xmlns="http://www.w3.org/2000/svg" xmlns:xlink="http://www.w3.org/1999/xlink" viewBox="0 0 426.73 517.93"><defs><style>.cls-1,.cls-4{fill:none;}.cls-2{fill:#858a90;}.cls-3{clip-path:url(#clip-path);}.cls-4{stroke:#858a90;stroke-miterlimit:10;stroke-width:3.28px;}</style><clipPath id="clip-path" transform="translate(-1 0)"><path class="cls-1" d="M76.89,317.94A124.12,124.12,0,0,1,200.95,193.76h0A124.12,124.12,0,0,1,325.12,317.83h0A124.12,124.12,0,0,1,201.06,442H201A124.12,124.12,0,0,1,76.89,317.94h0Zm32.07,0a92.06,92.06,0,0,1,92-92.07h0A92.06,92.06,0,0,1,293,317.93h0A92.06,92.06,0,0,1,201,410h0a92.06,92.06,0,0,1-92-92.05h0Z"/></clipPath></defs><title>logo-footer</title><path class="cls-2" d="M136.08,412.61l-1.59-1.09,10.74-15.92,1.6,1.09-10.74,15.92h0Zm5.28-19.31-13.14,14-0.31-.28,0.69-19.46-10,10.75L117.22,397l13.14-14,0.32,0.3L130,402.6,139.85,392l1.46,1.36h0ZM115,391.65l-1.47,1.09L107,384.41l1.47-1.09,2.64,3.37L124.77,376l1.2,1.54-13.66,10.67,2.65,3.38h0Zm-11.21-11.58-5.47-9.54,1.64-.94,4.54,7.87,5.2-3-4.5-7.81,1.63-.94,4.5,7.81,6.57-3.77-4.5-7.81,1.5-1,5.47,9.47L103.74,380h0Zm-8.61-15.31-1.37-3.57a23.16,23.16,0,0,1-1.31-4.14,5,5,0,0,1,.57-3.2,4.8,4.8,0,0,1,2.57-2.13,5.12,5.12,0,0,1,2.84-.3,4.6,4.6,0,0,1,2.43,1.32,9.68,9.68,0,0,1,1.94,3.28l5.86-9.65,0.85,2.19-5.87,9.63,0.39,1,8.33-3.2,0.69,1.8-17.92,7h0v0Zm1.09-2.46,6.1-2.34-1.16-3.09a8.17,8.17,0,0,0-1.36-2.52,3,3,0,0,0-1.6-.92,3.28,3.28,0,0,0-1.86.16,3.11,3.11,0,0,0-1.46,1.09,2.92,2.92,0,0,0-.57,1.69,8.44,8.44,0,0,0,.69,2.76l1.22,3.15h0v0Zm10.83-19.42-18.92,3.28-0.08-.42,12.26-15.13-14.47,2.55-0.33-1.86L104.48,328l0.08,0.43-12.14,15,14.3-2.52,0.34,2h0ZM84.71,315.16l19.36-8.62v2.06l-6.37,2.9-0.14,8.28,6.26,3.11v2.19l-19-9.4v-0.47h0Zm4.07,0.31,6.9,3.43,0.11-6.57-7,3.14h0ZM87.5,302.76l-1.84-.3,1.65-10.4,1.84,0.3-0.67,4.23,17.12,2.72-0.31,1.93-17.12-2.72-0.68,4.25h0Zm0.77-15.1,0.49-1.85,18.55,5-0.49,1.85-18.55-5h0Zm5.34-17.19a10.11,10.11,0,0,1,18.72-.13h0a10.1,10.1,0,0,1-.05,7.85,9.85,9.85,0,0,1-5.47,5.47,9.62,9.62,0,0,1-7.66-.07A10.23,10.23,0,0,1,95,280.32a9.85,9.85,0,0,1-1.3-9.91h0Zm1.76,0.65a7.91,7.91,0,0,0-.56,4.15,8,8,0,0,0,1.59,3.91,8.32,8.32,0,0,0,3.44,2.62,8.07,8.07,0,0,0,10.61-4.19v-0.07a8.19,8.19,0,0,0,.61-4.23,7.75,7.75,0,0,0-1.57-3.89,8.34,8.34,0,0,0-3.42-2.56,8.16,8.16,0,0,0-4.23-.64,8,8,0,0,0-3.89,1.6,8.1,8.1,0,0,0-2.63,3.34h0ZM118,265.21l-15.34-11.6,0.25-.34,19.42-1.35-11.67-8.84,1.09-1.51,15.33,11.56-0.26.35-19.21,1.37,11.59,8.76L118,265.2h0Zm5.47-35.34,19.36,8.62-1.55,1.36-6.43-2.79-6.24,5.47,1.88,6.74-1.61,1.4-5.75-20.45,0.35-.31h0v0Zm2.5,3.23,2,7.49,5-4.31-7-3.11h0V233.1Zm8.83-12.22,1.62-1.09,9.45,14.55,6.19-4,1,1.55L145.25,237,134.79,220.9h0v0Zm39.7-14.17-1.09,1.58a8.25,8.25,0,0,0-3.62-1.42,8.76,8.76,0,0,0-3.93.39,8.52,8.52,0,0,0-3.71,2.36,7.92,7.92,0,0,0-2,3.76,8.21,8.21,0,0,0,.26,4.31,7.85,7.85,0,0,0,4.11,4.83,8.35,8.35,0,0,0,6.5.35,8.54,8.54,0,0,0,5.47-5.09l1.8,0.62a9.7,9.7,0,0,1-2.54,3.8,11.21,11.21,0,0,1-4.26,2.43,10,10,0,0,1-8.59-.73,10.12,10.12,0,0,1-4.43-5.75,9.5,9.5,0,0,1,.62-7.66,10.18,10.18,0,0,1,6.15-5,10.87,10.87,0,0,1,4.95-.49,9.43,9.43,0,0,1,4.3,1.74h0v0Zm6.57-4.64L192,200.72l0.23,1.88-9,1.09,0.73,6,8.94-1.09,0.23,1.87-8.94,1.09,0.92,7.48L194,218l0.23,1.88-10.85,1.34-2.32-19.06h0Zm16.52-1.73h3.77a23.18,23.18,0,0,1,4.38.26,5,5,0,0,1,2.78,1.68,4.8,4.8,0,0,1,1.13,3.13,5.14,5.14,0,0,1-.73,2.76,4.6,4.6,0,0,1-2.11,1.8,9.68,9.68,0,0,1-3.79.62l6.91,8.93h-2.38l-6.9-8.93h-1.09v8.93h-1.91V200.31h0Zm1.92,1.88v6.54h3.28a8.17,8.17,0,0,0,2.84-.36,3,3,0,0,0,1.43-1.17,3.28,3.28,0,0,0,.51-1.8,3.11,3.11,0,0,0-.53-1.75,2.92,2.92,0,0,0-1.39-1.1,8.44,8.44,0,0,0-2.82-.34h-3.37Zm14.7,0.76,0.26-1.85,10.43,1.47-0.31,1.81-4.24-.59L217.94,221l-1.94-.27,2.41-17.17-4.26-.6h0Zm14.92,0.78,1.87,0.46-4.64,18.64-1.86-.46,4.64-18.64h0ZM237,206.1l9.1,3.13L245.45,211l-7.32-2.55-2,5.68,7.3,2.52-0.61,1.8-7.3-2.51-3.07,8.9-1.81-.62L236.89,206h0Zm13.67,5.44,1.74,0.81-8.1,17.41-1.74-.81,8.1-17.41h0Zm21,16.84-1.9.15a8.24,8.24,0,0,0-1.17-3.71,8.76,8.76,0,0,0-2.78-2.81,8.52,8.52,0,0,0-4.15-1.39,7.91,7.91,0,0,0-4.16.83,8.22,8.22,0,0,0-3.21,3,7.85,7.85,0,0,0-1.17,6.23,8.35,8.35,0,0,0,3.82,5.28,8.54,8.54,0,0,0,7.38,1L265,238.7a9.69,9.69,0,0,1-4.54.42,11.2,11.2,0,0,1-4.57-1.77,10,10,0,0,1-4.84-7.14,10.12,10.12,0,0,1,1.62-7,9.5,9.5,0,0,1,6.39-4.37,10.17,10.17,0,0,1,7.77,1.62A10.87,10.87,0,0,1,270.3,224a9.43,9.43,0,0,1,1.35,4.43h0Zm13.29,8-7.25,19.92-1.44-1.44,2.33-6.57-5.87-5.88-6.56,2.32-1.52-1.48,19.9-7.23,0.33,0.33h0.06Zm-3,2.72-7.29,2.55,4.64,4.64,2.62-7.24h0Zm10.24,8.76,1.47-1.1,5.89,8.76L298,256.61l-2.35-3.52-14.38,9.67-1.09-1.62,14.37-9.7-2.4-3.56h0Zm9.18,10.9,1,1.64-16.43,9.81-1-1.64,16.43-9.81h0Zm8.37,16.47A10.14,10.14,0,0,1,291,282.94a9.85,9.85,0,0,1,0-7.77,9.62,9.62,0,0,1,5.49-5.41,10.24,10.24,0,0,1,5.25-.68,9.85,9.85,0,0,1,7.92,6.13h0ZM308,276a7.92,7.92,0,0,0-2.54-3.28,8,8,0,0,0-3.83-1.7,8.32,8.32,0,0,0-4.28.58,8.07,8.07,0,0,0-4.54,10.47v0.07a8.19,8.19,0,0,0,2.55,3.43,7.76,7.76,0,0,0,3.85,1.64,8.34,8.34,0,0,0,4.27-.58,8.17,8.17,0,0,0,3.44-2.54,8,8,0,0,0,1.62-3.89,8.1,8.1,0,0,0-.5-4.22h0ZM295.53,295.9l19-2.67v0.42L301.8,308.32l14.51-2.08,0.26,1.87-19,2.65v-0.43l12.61-14.57-14.37,2-0.27-2h0v0.14ZM301,321.57l0.8,1.73q-3.28,1.38-3.57,3.63a3.79,3.79,0,0,0,.26,1.85,3.14,3.14,0,0,0,1.09,1.41,3.09,3.09,0,0,0,1.54.61,3.28,3.28,0,0,0,2-.45,15.67,15.67,0,0,0,3.4-2.95,17.06,17.06,0,0,1,2.92-2.7,4.81,4.81,0,0,1,3-.7,4.44,4.44,0,0,1,2.19.83,4.31,4.31,0,0,1,1.45,1.85,4.85,4.85,0,0,1,.34,2.42,5,5,0,0,1-.93,2.45,8.66,8.66,0,0,1-2.69,2.21l-1-1.68a7.51,7.51,0,0,0,2.08-1.64,3.2,3.2,0,0,0,.63-1.61,2.64,2.64,0,0,0-.5-2,2.3,2.3,0,0,0-1.64-.91,3,3,0,0,0-1.24.13,4.62,4.62,0,0,0-1.37.81c-0.26.23-1,1-2.19,2.27A14,14,0,0,1,304,332.2a5.29,5.29,0,0,1-3,.62,4.9,4.9,0,0,1-3.45-2,5.34,5.34,0,0,1-1.09-4,5.65,5.65,0,0,1,1.31-3,8.56,8.56,0,0,1,3.37-2.27h0Zm13.5,17.84-0.5,2.17-8.91,2.83,6.56,6.57-0.54,2.19-8.25-8.33-8.9-2.19,0.46-1.84,8.9,2.19,11.23-3.59h0ZM295,350.86l0.3,1.88q-3.58.42-4.38,2.51a3.79,3.79,0,0,0-.26,1.85,3.13,3.13,0,0,0,.63,1.65,3.09,3.09,0,0,0,1.34,1,3.28,3.28,0,0,0,2,.1,15.7,15.7,0,0,0,4.08-1.89,17,17,0,0,1,3.56-1.78,4.81,4.81,0,0,1,3.1.15,4.44,4.44,0,0,1,1.89,1.42,4.31,4.31,0,0,1,.88,2.19,4.86,4.86,0,0,1-.34,2.42,5,5,0,0,1-1.58,2.1,8.67,8.67,0,0,1-3.28,1.39L302.43,364a7.5,7.5,0,0,0,2.45-1,3.21,3.21,0,0,0,1.09-1.37,2.64,2.64,0,0,0,0-2,2.3,2.3,0,0,0-1.34-1.34,3,3,0,0,0-1.23-.22,4.64,4.64,0,0,0-1.54.41c-0.32.14-1.23,0.68-2.7,1.59a14,14,0,0,1-4.32,2,5.3,5.3,0,0,1-3-.22,4.9,4.9,0,0,1-2.77-2.84,5.34,5.34,0,0,1,0-4.15,5.64,5.64,0,0,1,2-2.59A8.56,8.56,0,0,1,295,351h0V350.9Zm6.06,19.9,1.6,1-5.47,9-1.6-1,2.19-3.67-14.86-8.86,1-1.68,14.86,8.93,2.19-3.72h0.09Zm-6.92,14.51-6.9,8.53-1.47-1.19,5.71-7.06-4.66-3.79-5.67,7-1.46-1.18,5.67-7-5.86-4.74-5.67,7-1.47-1.19,6.88-8.5,14.92,12h0Zm-23.24-1.51,10,16.64-0.24.2-16-7.34,3.93,17.15-0.24.2-14.23-13.2,1.47-1.19,10.06,9.52-3.36-14.94,0.37-.31,14.06,6.43L269.46,385l1.45-1.17h0v-0.09h0v0Z" transform="translate(-1 0)"/><path class="cls-2" d="M250.1,203.91c-87.71-81.33-233.87-60.11-198,145.8C4.41,122.76,187.65,98.88,271.65,215.89a123.89,123.89,0,0,0-21.58-12h0Z" transform="translate(-1 0)"/><path class="cls-2" d="M206.11,193.92C87.83,124.41-37,226.32,84.34,420.68-47,237.76,86.65,90.49,218.5,195.05A119.52,119.52,0,0,0,206.11,194h0v0Z" transform="translate(-1 0)"/><path class="cls-2" d="M139.48,210.12c-123.4,12.2-206.91,143.35-19.21,246.77-208.36-105.6-109.4-265.13,36.2-254.83a123.59,123.59,0,0,0-17,8.06h0Z" transform="translate(-1 0)"/><path class="cls-2" d="M84.52,275C6.09,363,29,505.84,232.77,470.29,8.65,517.41-17.44,339.17,94.65,253.84A123.63,123.63,0,0,0,84.48,275h0Z" transform="translate(-1 0)"/><path class="cls-2" d="M158.06,434.41c88,78.42,230.82,55.54,195.26-148.28,47.14,224.17-131.1,250.28-216.41,138.12a123.57,123.57,0,0,0,21.15,10.16h0Z" transform="translate(-1 0)"/><path class="cls-2" d="M77,312.81C7.44,431.06,109.4,556,303.73,434.6,120.78,566-26.44,432.25,78.13,300.41A119.54,119.54,0,0,0,77,312.76h0v0Z" transform="translate(-1 0)"/><path class="cls-2" d="M189.54,441.52c120.11,77.13,251.67-25,128.11-222.86,133.15,185.39-6,334.07-139.43,221.29q5.57,1,11.3,1.55h0Z" transform="translate(-1 0)"/><path class="cls-2" d="M254.77,429.84c127.56-7.32,218.54-141.79,27-247.32,212.1,107.45,105.72,270.78-44.13,254a123.3,123.3,0,0,0,17.12-6.76h0v0.08h0Z" transform="translate(-1 0)"/><path class="cls-2" d="M315,367c81.31-87.72,60.09-233.88-145.8-198C396.14,121.33,420,304.62,303,388.61A123.93,123.93,0,0,0,315,367h0Z" transform="translate(-1 0)"/><path class="cls-2" d="M93.18,379.41c12.19,123.45,143.33,207,246.75,19.26C234.34,607,74.88,508,85.13,362.41a123.63,123.63,0,0,0,8.06,17h0Z" transform="translate(-1 0)"/><path class="cls-2" d="M324.59,329.41c77-120.08-25-251.66-222.85-128.1C287.11,68.12,435.74,207.23,323,340.7q1-5.57,1.55-11.3h0Z" transform="translate(-1 0)"/><path class="cls-2" d="M312.89,264.15c-7.32-127.61-141.78-218.54-247.35-27,107.46-212.08,270.8-105.66,254,44.14a123.29,123.29,0,0,0-6.72-17.15h0Z" transform="translate(-1 0)"/><g class="cls-3"><polygon class="cls-1" points="324.12 193.81 324.12 442.06 75.89 442.06 75.89 193.81 324.12 193.81 324.12 193.81"/><path class="cls-1" d="M201,320a2.06,2.06,0,1,0-2.06-2.06h0A2.06,2.06,0,0,0,201,320h0Z" transform="translate(-1 0)"/><path class="cls-1" d="M201,319.31a1.37,1.37,0,1,1,1.38-1.37,1.37,1.37,0,0,1-1.38,1.37h0Zm0,2.06a3.43,3.43,0,1,0-3.43-3.43h0a3.43,3.43,0,0,0,3.39,3.47h0v0Z" transform="translate(-1 0)"/><path class="cls-1" d="M201,320.67a2.75,2.75,0,0,1-2.75-2.75h0a2.75,2.75,0,0,1,2.75-2.75h0a2.75,2.75,0,0,1,2.75,2.75h0a2.75,2.75,0,0,1-2.75,2.75h0Zm0,2.06a4.8,4.8,0,0,0,4.8-4.8h0a4.8,4.8,0,0,0-4.8-4.8h0a4.8,4.8,0,0,0-4.8,4.8h0a4.8,4.8,0,0,0,4.8,4.8h0Z" transform="translate(-1 0)"/><path class="cls-1" d="M201,322.05a4.12,4.12,0,1,1,4.12-4.12h0a4.12,4.12,0,0,1-4.12,4.12h0Zm0,2.06a6.18,6.18,0,1,0,0-12.35h0a6.17,6.17,0,0,0,0,12.34h0Z" transform="translate(-1 0)"/><path class="cls-1" d="M201,323.41a5.47,5.47,0,0,1-5.47-5.47h0a5.47,5.47,0,0,1,5.47-5.47h0a5.47,5.47,0,0,1,5.47,5.47h0a5.47,5.47,0,0,1-5.47,5.47h0Zm0,2.06a7.54,7.54,0,1,0-7.54-7.54h0a7.54,7.54,0,0,0,7.54,7.54h0Z" transform="translate(-1 0)"/><path class="cls-1" d="M201,324.76a6.85,6.85,0,0,1-6.85-6.85h0a6.85,6.85,0,0,1,6.85-6.85h0a6.85,6.85,0,0,1,6.85,6.85h0a6.85,6.85,0,0,1-6.85,6.85h0Zm0,2.06a8.91,8.91,0,0,0,8.91-8.91h0A8.91,8.91,0,0,0,201,309h0a8.91,8.91,0,0,0-8.91,8.91h0a8.91,8.91,0,0,0,8.91,8.91h0Z" transform="translate(-1 0)"/><path class="cls-1" d="M201,326.16a8.23,8.23,0,1,1,8.23-8.23h0a8.23,8.23,0,0,1-8.23,8.23h0Zm0,2.06a10.28,10.28,0,1,0-10.28-10.28h0A10.28,10.28,0,0,0,201,328.22h0Z" transform="translate(-1 0)"/><path class="cls-1" d="M201,327.54a9.6,9.6,0,0,1-9.6-9.6h0a9.6,9.6,0,0,1,9.6-9.6h0a9.6,9.6,0,0,1,9.6,9.6h0a9.6,9.6,0,0,1-9.6,9.6h0Zm0,2.06a11.66,11.66,0,0,0,11.64-11.68h0A11.66,11.66,0,0,0,201,306.27h0a11.66,11.66,0,0,0,0,23.32h0Z" transform="translate(-1 0)"/><path class="cls-1" d="M201,328.91a11,11,0,1,1,10.94-11.06s0,0.07,0,.11A11,11,0,0,1,201,328.91h0Zm0,2.06a13,13,0,1,0-13-13h0a13,13,0,0,0,13,13h0Z" transform="translate(-1 0)"/><path class="cls-1" d="M201,330.33a12.34,12.34,0,1,1,.11,0H201Zm0,2.06A14.4,14.4,0,1,0,186.64,318v0h0A14.4,14.4,0,0,0,201,332.41h0v0Z" transform="translate(-1 0)"/><path class="cls-1" d="M201,331.64a13.72,13.72,0,0,1-13.72-13.72h0A13.72,13.72,0,0,1,201,304.2h0a13.72,13.72,0,0,1,13.72,13.72h0A13.72,13.72,0,0,1,201,331.64h0Zm0,2.06a15.77,15.77,0,1,0-15.76-15.78h0A15.78,15.78,0,0,0,201,333.7h0Z" transform="translate(-1 0)"/><path class="cls-1" d="M201,333a15.09,15.09,0,1,1,15.09-15.09h0A15.09,15.09,0,0,1,201,333h0Zm0,2.06a17.14,17.14,0,0,0,17.12-17.16h0A17.14,17.14,0,0,0,201,300.76h0a17.15,17.15,0,1,0,0,34.3h0v0Z" transform="translate(-1 0)"/><path class="cls-1" d="M201,334.41A16.42,16.42,0,1,1,217.42,318h0A16.42,16.42,0,0,1,201,334.41h0Zm0,2.06A18.51,18.51,0,1,0,182.49,318h0A18.51,18.51,0,0,0,201,336.41h0v0.06Z" transform="translate(-1 0)"/><path class="cls-1" d="M201,335.76a17.82,17.82,0,0,1-17.78-17.86h0a17.82,17.82,0,1,1,17.86,17.87H201Zm0,2.06a19.88,19.88,0,0,0,19.88-19.88h0A19.88,19.88,0,0,0,201,298.06h0a19.88,19.88,0,0,0-19.88,19.88h0A19.88,19.88,0,0,0,201,337.86h0v0Z" transform="translate(-1 0)"/><path class="cls-1" d="M201,337.13A19.19,19.19,0,1,1,220.2,318h0A19.2,19.2,0,0,1,201,337.13h0Zm0,2.06a21.27,21.27,0,0,0,0-42.53h0a21.26,21.26,0,0,0,0,42.52h0Z" transform="translate(-1 0)"/><path class="cls-1" d="M201,338.51a20.57,20.57,0,0,1-20.57-20.57h0A20.57,20.57,0,0,1,201,297.36h0a20.57,20.57,0,0,1,20.57,20.57h0A20.57,20.57,0,0,1,201,338.5h0Zm0,2.06A22.63,22.63,0,0,0,223.64,318h0A22.63,22.63,0,1,0,201,340.57h0Z" transform="translate(-1 0)"/><path class="cls-1" d="M201,339.88A21.9,21.9,0,1,1,222.9,318h0a21.9,21.9,0,0,1-21.9,21.9h0Zm0,2.06a24,24,0,1,0-24-24,24,24,0,0,0,24,24h0Z" transform="translate(-1 0)"/><path class="cls-1" d="M201,341.28a23.31,23.31,0,1,1,.07,0H201Zm0,2.06A25.37,25.37,0,1,0,175.64,318h0A25.37,25.37,0,0,0,201,343.34h0Z" transform="translate(-1 0)"/><path class="cls-1" d="M201,342.61a24.69,24.69,0,0,1-24.69-24.69h0A24.69,24.69,0,0,1,201,293.23h0a24.69,24.69,0,0,1,24.64,24.7h0A24.69,24.69,0,0,1,201,342.62h0Zm0,2.06a26.75,26.75,0,0,0,0-53.49h0a26.75,26.75,0,0,0-26.75,26.75h0A26.75,26.75,0,0,0,201,344.68h0Z" transform="translate(-1 0)"/><path class="cls-1" d="M201,344a26.06,26.06,0,1,1,26.06-26.06h0A26.06,26.06,0,0,1,201,344h0Zm0,2.06a28.11,28.11,0,0,0,28.11-28.11h0A28.11,28.11,0,0,0,201,289.81h0a28.11,28.11,0,0,0-28.11,28.11h0A28.11,28.11,0,0,0,201,346.05h0Z" transform="translate(-1 0)"/><path class="cls-1" d="M201,345.36a27.42,27.42,0,0,1-27.42-27.42h0A27.42,27.42,0,0,1,201,290.5h0a27.42,27.42,0,0,1,27.42,27.42h0A27.42,27.42,0,0,1,201,345.36h0Zm0,2.06a29.48,29.48,0,1,0-29.48-29.48h0A29.48,29.48,0,0,0,201,347.41h0Z" transform="translate(-1 0)"/><path class="cls-1" d="M201,346.76A28.79,28.79,0,0,1,172.21,318h0A28.79,28.79,0,0,1,201,289.16h0a28.79,28.79,0,0,1,28.79,28.79h0A28.79,28.79,0,0,1,201,346.76h0Zm0,2.06A30.85,30.85,0,0,0,231.85,318h0A30.85,30.85,0,0,0,201,287.11h0A30.85,30.85,0,0,0,170.15,318h0A30.85,30.85,0,0,0,201,348.81h0Z" transform="translate(-1 0)"/><path class="cls-1" d="M201,348.11a30.18,30.18,0,0,1,0-60.35h0a30.17,30.17,0,0,1,30.17,30.17h0A30.17,30.17,0,0,1,201,348.1h0Zm0,2.06a32.23,32.23,0,1,0-32.23-32.23h0A32.23,32.23,0,0,0,201,350.17h0Z" transform="translate(-1 0)"/><path class="cls-1" d="M201,349.48a31.54,31.54,0,0,1-31.54-31.54h0A31.54,31.54,0,0,1,201,286.41h0A31.54,31.54,0,0,1,232.54,318h0A31.54,31.54,0,0,1,201,349.48h0Zm0,2.06A33.6,33.6,0,0,0,234.64,318h0a33.6,33.6,0,0,0-33.59-33.61h0A33.6,33.6,0,0,0,167.44,318h0a33.6,33.6,0,0,0,33.6,33.6h0Z" transform="translate(-1 0)"/><path class="cls-1" d="M201,350.85a32.91,32.91,0,0,1-32.91-32.91h0A32.91,32.91,0,0,1,201,285h0a32.91,32.91,0,0,1,32.91,32.91h0A32.91,32.91,0,0,1,201,350.85h0Zm0,2.06a35,35,0,1,0,0-70h0a35,35,0,0,0-35,35h0a35,35,0,0,0,35,35h0Z" transform="translate(-1 0)"/><path class="cls-1" d="M201,352.23a34.28,34.28,0,0,1-34.27-34.29h0A34.28,34.28,0,0,1,201,283.67h0a34.28,34.28,0,1,1,0,68.56h0Zm0,2.06a36.34,36.34,0,1,0-36.36-36.36h0A36.34,36.34,0,0,0,201,354.29h0Z" transform="translate(-1 0)"/><path class="cls-1" d="M201,353.6a35.66,35.66,0,0,1-35.66-35.66h0A35.66,35.66,0,0,1,201,282.28h0a35.66,35.66,0,1,1,0,71.32h0Zm0,2.06a37.72,37.72,0,1,0-37.71-37.73h0A37.72,37.72,0,0,0,201,355.66h0Z" transform="translate(-1 0)"/><path class="cls-1" d="M201,355a37,37,0,1,1,37-37,37,37,0,0,1-37,37h0Zm0,2.06a39.08,39.08,0,0,0,39.08-39.08h0A39.08,39.08,0,0,0,201,278.84h0a39.08,39.08,0,0,0-39.08,39.08h0A39.08,39.08,0,0,0,201,357h0Z" transform="translate(-1 0)"/><path class="cls-1" d="M201,356.33a38.4,38.4,0,1,1,38.42-38.39A38.4,38.4,0,0,1,201,356.33h0Zm0,2.06a40.51,40.51,0,1,0-40.51-40.51h0A40.51,40.51,0,0,0,201,358.41h0v0Z" transform="translate(-1 0)"/><path class="cls-1" d="M201,357.7a39.76,39.76,0,0,1-39.76-39.76h0A39.76,39.76,0,0,1,201,278.16h0a39.76,39.76,0,0,1,39.76,39.76h0A39.76,39.76,0,0,1,201,357.7h0Zm0,2.06a41.82,41.82,0,0,0,41.82-41.82h0A41.82,41.82,0,0,0,201,276.12h0a41.82,41.82,0,0,0-41.82,41.82h0A41.82,41.82,0,0,0,201,359.76h0Z" transform="translate(-1 0)"/><path class="cls-1" d="M201,359.08a41.14,41.14,0,0,1-41.14-41.14h0A41.14,41.14,0,0,1,201,276.76h0a41.14,41.14,0,0,1,41.14,41.14h0A41.14,41.14,0,0,1,201,359.08h0Zm0,2.06A43.19,43.19,0,1,0,157.8,318h0a43.2,43.2,0,0,0,43.2,43.2h0v0Z" transform="translate(-1 0)"/><path class="cls-1" d="M201,360.41a42.51,42.51,0,1,1,42.51-42.51h0A42.51,42.51,0,0,1,201,360.41h0Zm0,2.06A44.57,44.57,0,0,0,245.64,318h0a44.57,44.57,0,1,0-89.13-1.39q0,0.67,0,1.33h0a44.57,44.57,0,0,0,44.57,44.57H201Z" transform="translate(-1 0)"/><path class="cls-1" d="M201,361.82a43.88,43.88,0,0,1-43.88-43.88h0a43.88,43.88,0,0,1,87.76,0h0A43.88,43.88,0,0,1,201,361.82h0Zm0,2.06a46,46,0,0,0,0-92h0a46,46,0,0,0-46,46h0a46,46,0,0,0,46,46h0Z" transform="translate(-1 0)"/><path class="cls-1" d="M201,363.18a45.26,45.26,0,0,1-45.28-45.24h0A45.26,45.26,0,0,1,201,272.66h0a45.26,45.26,0,0,1,45.28,45.24h0A45.26,45.26,0,0,1,201,363.14h0v0Zm0,2.06a47.31,47.31,0,1,0-47.3-47.32h0A47.31,47.31,0,0,0,201,365.24h0Z" transform="translate(-1 0)"/><path class="cls-1" d="M201,364.57a46.63,46.63,0,0,1-46.63-46.63h0A46.63,46.63,0,0,1,201,271.31h0a46.63,46.63,0,0,1,46.64,46.62h0A46.63,46.63,0,0,1,201,364.57h0Zm0,2.06a48.69,48.69,0,1,0-48.72-48.69h0A48.69,48.69,0,0,0,201,366.63h0Z" transform="translate(-1 0)"/><path class="cls-1" d="M201,365.94a48,48,0,1,1,48-48h0a48,48,0,0,1-48,48h0Zm0,2.06a50.05,50.05,0,0,0,50.1-50h0a50.05,50.05,0,0,0-50-50.1h0A50,50,0,0,0,151,317.8v0.1h0A50,50,0,0,0,201,368h0Z" transform="translate(-1 0)"/><path class="cls-1" d="M201,367.3a49.36,49.36,0,0,1-49.36-49.36h0A49.36,49.36,0,0,1,201,268.57h0a49.36,49.36,0,0,1,49.36,49.36h0A49.36,49.36,0,0,1,201,367.31h0Zm0,2.06a51.46,51.46,0,1,0-51.45-51.47h0A51.46,51.46,0,0,0,201,369.36h0Z" transform="translate(-1 0)"/><path class="cls-1" d="M201,368.65A50.74,50.74,0,0,1,150.22,318h0a50.74,50.74,0,0,1,50.7-50.78h0a50.74,50.74,0,0,1,50.78,50.7h0v0.07A50.74,50.74,0,0,1,201,368.65h0Zm0,2.06a52.79,52.79,0,0,0,52.79-52.79h0A52.79,52.79,0,0,0,201,265.13h0a52.79,52.79,0,0,0-52.79,52.79h0A52.79,52.79,0,0,0,201,370.71h0Z" transform="translate(-1 0)"/><path class="cls-1" d="M201,370.05a52.11,52.11,0,0,1-52.11-52.11h0A52.11,52.11,0,0,1,201,265.81h0a52.11,52.11,0,0,1,52.11,52.11h0A52.11,52.11,0,0,1,201,370.05h0Zm0,2.06a54.17,54.17,0,0,0,54.17-54.17h0A54.17,54.17,0,0,0,201,263.76h0a54.17,54.17,0,0,0-54.17,54.17h0A54.17,54.17,0,0,0,201,372.1h0Z" transform="translate(-1 0)"/><path class="cls-1" d="M201,371.41a53.48,53.48,0,1,1,53.48-53.48h0A53.48,53.48,0,0,1,201,371.41h0Zm0,2.06a55.54,55.54,0,0,0,55.54-55.54h0A55.54,55.54,0,0,0,201,262.41h0a55.54,55.54,0,0,0-55.54,55.54h0A55.54,55.54,0,0,0,201,373.48h0Z" transform="translate(-1 0)"/><path class="cls-1" d="M201,372.76a54.85,54.85,0,0,1-54.85-54.85h0A54.85,54.85,0,0,1,201,263.06h0a54.85,54.85,0,0,1,54.84,54.86h0A54.85,54.85,0,0,1,201,372.76h0Zm0,2.06a56.93,56.93,0,1,0-56.93-56.93h0A56.93,56.93,0,0,0,201,374.82h0Z" transform="translate(-1 0)"/><path class="cls-1" d="M201,374.12a56.23,56.23,0,0,1-56.27-56.19h0a56.23,56.23,0,0,1,112.45-1.58q0,0.75,0,1.5h0v0.09A56.23,56.23,0,0,1,201,374.13h0Zm0,2.06a58.28,58.28,0,1,0-58.27-58.29h0A58.28,58.28,0,0,0,201,376.18h0Z" transform="translate(-1 0)"/><path class="cls-1" d="M201,375.54a57.6,57.6,0,0,1-57.6-57.6h0a57.6,57.6,0,0,1,57.6-57.6h0a57.6,57.6,0,0,1,57.64,57.56h0A57.6,57.6,0,0,1,201,375.5h0Zm0,2.06a59.66,59.66,0,1,0-59.66-59.66h0A59.66,59.66,0,0,0,201,377.6h0Z" transform="translate(-1 0)"/><path class="cls-1" d="M201,376.91a59,59,0,1,1,59-59h0a59,59,0,0,1-59,59h0Zm0,2.06a61,61,0,1,0-61-61h0a61,61,0,0,0,61,61h0Z" transform="translate(-1 0)"/><path class="cls-1" d="M201,378.27A60.33,60.33,0,0,1,140.64,318h0a60.33,60.33,0,0,1,60.29-60.37H201a60.33,60.33,0,0,1,60.33,60.33h0A60.33,60.33,0,0,1,201,378.28h0Zm0,2.06a62.4,62.4,0,0,0,62.4-62.4h0A62.4,62.4,0,0,0,201,255.51h0a62.4,62.4,0,0,0-62.36,62.42h0A62.4,62.4,0,0,0,201,380.34h0Z" transform="translate(-1 0)"/><path class="cls-1" d="M201,379.6A61.71,61.71,0,0,1,139.23,318h0a61.71,61.71,0,0,1,61.65-61.77h0a61.71,61.71,0,0,1,61.75,61.66V318A61.71,61.71,0,0,1,201,379.6h0Zm0,2.06a63.77,63.77,0,0,0,63.77-63.77h0A63.77,63.77,0,0,0,201,254.1h0a63.77,63.77,0,0,0-63.77,63.77h0A63.77,63.77,0,0,0,201,381.66h0Z" transform="translate(-1 0)"/><path class="cls-1" d="M201,381a63.08,63.08,0,0,1-63.08-63.08h0A63.08,63.08,0,0,1,201,254.84h0a63.08,63.08,0,0,1,63.08,63.08h0A63.08,63.08,0,0,1,201,381h0Zm0,2.06a65.16,65.16,0,0,0,0-130.32h0a65.14,65.14,0,0,0-65.14,65.14h0A65.14,65.14,0,0,0,201,383h0v0Z" transform="translate(-1 0)"/><path class="cls-1" d="M201,382.41A64.45,64.45,0,1,1,265.45,318h0A64.45,64.45,0,0,1,201,382.41h0Zm0,2.06A66.51,66.51,0,0,0,267.51,318h0A66.51,66.51,0,0,0,201,251.41h0a66.51,66.51,0,0,0,0,133h0v0.06Z" transform="translate(-1 0)"/><path class="cls-1" d="M201,383.76a65.82,65.82,0,0,1,0-131.64h0a65.82,65.82,0,0,1,65.82,65.82h0A65.82,65.82,0,0,1,201,383.76h0Zm0,2.06a67.88,67.88,0,0,0,67.88-67.88h0a67.88,67.88,0,1,0-135.76,0h0A67.88,67.88,0,0,0,201,385.82h0Z" transform="translate(-1 0)"/><path class="cls-1" d="M201,385.13a67.2,67.2,0,0,1-67.2-67.2h0a67.2,67.2,0,0,1,134.4,0h0a67.2,67.2,0,0,1-67.2,67.2h0Zm0,2.06a69.26,69.26,0,1,0-69.25-69.27h0A69.26,69.26,0,0,0,201,387.19h0Z" transform="translate(-1 0)"/><path class="cls-1" d="M201,386.51a68.57,68.57,0,0,1-68.57-68.57h0A68.57,68.57,0,0,1,201,249.41h0A68.57,68.57,0,0,1,269.57,318h0A68.57,68.57,0,0,1,201,386.51h0Zm0,2.06A70.63,70.63,0,0,0,271.64,318h0A70.62,70.62,0,1,0,201,388.57h0Z" transform="translate(-1 0)"/><path class="cls-1" d="M201,387.88a69.94,69.94,0,1,1,69.93-70h0A69.94,69.94,0,0,1,201,387.88h0Zm0,2.06a72,72,0,1,0-72-72,72,72,0,0,0,72,72h0Z" transform="translate(-1 0)"/><path class="cls-1" d="M201,389.24a71.3,71.3,0,0,1-71.3-71.3h0A71.3,71.3,0,0,1,201,246.62h0a71.3,71.3,0,0,1,71.3,71.3h0A71.3,71.3,0,0,1,201,389.24h0Zm0,2.06a73.35,73.35,0,0,0,73.35-73.35h0A73.35,73.35,0,0,0,201,244.59h0a73.35,73.35,0,0,0-73.36,73.34h0A73.35,73.35,0,0,0,201,391.31h0Z" transform="translate(-1 0)"/><path class="cls-1" d="M201,390.62a72.68,72.68,0,0,1-72.68-72.68h0A72.68,72.68,0,0,1,201,245.24h0a72.7,72.7,0,0,1,0,145.39h0Zm0,2.06a74.75,74.75,0,0,0,0-149.49h0a74.74,74.74,0,0,0-74.74,74.74h0A74.74,74.74,0,0,0,201,392.69h0Z" transform="translate(-1 0)"/><path class="cls-1" d="M201,392a74.06,74.06,0,1,1,74-74.12v0.06A74.05,74.05,0,0,1,201,392h0Zm0,2.06a76.11,76.11,0,1,0-76.12-76.11h0A76.11,76.11,0,0,0,201,394.05h0Z" transform="translate(-1 0)"/><path class="cls-1" d="M201,393.36a75.42,75.42,0,1,1,75.41-75.43h0A75.42,75.42,0,0,1,201,393.36h0Zm0,2.06a77.5,77.5,0,0,0,0-155h0a77.48,77.48,0,0,0-77.48,77.48h0A77.48,77.48,0,0,0,201,395.41h0Z" transform="translate(-1 0)"/><path class="cls-1" d="M201,394.76A76.79,76.79,0,0,1,124.21,318h0A76.79,76.79,0,0,1,201,241.18h0a76.79,76.79,0,1,1,0,153.58h0Zm0,2.06A78.83,78.83,0,0,0,279.82,318h0A78.82,78.82,0,1,0,201,396.76h0v0.06Z" transform="translate(-1 0)"/><path class="cls-1" d="M201,396.11a78.18,78.18,0,0,1,0-156.35h0a78.18,78.18,0,0,1,0,156.35h0Zm0,2.06a80.23,80.23,0,1,0-80.22-80.24h0A80.23,80.23,0,0,0,201,398.17h0Z" transform="translate(-1 0)"/><path class="cls-1" d="M201,397.48a79.54,79.54,0,1,1,79.53-79.55h0A79.54,79.54,0,0,1,201,397.48h0Zm0,2.06a81.6,81.6,0,1,0-81.59-81.61h0A81.6,81.6,0,0,0,201,399.54h0Z" transform="translate(-1 0)"/><path class="cls-1" d="M201,398.85a80.91,80.91,0,1,1,80.9-80.92h0A80.91,80.91,0,0,1,201,398.85h0Zm0,2.06a83,83,0,0,0,83-83h0a83,83,0,0,0-166,0h0a83,83,0,0,0,83,83h0Z" transform="translate(-1 0)"/><path class="cls-1" d="M201,400.22a82.29,82.29,0,1,1,82.28-82.3h0A82.29,82.29,0,0,1,201,400.22h0Zm0,2.06A84.3,84.3,0,1,0,116.7,318h0a84.3,84.3,0,0,0,84.3,84.3h0Z" transform="translate(-1 0)"/><path class="cls-1" d="M201,401.59a83.65,83.65,0,0,1-83.65-83.65h0A83.65,83.65,0,0,1,201,234.27h0a83.65,83.65,0,0,1,83.64,83.66h0A83.65,83.65,0,0,1,201,401.6h0Zm0,2.06a85.71,85.71,0,0,0,0-171.43h0a85.71,85.71,0,0,0-85.71,85.71h0a85.71,85.71,0,0,0,85.66,85.76H201v0Z" transform="translate(-1 0)"/><path class="cls-1" d="M201,403a85,85,0,0,1-85-85h0a85,85,0,0,1,85-85h0a85,85,0,0,1,85,85h0a85,85,0,0,1-85,85h0Zm0,2.06a87.08,87.08,0,1,0-87.09-87.08h0A87.08,87.08,0,0,0,201,405h0Z" transform="translate(-1 0)"/><path class="cls-1" d="M201,404.33a86.4,86.4,0,0,1,0-172.79h0a86.39,86.39,0,0,1,86.35,86.4h0A86.39,86.39,0,0,1,201,404.34h0Zm0,2.06a88.45,88.45,0,1,0-88.46-88.45h0A88.45,88.45,0,0,0,201,406.41h0v0Z" transform="translate(-1 0)"/><path class="cls-1" d="M201,405.7a87.77,87.77,0,0,1-87.77-87.77h0A87.77,87.77,0,1,1,201,405.7h0Zm0,2.06A89.77,89.77,0,0,0,290.77,318h0A89.77,89.77,0,0,0,201,228.2h0A89.77,89.77,0,0,0,111.23,318h0A89.77,89.77,0,0,0,201,407.76h0Z" transform="translate(-1 0)"/><path class="cls-1" d="M201,407.08a89.14,89.14,0,0,1-89.14-89.14h0A89.14,89.14,0,0,1,201,228.76h0a89.14,89.14,0,0,1,89.13,89.15h0A89.14,89.14,0,0,1,201,407.08h0Zm0,2.06A91.19,91.19,0,1,0,109.81,318h0A91.2,91.2,0,0,0,201,409.16h0v0Z" transform="translate(-1 0)"/><path class="cls-1" d="M201,408.41a90.51,90.51,0,1,1,90.5-90.52h0A90.51,90.51,0,0,1,201,408.41h0Zm0,2.06a92.57,92.57,0,1,0-92.56-92.58h0A92.57,92.57,0,0,0,201,410.51h0v0Z" transform="translate(-1 0)"/><path class="cls-1" d="M201,409.82a91.88,91.88,0,1,1,91.87-91.89h0A91.88,91.88,0,0,1,201,409.82h0Zm0,2.06A93.93,93.93,0,0,0,294.93,318h0A93.93,93.93,0,0,0,201,224h0a93.93,93.93,0,0,0-93.93,93.93h0a93.93,93.93,0,0,0,93.91,94h0Z" transform="translate(-1 0)"/><path class="cls-1" d="M201,411.19a93.26,93.26,0,1,1,93.25-93.27h0A93.26,93.26,0,0,1,201,411.19h0Zm0,2.06a95.3,95.3,0,0,0,95.3-95.3h0A95.3,95.3,0,0,0,201,222.63h0a95.3,95.3,0,0,0-95.3,95.3h0A95.3,95.3,0,0,0,201,413.25h0Z" transform="translate(-1 0)"/><path class="cls-1" d="M201,412.57A94.62,94.62,0,0,1,106.38,318h0A94.62,94.62,0,0,1,201,223.31h0a94.62,94.62,0,0,1,94.64,94.6h0a94.62,94.62,0,0,1-94.58,94.66H201Zm0,2.06a96.69,96.69,0,0,0,0-193.38h0a96.68,96.68,0,0,0-96.68,96.68h0A96.68,96.68,0,0,0,201,414.63h0Z" transform="translate(-1 0)"/><path class="cls-1" d="M201,413.93a96,96,0,1,1,96-96h0a96,96,0,0,1-96,96h0Zm0,2.06a98.06,98.06,0,1,0-98-98.12v0.06h0A98.05,98.05,0,0,0,201,416h0Z" transform="translate(-1 0)"/><path class="cls-1" d="M201,415.3a97.36,97.36,0,0,1-97.36-97.36h0A97.36,97.36,0,0,1,201,220.57h0a97.36,97.36,0,0,1,97.36,97.36h0A97.36,97.36,0,0,1,201,415.31h0Zm0,2.06a99.42,99.42,0,0,0,99.42-99.42h0A99.42,99.42,0,0,0,201,218.52h0a99.42,99.42,0,0,0-99.42,99.42h0A99.42,99.42,0,0,0,201,417.36h0Z" transform="translate(-1 0)"/><path class="cls-1" d="M201,416.67a98.74,98.74,0,0,1-98.74-98.74h0A98.74,98.74,0,0,1,201,219.19h0a98.74,98.74,0,0,1,98.74,98.74h0A98.74,98.74,0,0,1,201,416.67h0Zm0,2.06A100.81,100.81,0,1,0,100.22,317.89v0A100.8,100.8,0,0,0,201,418.73h0Z" transform="translate(-1 0)"/><path class="cls-1" d="M201,418.05A100.11,100.11,0,0,1,100.9,317.94h0A100.11,100.11,0,0,1,201,217.82h0A100.11,100.11,0,0,1,301.1,317.94h0A100.11,100.11,0,0,1,201,418.05h0Zm0,2.06A102.18,102.18,0,1,0,98.84,317.91v0h0A102.17,102.17,0,0,0,201,420.11h0Z" transform="translate(-1 0)"/><path class="cls-1" d="M201,419.41a101.5,101.5,0,0,1,0-203h0a101.5,101.5,0,0,1,0,203h0Zm0,2.06A103.54,103.54,0,1,0,97.47,317.92v0A103.54,103.54,0,0,0,201,421.48h0Z" transform="translate(-1 0)"/><path class="cls-1" d="M201,420.76a102.84,102.84,0,1,1-2-205.67h2a102.83,102.83,0,0,1,0,205.67h0Zm0,2.06A104.9,104.9,0,0,0,203,213h-2A104.9,104.9,0,0,0,96.1,317.93h0A104.9,104.9,0,0,0,201,422.85h0v0Z" transform="translate(-1 0)"/><path class="cls-1" d="M201,422.16A104.23,104.23,0,1,1,305.23,317.93,104.23,104.23,0,0,1,201,422.16h0Zm0,2.06A106.28,106.28,0,0,0,307.29,318h0A106.28,106.28,0,0,0,201,211.64h0A106.28,106.28,0,0,0,94.73,317.92h0A106.28,106.28,0,0,0,201,424.21h0Z" transform="translate(-1 0)"/><path class="cls-1" d="M201,423.54A105.59,105.59,0,0,1,95.42,317.95h0A105.59,105.59,0,0,1,201,212.34h0A105.59,105.59,0,0,1,306.6,317.92h0A105.59,105.59,0,0,1,201,423.54h0Zm0,2.06A107.65,107.65,0,0,0,308.65,318h0a107.64,107.64,0,0,0-215.29,0h0A107.65,107.65,0,0,0,201,425.58h0v0Z" transform="translate(-1 0)"/><path class="cls-1" d="M201,424.9a107,107,0,1,1,107-107,107,107,0,0,1-107,107h0Zm0,2.06A109,109,0,1,0,92,318,109,109,0,0,0,201,427h0Z" transform="translate(-1 0)"/><path class="cls-1" d="M317.4,218.66a108.39,108.39,0,0,1,0-216.78h0a108.39,108.39,0,0,1,0,216.78h0Zm0,2.06A110.36,110.36,0,0,0,427.73,110.33h0a110.37,110.37,0,0,0-220.73,0v0A110.36,110.36,0,0,0,317.35,220.72h0Z" transform="translate(-1 0)"/><path class="cls-1" d="M201,427.64A109.71,109.71,0,0,1,91.3,317.93h0A109.71,109.71,0,0,1,201,208.21h0A109.71,109.71,0,0,1,310.7,317.93h0A109.71,109.71,0,0,1,201,427.64h0Zm0,2.06a111.78,111.78,0,0,0,0-223.55h0A111.77,111.77,0,0,0,89.24,317.92h0A111.77,111.77,0,0,0,201,429.7h0Z" transform="translate(-1 0)"/><path class="cls-1" d="M201,429A111.08,111.08,0,0,1,89.93,317.94h0A111.08,111.08,0,0,1,201,206.85h0A111.09,111.09,0,0,1,201,429h0Zm0,2.06a113.16,113.16,0,0,0,0-226.32h0A113.14,113.14,0,0,0,87.87,317.9h0A113.14,113.14,0,0,0,201,431.06h0v0Z" transform="translate(-1 0)"/><path class="cls-1" d="M201,430.41A112.45,112.45,0,0,1,88.56,318h0A112.45,112.45,0,0,1,201,205.48h0a112.47,112.47,0,0,1,0,224.93h0Zm0,2.06A114.51,114.51,0,1,0,86.51,317.94h0A114.51,114.51,0,0,0,201,432.41h0v0.06Z" transform="translate(-1 0)"/><path class="cls-1" d="M201,431.76A113.86,113.86,0,0,1,87.15,317.9h0A113.86,113.86,0,0,1,201,204h0a113.87,113.87,0,0,1,0,227.73h0Zm0,2.06A115.87,115.87,0,0,0,316.88,318h0A115.87,115.87,0,0,0,201,202.06h0A115.87,115.87,0,0,0,85.14,317.93h0A115.87,115.87,0,0,0,201,433.82h0Z" transform="translate(-1 0)"/><path class="cls-1" d="M201,433.14a115.19,115.19,0,1,1,115.2-115.2A115.19,115.19,0,0,1,201,433.14h0Zm0,2.06A117.25,117.25,0,0,0,318.26,318h0A117.25,117.25,0,0,0,201,200.68h0A117.25,117.25,0,0,0,83.76,317.93h0A117.25,117.25,0,0,0,201,435.2h0Z" transform="translate(-1 0)"/><path class="cls-1" d="M201,434.51A116.56,116.56,0,0,1,84.45,317.95h0A116.56,116.56,0,0,1,201,201.41h0A116.56,116.56,0,0,1,317.57,317.93h0A116.56,116.56,0,0,1,201,434.51h0Zm0,2.06A118.62,118.62,0,0,0,319.64,318h0A118.62,118.62,0,0,0,201.06,199.31H201A118.62,118.62,0,0,0,82.39,317.93h0A118.62,118.62,0,0,0,201,436.53h0v0Z" transform="translate(-1 0)"/><path class="cls-1" d="M201,435.87A117.93,117.93,0,1,1,201,200h0a117.93,117.93,0,1,1,0,235.87h0Zm0,2.06a120,120,0,1,0-120-120,120,120,0,0,0,120,120h0Z" transform="translate(-1 0)"/><path class="cls-1" d="M201,437.24A119.33,119.33,0,0,1,81.65,317.94h0A119.33,119.33,0,0,1,200.93,198.56H201A119.33,119.33,0,0,1,320.34,317.88h0A119.33,119.33,0,0,1,201,437.24h0Zm0,2.06A121.37,121.37,0,1,0,79.65,317.91v0h0A121.36,121.36,0,0,0,201,439.3h0Z" transform="translate(-1 0)"/><path class="cls-1" d="M201,438.62A120.68,120.68,0,0,1,80.33,317.94h0A120.68,120.68,0,0,1,201,197.25h0A120.68,120.68,0,0,1,321.65,317.94h0A120.68,120.68,0,0,1,201,438.62h0Zm0,2.06A122.74,122.74,0,1,0,78.27,317.93h0A122.74,122.74,0,0,0,201,440.67h0Z" transform="translate(-1 0)"/><path class="cls-1" d="M201,440A122,122,0,0,1,79,318v-0.05a122,122,0,0,1,122-122h0a122,122,0,0,1,122,122h0v0.05h0A122,122,0,0,1,201.06,440H201Zm0,2.06A124.12,124.12,0,1,0,76.91,317.9v0A124.11,124.11,0,0,0,201,442.05h0Z" transform="translate(-1 0)"/><path class="cls-1" d="M201,441.36A123.42,123.42,0,0,1,77.59,317.94h0A123.42,123.42,0,0,1,201,194.51h0A123.42,123.42,0,0,1,324.42,317.93h0A123.42,123.42,0,0,1,201,441.36h0Zm0,2.06A125.48,125.48,0,1,0,75.54,317.92v0A125.48,125.48,0,0,0,201,443.41h0Z" transform="translate(-1 0)"/><path class="cls-1" d="M201,442.76a124.83,124.83,0,0,1,0-249.66h0A124.81,124.81,0,0,1,325.8,317.92h0A124.81,124.81,0,0,1,201,442.76h0Zm0,2.06A126.84,126.84,0,0,0,327.85,318h0A126.84,126.84,0,0,0,201.06,191.09H201A126.84,126.84,0,0,0,74.17,317.93h0A126.84,126.84,0,0,0,201,444.76h0v0.06Z" transform="translate(-1 0)"/><path class="cls-1" d="M201,444.11a126.18,126.18,0,0,1,0-252.35h0a126.18,126.18,0,0,1,0,252.35h0Zm0,2.06A128.22,128.22,0,0,0,329.23,318h0A128.22,128.22,0,0,0,201,189.71h0A128.22,128.22,0,0,0,72.79,317.93h0A128.22,128.22,0,0,0,201,446.17h0Z" transform="translate(-1 0)"/><path class="cls-1" d="M201,445.48A127.53,127.53,0,0,1,73.48,317.95h0A127.53,127.53,0,0,1,201,190.41h0A127.53,127.53,0,0,1,328.54,317.93h0A127.53,127.53,0,0,1,201,445.48h0Zm0,2.06a129.59,129.59,0,0,0,129.58-129.6h0A129.59,129.59,0,0,0,201,188.34h0A129.59,129.59,0,0,0,71.42,317.93h0A129.59,129.59,0,0,0,201,447.48h0v0.06Z" transform="translate(-1 0)"/><path class="cls-1" d="M201,446.85A128.9,128.9,0,0,1,72.1,318h0A128.9,128.9,0,0,1,201,189h0a128.9,128.9,0,0,1,128.9,128.9h0A128.9,128.9,0,0,1,201,446.85h0Zm0,2.06a131,131,0,1,0-131-131,131,131,0,0,0,131,131h0Z" transform="translate(-1 0)"/><path class="cls-1" d="M201,448.21A130.28,130.28,0,0,1,70.73,317.93h0A130.28,130.28,0,0,1,201,187.64h0A130.28,130.28,0,0,1,331.28,317.92h0A130.28,130.28,0,0,1,201,448.21h0Zm0,2.06A132.34,132.34,0,1,0,68.65,317.9h0A132.33,132.33,0,0,0,200.94,450.27H201Z" transform="translate(-1 0)"/><path class="cls-1" d="M201,449.59A131.65,131.65,0,0,1,69.36,317.94h0A131.65,131.65,0,0,1,201,186.28h0A131.65,131.65,0,0,1,332.65,317.93h0A131.65,131.65,0,0,1,201,449.59h0Zm0,2.06A133.71,133.71,0,1,0,67.31,317.92h0A133.71,133.71,0,0,0,201,451.65h0Z" transform="translate(-1 0)"/><path class="cls-1" d="M201,451A133,133,0,1,1,334,318,133,133,0,0,1,201,451h0Zm0,2.06A135.09,135.09,0,1,0,65.93,317.91v0h0A135.08,135.08,0,0,0,201,453h0Z" transform="translate(-1 0)"/><path class="cls-1" d="M201,452.33A134.4,134.4,0,1,1,335.39,317.92v0A134.39,134.39,0,0,1,201,452.33h0Zm0,2.06a136.47,136.47,0,1,0-.06,0H201Z" transform="translate(-1 0)"/><path class="cls-1" d="M201,453.7a135.77,135.77,0,0,1,0-271.53h0A135.76,135.76,0,0,1,336.76,317.93h0A135.76,135.76,0,0,1,201,453.7h0Zm0,2.06A137.81,137.81,0,0,0,338.8,317.94h0A137.81,137.81,0,0,0,201,180.12h0A137.81,137.81,0,0,0,63.18,317.92v0h0A137.83,137.83,0,0,0,201,455.76h0Z" transform="translate(-1 0)"/><path class="cls-1" d="M201,455.08a137.16,137.16,0,0,1,0-274.32h0A137.14,137.14,0,0,1,338.14,317.9h0A137.14,137.14,0,0,1,201,455.08h0Zm0,2.06a139.19,139.19,0,0,0,139.18-139.2h0a139.19,139.19,0,0,0-278.37,0h0A139.19,139.19,0,0,0,201,457.14h0Z" transform="translate(-1 0)"/><path class="cls-1" d="M201,456.41A138.5,138.5,0,0,1,62.5,317.91h0A138.5,138.5,0,0,1,201,179.41h0a138.51,138.51,0,0,1,0,277h0Zm0,2.06A140.56,140.56,0,0,0,341.56,317.94h0a140.55,140.55,0,0,0-281.11,0h0A140.56,140.56,0,0,0,201,458.51h0v0Z" transform="translate(-1 0)"/><path class="cls-1" d="M201,457.82A139.87,139.87,0,0,1,61.14,317.95h0A139.87,139.87,0,0,1,201,178.06h0A139.87,139.87,0,0,1,340.87,317.93h0A139.87,139.87,0,0,1,201,457.82h0Zm0,2.06a141.93,141.93,0,0,0,141.88-142v0h0A141.93,141.93,0,0,0,200.91,176h0A141.94,141.94,0,0,0,201,459.87h0Z" transform="translate(-1 0)"/><path class="cls-1" d="M201,459.18A141.23,141.23,0,0,1,59.78,317.95h0A141.22,141.22,0,1,1,201,459.18h0Zm0,2.06a143.32,143.32,0,0,0,0-286.63h0A143.31,143.31,0,0,0,57.71,317.93h0A143.31,143.31,0,0,0,201,461.24h0Z" transform="translate(-1 0)"/><path class="cls-1" d="M201,460.56A142.62,142.62,0,0,1,58.39,317.94h0A142.62,142.62,0,0,1,201,175.31h0A142.62,142.62,0,0,1,343.65,317.9h0A142.62,142.62,0,0,1,201.06,460.56H201Zm0,2.06A144.68,144.68,0,1,0,56.33,317.93h0A144.68,144.68,0,0,0,201,462.62h0Z" transform="translate(-1 0)"/><path class="cls-1" d="M201,461.93a144,144,0,1,1,144-144,144,144,0,0,1-144,144h0Zm0,2.06A146,146,0,0,0,347,318h0v-0.05a146,146,0,0,0-145.95-146H201a146,146,0,0,0-146,146V318h0A146,146,0,0,0,201,464h0Z" transform="translate(-1 0)"/><path class="cls-1" d="M201,463.3A145.36,145.36,0,0,1,55.65,317.94h0A145.36,145.36,0,0,1,201,172.57h0a145.37,145.37,0,0,1,0,290.73h0Zm0,2.06A147.43,147.43,0,1,0,53.56,317.94,147.43,147.43,0,0,0,201,465.36h0Z" transform="translate(-1 0)"/><path class="cls-1" d="M201,464.67A146.7,146.7,0,0,1,54.3,318h0A146.7,146.7,0,0,1,201,171.25h0a146.7,146.7,0,0,1,146.7,146.7h0A146.7,146.7,0,0,1,201,464.67h0Zm0,2.06A148.81,148.81,0,1,0,52.22,317.89v0h0A148.8,148.8,0,0,0,201,466.76h0v0Z" transform="translate(-1 0)"/><path class="cls-1" d="M201,466.09a148.1,148.1,0,1,1,.08,0H201Zm0,2.06A150.17,150.17,0,1,0,50.85,317.94,150.17,150.17,0,0,0,201,468.15h0Z" transform="translate(-1 0)"/><path class="cls-1" d="M201,467.41A149.47,149.47,0,0,1,51.54,317.95h0a149.47,149.47,0,0,1,149.4-149.54H201a149.5,149.5,0,0,1,0,299h0Zm0,2.06A151.53,151.53,0,0,0,352.53,317.94h0a151.52,151.52,0,1,0-303-4.92q0,2.46,0,4.92h0A151.53,151.53,0,0,0,201,469.48h0Z" transform="translate(-1 0)"/><path class="cls-1" d="M201,468.76a150.84,150.84,0,0,1,0-301.67h0a150.84,150.84,0,1,1,0,301.67h0Zm0,2.06A152.9,152.9,0,0,0,201,165h0a152.9,152.9,0,1,0,0,305.81h0v0Z" transform="translate(-1 0)"/><path class="cls-1" d="M201,470.17A152.18,152.18,0,0,1,48.83,318h0A152.18,152.18,0,0,1,201,165.76h0A152.18,152.18,0,0,1,353.18,317.94h0A152.18,152.18,0,0,1,201,470.17h0Zm0,2.06A154.28,154.28,0,0,0,355.28,318h0a154.27,154.27,0,0,0-308.55,0h0A154.28,154.28,0,0,0,201,472.21h0v0Z" transform="translate(-1 0)"/><path class="cls-1" d="M201,471.57A153.59,153.59,0,0,1,47.45,317.95h0A153.59,153.59,0,0,1,201.06,164.41h0a153.6,153.6,0,0,1,0,307.2H201v0Zm0,2.06A155.65,155.65,0,0,0,356.65,318h0A155.65,155.65,0,0,0,201,162.31h0a155.64,155.64,0,1,0,0,311.28h0v0Z" transform="translate(-1 0)"/><path class="cls-1" d="M201,472.9a155,155,0,0,1-155-155h0a155,155,0,0,1,310,0h0a155,155,0,0,1-155,155h0Zm0,2.06a157,157,0,0,0,0-314h0A157,157,0,0,0,44,318h0A157,157,0,0,0,201,475h0Z" transform="translate(-1 0)"/><path class="cls-1" d="M201,474.27A156.33,156.33,0,0,1,44.65,318h0A156.33,156.33,0,0,1,200.94,161.6H201A156.33,156.33,0,0,1,357.33,317.93h0A156.33,156.33,0,0,1,201,474.27h0Zm0,2.06A158.4,158.4,0,1,0,42.65,317.88v0.06A158.39,158.39,0,0,0,201,476.33h0Z" transform="translate(-1 0)"/><path class="cls-1" d="M201,475.65A157.65,157.65,0,0,1,43.36,318h0A157.65,157.65,0,0,1,201,160.33h0A157.65,157.65,0,0,1,358.65,318h0A157.65,157.65,0,0,1,201,475.65h0Zm0,2.06A159.78,159.78,0,1,0,41.25,317.9v0A159.77,159.77,0,0,0,201,477.71h0Z" transform="translate(-1 0)"/><path class="cls-1" d="M201,477A159.08,159.08,0,1,1,360,317.88v0.06A159.08,159.08,0,0,1,201,477h0Zm0,2.06A161.14,161.14,0,1,0,39.88,317.94,161.14,161.14,0,0,0,201,479.1h0Z" transform="translate(-1 0)"/><path class="cls-1" d="M201,478.41A160.44,160.44,0,0,1,40.57,318h0A160.44,160.44,0,0,1,201,157.49h0A160.44,160.44,0,0,1,361.44,317.93h0A160.44,160.44,0,0,1,201,478.41h0Zm0,2.06A162.5,162.5,0,0,0,363.5,318v0h0a162.5,162.5,0,1,0-325,0h0A162.5,162.5,0,0,0,201,480.41h0v0.06Z" transform="translate(-1 0)"/><path class="cls-1" d="M201,479.76A161.81,161.81,0,0,1,39.2,317.95h0A161.81,161.81,0,0,1,201,156.12h0A161.81,161.81,0,0,1,362.8,317.94h0A161.81,161.81,0,0,1,201,479.76h0Zm0,2.06A163.87,163.87,0,0,0,364.87,318h0A163.87,163.87,0,0,0,201,154.06h0A163.87,163.87,0,0,0,37.14,317.93h0A163.87,163.87,0,0,0,201,481.81h0Z" transform="translate(-1 0)"/><path class="cls-1" d="M201,481.14A163.19,163.19,0,0,1,37.82,317.95h0A163.19,163.19,0,1,1,201,481.14h0Zm0,2.06A165.25,165.25,0,0,0,366.25,318h0a165.24,165.24,0,0,0-330.49,0h0A165.25,165.25,0,0,0,201,483.18h0v0Z" transform="translate(-1 0)"/><path class="cls-1" d="M201,482.52A164.56,164.56,0,0,1,36.46,317.95h0A164.56,164.56,0,0,1,201,153.41h0a164.57,164.57,0,0,1,0,329.14h0v0Zm0,2.06A166.62,166.62,0,0,0,367.64,318h0A166.62,166.62,0,0,0,201.06,151.32H201a166.62,166.62,0,0,0,0,333.24h0v0Z" transform="translate(-1 0)"/><path class="cls-1" d="M201,483.87A165.93,165.93,0,0,1,35.08,317.94h0A165.93,165.93,0,0,1,201,152h0A165.93,165.93,0,0,1,366.93,317.93h0A165.93,165.93,0,0,1,201,483.87h0Zm0,2.06a168,168,0,1,0-168-168,168,168,0,0,0,168,168h0Z" transform="translate(-1 0)"/><path class="cls-1" d="M201,485.24A167.31,167.31,0,0,1,33.65,318h0A167.31,167.31,0,0,1,200.9,150.61h0A167.31,167.31,0,0,1,368.3,317.87v0h0A167.31,167.31,0,0,1,201,485.24h0Zm0,2.06a169.37,169.37,0,0,0,0-338.73h0A169.36,169.36,0,0,0,31.65,317.91h0A169.36,169.36,0,0,0,201,487.3h0Z" transform="translate(-1 0)"/><path class="cls-1" d="M201,486.62a168.68,168.68,0,1,1,0-337.37h0a168.68,168.68,0,1,1,0,337.37h0Zm0,2.06A170.74,170.74,0,1,0,30.28,317.92v0h0A170.74,170.74,0,0,0,201,488.68h0Z" transform="translate(-1 0)"/><path class="cls-1" d="M201,488A170,170,0,0,1,31,318v-0.05a170,170,0,0,1,170-170h0a170,170,0,0,1,170,170v0.05h0A170,170,0,0,1,201.06,488H201Zm0,2.06a172.1,172.1,0,0,0,172.1-172.1h0a172.1,172.1,0,1,0-344.19-2.62q0,1.31,0,2.63h0A172.1,172.1,0,0,0,201,490.05h0Z" transform="translate(-1 0)"/><path class="cls-1" d="M201,489.36A171.41,171.41,0,0,1,29.6,317.95h0A171.41,171.41,0,0,1,201,146.52h0A171.41,171.41,0,0,1,372.4,317.94h0A171.41,171.41,0,0,1,201,489.36h0Zm0,2.06A173.47,173.47,0,0,0,374.47,318h0A173.47,173.47,0,0,0,27.54,315.3q0,1.32,0,2.64h0A173.47,173.47,0,0,0,201,491.41h0Z" transform="translate(-1 0)"/><path class="cls-1" d="M201,490.76A172.79,172.79,0,0,1,28.22,318h0A172.79,172.79,0,0,1,201,145.13h0a172.79,172.79,0,0,1,172.78,172.8h0A172.79,172.79,0,0,1,201,490.76h0Zm0,2.06A174.84,174.84,0,0,0,375.86,318h0a174.84,174.84,0,0,0-174.78-174.9H201A174.84,174.84,0,0,0,26.19,317.91h0A174.84,174.84,0,0,0,201,492.76h0v0.06Z" transform="translate(-1 0)"/><path class="cls-1" d="M201,492.11A174.16,174.16,0,0,1,26.85,317.95h0A174.16,174.16,0,0,1,201,143.76h0A174.16,174.16,0,0,1,375.16,317.92h0A174.16,174.16,0,0,1,201,492.11h0Zm0,1.37A175.53,175.53,0,0,0,376.53,318h0a175.52,175.52,0,0,0-351-5.3q0,2.65,0,5.3h0A175.53,175.53,0,0,0,201,493.41h0v0.07Z" transform="translate(-1 0)"/></g><path class="cls-4" d="M76.89,317.94A124.12,124.12,0,0,1,200.95,193.76h0A124.12,124.12,0,0,1,325.12,317.83h0A124.12,124.12,0,0,1,201.06,442H201A124.12,124.12,0,0,1,76.89,317.94h0Zm32.07,0a92.06,92.06,0,0,1,92-92.07h0A92.06,92.06,0,0,1,293,317.93h0A92.06,92.06,0,0,1,201,410h0a92.06,92.06,0,0,1-92-92.05h0Z" transform="translate(-1 0)"/><path class="cls-2" d="M197.23,295.93l-0.53,2.29a17,17,0,0,0-2.38.31,20.13,20.13,0,0,0-2.19.47,3.53,3.53,0,0,0-1.87,1.27,5.47,5.47,0,0,0-.85,1.89l-7,30.75q-0.1.46-.18,0.93a4,4,0,0,0-.1.78,2.19,2.19,0,0,0,1.09,2,12.91,12.91,0,0,0,4.5,1l-0.53,2.29H163.43l0.53-2.29c0.82-.11,1.67-0.21,2.54-0.34a11.4,11.4,0,0,0,2-.44,4.54,4.54,0,0,0,1.95-1.26,4.62,4.62,0,0,0,1-2.06l7.46-33h-0.26L154.78,339.2h-3.85a35.53,35.53,0,0,0-.44-3.9c-0.25-1.8-.48-3.47-0.68-5L145.56,300h-0.32L139,327a28.84,28.84,0,0,0-.58,3,17.79,17.79,0,0,0-.22,2.63,5.83,5.83,0,0,0,.26,1.94,3.28,3.28,0,0,0,.73,1.15,6.29,6.29,0,0,0,2.43,1.23,18.61,18.61,0,0,0,2.65.7l-0.51,2.29h-19l0.51-2.29c0.54-.07,1.42-0.2,2.64-0.43A8.83,8.83,0,0,0,131,336.1a6.39,6.39,0,0,0,2.32-2.87,33.42,33.42,0,0,0,1.81-5.93l5-21.7c0.15-.76.27-1.31,0.32-1.71a8.76,8.76,0,0,0,.12-1.13,4.74,4.74,0,0,0-.26-1.68,3.46,3.46,0,0,0-.79-1.24,4.65,4.65,0,0,0-2.27-1.22,17,17,0,0,0-2.54-.39l0.53-2.29h20.19l4.26,29,14.39-23.59c0.62-1.09,1.19-2.19,1.72-3.28a14.09,14.09,0,0,0,.89-2.19h20.48ZM211,341.14a30.91,30.91,0,0,1-7.37-.91,25.56,25.56,0,0,1-6.48-2.47l-2.67,2.19h-2.67l3.28-15.88h2.67a22.2,22.2,0,0,0,1.37,4.83,17.21,17.21,0,0,0,2.57,4.46,12.73,12.73,0,0,0,3.93,3.4,12.44,12.44,0,0,0,12.66-.85,7.11,7.11,0,0,0,2.69-5.78,5.91,5.91,0,0,0-1.53-4,12,12,0,0,0-4.95-3l-4.18-1.49c-1.36-.48-2.65-1-3.86-1.5a11.64,11.64,0,0,1-5.47-4.38,10.78,10.78,0,0,1-1.83-6,12.49,12.49,0,0,1,1.34-5.61,14.86,14.86,0,0,1,3.85-4.8,18.69,18.69,0,0,1,6.07-3.28,24,24,0,0,1,7.94-1.31,25,25,0,0,1,7.13,1.09,25.35,25.35,0,0,1,5.21,2L233,296h2.67l-3.28,15H229.8a30.66,30.66,0,0,0-1.16-5,15.33,15.33,0,0,0-2.09-4.18,9.79,9.79,0,0,0-3.28-2.87,10.59,10.59,0,0,0-11,1,6.64,6.64,0,0,0-2.53,5.31,5.62,5.62,0,0,0,1.52,3.91,12.21,12.21,0,0,0,4.81,2.92l4,1.47c1.41,0.5,2.75,1,4,1.57a14.1,14.1,0,0,1,5.68,4.05,9.35,9.35,0,0,1,2.07,6.08,13.43,13.43,0,0,1-1.51,6.24,15.33,15.33,0,0,1-4.26,5,20.88,20.88,0,0,1-6.72,3.43,28.46,28.46,0,0,1-8.45,1.19h0V341Zm41.45,0a30.91,30.91,0,0,1-7.32-1,25.56,25.56,0,0,1-6.5-2.38L236,339.95h-2.67L236.67,324h2.67a22.2,22.2,0,0,0,1.33,4.82,17.21,17.21,0,0,0,2.57,4.46,12.73,12.73,0,0,0,4,3.35,12.44,12.44,0,0,0,12.66-.85,7.11,7.11,0,0,0,2.69-5.78,5.91,5.91,0,0,0-1.53-4,12,12,0,0,0-5-3l-4.23-1.45c-1.36-.48-2.65-1-3.86-1.5a11.64,11.64,0,0,1-5.47-4.38,10.78,10.78,0,0,1-1.88-6A12.49,12.49,0,0,1,242,304.1a14.86,14.86,0,0,1,3.85-4.8,18.69,18.69,0,0,1,6.07-3.28,24,24,0,0,1,7.92-1.31,25,25,0,0,1,7.13,1.09,25.35,25.35,0,0,1,5.21,2l2.33-1.85h2.67l-3.28,15h-2.68a30.66,30.66,0,0,0-1.16-5,15.33,15.33,0,0,0-2.09-4.18,9.79,9.79,0,0,0-3.31-2.81,10.59,10.59,0,0,0-11,1,6.64,6.64,0,0,0-2.53,5.31,5.62,5.62,0,0,0,1.52,3.91,12.21,12.21,0,0,0,4.81,2.92l4,1.47c1.41,0.5,2.75,1,4,1.57a14.1,14.1,0,0,1,5.68,4.05,9.35,9.35,0,0,1,2.07,6.08,13.43,13.43,0,0,1-1.51,6.24,15.33,15.33,0,0,1-4.26,5,20.88,20.88,0,0,1-6.72,3.43,28.46,28.46,0,0,1-8.45,1.19h0.22Z" transform="translate(-1 0)"/></svg>