<?xml version="1.0" encoding="utf-8"?>
<!-- Generator: Adobe Illustrator 19.2.1, SVG Export Plug-In . SVG Version: 6.00 Build 0)  -->
<svg version="1.1" id="Слой_1" xmlns="http://www.w3.org/2000/svg" xmlns:xlink="http://www.w3.org/1999/xlink" x="0px" y="0px"
	 viewBox="0 0 365.3 365.3" style="enable-background:new 0 0 365.3 365.3;" xml:space="preserve">
<style type="text/css">
	.st0{fill:#CCCCCC;}
	.st1{fill:none;stroke:#CCCCCC;stroke-width:2;stroke-miterlimit:10;}
</style>
<g>
	<g>
		<path class="st0" d="M227.5,78.5C147.4,4.2,13.9,23.6,46.7,211.7C3.1,4.4,170.5-17.4,247.2,89.5C241.1,85.2,234.5,81.5,227.5,78.5
			L227.5,78.5z"/>
		<path class="st0" d="M187.3,69.4C79.3,5.9-34.7,99,76.1,276.5c-120-167.1,2.1-301.6,122.6-206.1C194.9,69.9,191.2,69.6,187.3,69.4
			L187.3,69.4z"/>
		<path class="st0" d="M126.5,84.2c-112.7,11.1-189,130.9-17.6,225.4C-81.4,213.1,9,67.5,142,76.8C136.6,78.9,131.4,81.4,126.5,84.2
			L126.5,84.2z"/>
		<path class="st0" d="M76.3,143.5C4.6,223.8,25.5,354.3,211.7,321.8C7,364.9-16.9,202.1,85.6,124.1
			C81.9,130.2,78.8,136.7,76.3,143.5L76.3,143.5z"/>
		<path class="st0" d="M143.5,289.1c80.4,71.6,210.8,50.7,178.4-135.4C365,358.4,202.1,382.3,124.2,279.8
			C130.2,283.5,136.7,286.6,143.5,289.1L143.5,289.1z"/>
		<path class="st0" d="M69.4,178C5.9,286,99,400.1,276.5,289.2C109.4,409.2-25.1,287,70.4,166.6C69.9,170.4,69.6,174.2,69.4,178
			L69.4,178z"/>
		<path class="st0" d="M172.2,295.6C281.9,366,402.1,272.7,289.2,92c121.6,169.3-5.4,305.1-127.4,202.1
			C165.3,294.8,168.7,295.2,172.2,295.6L172.2,295.6z"/>
		<path class="st0" d="M231.8,284.9c116.5-6.7,199.6-129.5,24.6-225.9c193.8,98.1,96.6,247.3-40.3,232
			C221.5,289.4,226.8,287.3,231.8,284.9L231.8,284.9z"/>
		<path class="st0" d="M286.8,227.5c74.3-80.1,54.9-213.6-133.2-180.8C360.9,3.1,382.7,170.5,275.9,247.2
			C280.2,241.1,283.8,234.5,286.8,227.5L286.8,227.5z"/>
		<path class="st0" d="M84.2,238.9c11.1,112.7,130.9,189,225.4,17.6c-96.4,190.3-242.1,99.9-232.7-33.1
			C78.9,228.7,81.4,233.9,84.2,238.9L84.2,238.9z"/>
		<path class="st0" d="M295.6,193.1C365.9,83.4,272.7-36.7,92,76.1c169.3-121.6,305.1,5.4,202.1,127.3
			C294.8,200.1,295.2,196.6,295.6,193.1L295.6,193.1z"/>
		<path class="st0" d="M284.9,133.6C278.2,17,155.4-66.1,58.9,108.9C157.1-84.8,306.3,12.4,291,149.2
			C289.4,143.8,287.3,138.6,284.9,133.6L284.9,133.6z"/>
	</g>
	<path class="st1" d="M182.6,69.3c-62.6,0-113.4,50.8-113.4,113.4C69.2,245.3,120,296,182.6,296s113.4-50.7,113.4-113.3
		C296.1,120.1,245.3,69.3,182.6,69.3z M182.6,266.8c-46.5,0-84.1-37.7-84.1-84.1c0-46.4,37.6-84.1,84.1-84.1
		c46.4,0,84.1,37.6,84.1,84.1C266.7,229.1,229.1,266.8,182.6,266.8z"/>
	<path class="st0" d="M179.2,162.6l-0.5,2.1c-0.6,0-1.3,0.1-2.2,0.3s-1.5,0.3-2,0.4c-0.8,0.3-1.3,0.6-1.7,1.2
		c-0.4,0.5-0.6,1.1-0.8,1.7l-6.4,28.1c-0.1,0.3-0.1,0.6-0.2,0.9c-0.1,0.3-0.1,0.5-0.1,0.7c0,0.9,0.3,1.5,1,1.9s2.1,0.7,4.1,0.9
		l-0.5,2.1h-21.7l0.5-2.1c0.8-0.1,1.5-0.2,2.3-0.3s1.4-0.3,1.8-0.4c0.8-0.3,1.4-0.7,1.8-1.2c0.4-0.5,0.7-1.1,0.9-1.9l6.8-30.1H162
		l-21.8,35.3h-3.6c0-0.7-0.2-1.9-0.4-3.6c-0.2-1.6-0.4-3.2-0.6-4.6l-3.9-27.6h-0.3l-5.7,24.6c-0.2,0.9-0.4,1.9-0.5,2.8
		c-0.1,0.9-0.2,1.7-0.2,2.4c0,0.8,0.1,1.3,0.2,1.8c0.2,0.4,0.4,0.8,0.7,1.1c0.4,0.4,1.1,0.8,2.2,1.1c1.1,0.3,1.9,0.6,2.4,0.6
		l-0.5,2.1h-17.3l0.5-2.1c0.5-0.1,1.3-0.2,2.4-0.4s2.1-0.5,2.9-1c0.9-0.5,1.6-1.4,2.1-2.6c0.6-1.2,1.1-3,1.7-5.4l4.6-19.8
		c0.1-0.7,0.3-1.2,0.3-1.6c0-0.4,0.1-0.7,0.1-1.1c0-0.6-0.1-1.1-0.2-1.5c-0.2-0.4-0.4-0.8-0.7-1.1c-0.6-0.6-1.3-0.9-2.1-1.1
		c-0.8-0.2-1.6-0.3-2.3-0.4l0.5-2.1h18.4l3.9,26.5l13.1-21.6c0.6-1,1.1-2,1.6-3s0.7-1.7,0.8-2L179.2,162.6L179.2,162.6z
		 M191.8,203.9c-2.2,0-4.5-0.3-6.7-0.8c-2.3-0.6-4.2-1.3-5.9-2.3l-2.4,2h-2.4l3-14.5h2.4c0.2,1.4,0.6,2.9,1.2,4.4
		c0.6,1.5,1.4,2.9,2.3,4.1c0.9,1.2,2.1,2.3,3.6,3.1c1.4,0.8,3.1,1.2,5,1.2c2.7,0,4.9-0.7,6.6-2c1.6-1.3,2.5-3.1,2.5-5.3
		c0-1.4-0.5-2.6-1.4-3.7c-0.9-1.1-2.4-2-4.5-2.7c-1.3-0.5-2.6-0.9-3.8-1.4c-1.2-0.4-2.4-0.9-3.5-1.4c-2.2-0.9-3.9-2.2-5-4
		c-1.1-1.7-1.7-3.5-1.7-5.5c0-1.8,0.4-3.5,1.2-5.1s2-3.1,3.5-4.4c1.5-1.3,3.3-2.3,5.5-3c2.2-0.8,4.6-1.2,7.2-1.2
		c2.2,0,4.4,0.3,6.5,1c2.2,0.6,3.7,1.2,4.8,1.8l2.1-1.7h2.4l-3,13.7H209c-0.2-1.6-0.6-3.1-1.1-4.5s-1.1-2.7-1.9-3.8
		c-0.8-1.1-1.8-2-3-2.6s-2.6-1-4.3-1c-2.3,0-4.2,0.6-5.8,1.9c-1.5,1.3-2.3,2.9-2.3,4.9c0,1.4,0.5,2.6,1.4,3.6s2.4,1.9,4.4,2.7
		c1.2,0.4,2.4,0.9,3.7,1.3c1.3,0.5,2.5,0.9,3.7,1.4c2.2,0.9,3.9,2.1,5.2,3.7c1.3,1.6,1.9,3.4,1.9,5.5c0,2-0.5,3.9-1.4,5.7
		s-2.2,3.3-3.9,4.6c-1.7,1.4-3.8,2.4-6.1,3.1C197.2,203.5,194.6,203.9,191.8,203.9L191.8,203.9z M229.7,203.9
		c-2.2,0-4.5-0.3-6.7-0.8c-2.3-0.6-4.2-1.3-5.9-2.3l-2.4,2h-2.4l3-14.5h2.4c0.2,1.4,0.6,2.9,1.2,4.4c0.6,1.5,1.4,2.9,2.3,4.1
		c0.9,1.2,2.1,2.3,3.6,3.1c1.4,0.8,3.1,1.2,5,1.2c2.7,0,4.9-0.7,6.6-2c1.6-1.3,2.5-3.1,2.5-5.3c0-1.4-0.5-2.6-1.4-3.7
		c-0.9-1.1-2.4-2-4.5-2.7c-1.3-0.5-2.6-0.9-3.8-1.4c-1.2-0.4-2.4-0.9-3.5-1.4c-2.2-0.9-3.9-2.2-5-4c-1.1-1.7-1.7-3.5-1.7-5.5
		c0-1.8,0.4-3.5,1.2-5.1s2-3.1,3.5-4.4c1.5-1.3,3.3-2.3,5.5-3c2.2-0.8,4.6-1.2,7.2-1.2c2.2,0,4.4,0.3,6.5,1c2.2,0.6,3.7,1.2,4.8,1.8
		l2.1-1.7h2.4l-3,13.7h-2.4c-0.2-1.6-0.6-3.1-1.1-4.5s-1.1-2.7-1.9-3.8c-0.8-1.1-1.8-2-3-2.6s-2.6-1-4.3-1c-2.3,0-4.2,0.6-5.8,1.9
		c-1.5,1.3-2.3,2.9-2.3,4.9c0,1.4,0.5,2.6,1.4,3.6s2.4,1.9,4.4,2.7c1.2,0.4,2.4,0.9,3.7,1.3c1.3,0.5,2.5,0.9,3.7,1.4
		c2.2,0.9,3.9,2.1,5.2,3.7c1.3,1.6,1.9,3.4,1.9,5.5c0,2-0.5,3.9-1.4,5.7s-2.2,3.3-3.9,4.6c-1.7,1.4-3.8,2.4-6.1,3.1
		C235.1,203.5,232.5,203.9,229.7,203.9L229.7,203.9z"/>
	<path class="st0" d="M123.4,269.1l-1.5-1l9.8-14.5l1.5,1L123.4,269.1L123.4,269.1z M128.2,251.5l-12,12.8l-0.3-0.3l0.6-17.8
		l-9.2,9.8l-1.3-1.2l12-12.8l0.3,0.3l-0.6,17.6l9-9.7L128.2,251.5L128.2,251.5z M104.1,250l-1.3,1l-5.9-7.6l1.3-1l2.4,3.1l12.5-9.8
		l1.1,1.4l-12.5,9.8L104.1,250L104.1,250z M93.8,239.4l-5-8.7l1.5-0.9l4.1,7.2l4.8-2.7l-4.1-7.1l1.5-0.9l4.1,7.1l6-3.4l-4.1-7.1
		l1.5-0.9l5,8.6L93.8,239.4L93.8,239.4z M86,225.4l-1.3-3.3c-0.7-1.8-1.1-3.1-1.2-3.8c-0.1-1.1,0-2,0.5-2.9s1.3-1.5,2.4-1.9
		c0.9-0.3,1.8-0.4,2.6-0.3c0.8,0.2,1.6,0.6,2.2,1.2c0.6,0.6,1.2,1.7,1.8,3l5.4-8.8l0.8,2l-5.4,8.8l0.4,0.9l7.6-2.9l0.6,1.6L86,225.4
		L86,225.4z M87,223.2l5.6-2.1l-1.1-2.8c-0.4-1.1-0.8-1.9-1.2-2.3c-0.4-0.4-0.9-0.7-1.5-0.8s-1.1-0.1-1.7,0.1c-0.6,0.2-1,0.6-1.3,1
		c-0.3,0.5-0.5,1-0.5,1.5c0,0.6,0.2,1.4,0.6,2.5L87,223.2L87,223.2z M96.9,205.4l-17.3,3l-0.1-0.4l11.2-13.8l-13.2,2.3l-0.3-1.7
		l17.3-3l0.1,0.4L83.5,206l13.1-2.3L96.9,205.4L96.9,205.4z M76.4,180.1l17.7-7.9v1.9l-5.8,2.7l-0.1,7.6l5.7,2.8v2l-17.4-8.6
		L76.4,180.1L76.4,180.1z M80.2,180.4l6.3,3.1l0.1-6L80.2,180.4L80.2,180.4z M79,168.8l-1.7-0.3l1.5-9.5l1.7,0.3l-0.6,3.9l15.6,2.5
		l-0.3,1.8L79.6,165L79,168.8L79,168.8z M79.7,155l0.5-1.7l16.9,4.5l-0.5,1.7L79.7,155L79.7,155z M84.6,139.3c1-2.4,2.7-4.1,5.1-5.1
		c2.3-1,4.7-0.9,7.1,0.1s4,2.7,5,5s0.9,4.7-0.1,7.1c-1,2.4-2.7,4.1-5,5s-4.7,0.9-7-0.1c-1.6-0.7-2.8-1.6-3.8-3
		c-1-1.3-1.6-2.8-1.8-4.4C83.7,142.4,83.9,140.8,84.6,139.3L84.6,139.3z M86.2,139.9c-0.5,1.2-0.7,2.5-0.5,3.8s0.7,2.5,1.5,3.6
		c0.8,1,1.8,1.8,3.1,2.4c1.9,0.8,3.8,0.8,5.7,0.1c1.9-0.8,3.2-2.1,4-4c0.5-1.3,0.7-2.5,0.6-3.9c-0.2-1.3-0.6-2.5-1.4-3.5
		s-1.8-1.8-3.1-2.4c-1.3-0.5-2.6-0.7-3.9-0.6c-1.3,0.2-2.5,0.6-3.6,1.5C87.5,137.7,86.7,138.7,86.2,139.9L86.2,139.9z M106.9,134.5
		l-14-10.6l0.2-0.3l17.7-1.2l-10.7-8.1l1-1.4l14,10.6l-0.2,0.3l-17.5,1.3l10.6,8L106.9,134.5L106.9,134.5z M111.8,102.3l17.7,7.9
		l-1.4,1.2l-5.9-2.5l-5.7,5l1.7,6.2l-1.5,1.3l-5.3-18.7L111.8,102.3L111.8,102.3z M114.1,105.2l1.9,6.8l4.5-3.9L114.1,105.2
		L114.1,105.2z M122.2,94l1.5-1l8.6,13.3l5.6-3.7l0.9,1.4l-7.1,4.6L122.2,94L122.2,94z M158.5,81.1l-1,1.4c-1-0.7-2.1-1.1-3.3-1.3
		c-1.2-0.2-2.4,0-3.6,0.4c-1.3,0.4-2.5,1.1-3.4,2.2c-0.9,1-1.5,2.2-1.8,3.4c-0.3,1.3-0.2,2.6,0.2,3.9c0.7,2,1.9,3.5,3.7,4.4
		s3.8,1,5.9,0.3c2.3-0.8,4-2.3,5-4.6l1.6,0.6c-0.5,1.3-1.3,2.5-2.3,3.5c-1.1,1-2.4,1.7-3.9,2.2c-2.9,0.9-5.5,0.7-7.9-0.7
		c-1.9-1.2-3.3-2.9-4.1-5.3s-0.6-4.8,0.6-7c1.2-2.2,3-3.8,5.6-4.6c1.6-0.5,3.1-0.7,4.5-0.4C156,79.7,157.3,80.2,158.5,81.1
		L158.5,81.1z M164.4,76.8l10-1.2l0.2,1.7l-8.2,1l0.7,5.4l8.2-1l0.2,1.7l-8.2,1l0.8,6.8l8.2-1l0.2,1.7l-9.9,1.2L164.4,76.8
		L164.4,76.8z M179.5,75.2h3.5c1.9,0,3.3,0.1,4,0.2c1,0.2,1.9,0.7,2.5,1.5c0.7,0.8,1,1.8,1,2.9c0,1-0.2,1.8-0.7,2.5
		s-1.1,1.3-1.9,1.6c-0.8,0.4-2,0.6-3.5,0.6l6.3,8.2h-2.2l-6.3-8.2h-1v8.2h-1.8L179.5,75.2L179.5,75.2z M181.3,77v6h3
		c1.2,0,2-0.1,2.6-0.3c0.6-0.2,1-0.6,1.3-1.1s0.5-1,0.5-1.6s-0.2-1.1-0.5-1.6s-0.7-0.8-1.3-1c-0.5-0.2-1.4-0.3-2.6-0.3L181.3,77
		L181.3,77z M194.7,77.6l0.2-1.7l9.5,1.3l-0.2,1.7l-3.9-0.5l-2.2,15.7l-1.8-0.2l2.2-15.7L194.7,77.6L194.7,77.6z M208.3,78.4
		l1.7,0.4l-4.2,17l-1.7-0.4L208.3,78.4L208.3,78.4z M215.5,80.5l8.3,2.9l-0.6,1.6l-6.7-2.3l-1.8,5.2l6.7,2.3l-0.6,1.6l-6.7-2.3
		l-2.8,8.1l-1.6-0.6L215.5,80.5L215.5,80.5z M228,85.5l1.6,0.7l-7.4,15.9l-1.6-0.7L228,85.5L228,85.5z M247.2,100.9l-1.7,0.1
		c-0.1-1.2-0.5-2.4-1.1-3.4s-1.5-1.9-2.5-2.6c-1.2-0.8-2.4-1.2-3.8-1.3c-1.4-0.1-2.6,0.2-3.8,0.8c-1.2,0.6-2.1,1.5-2.9,2.7
		c-1.2,1.8-1.5,3.7-1.1,5.7c0.5,2,1.6,3.6,3.5,4.8c2.1,1.3,4.3,1.7,6.7,0.9l0.6,1.6c-1.3,0.5-2.7,0.6-4.2,0.4
		c-1.4-0.2-2.8-0.7-4.2-1.6c-2.6-1.7-4-3.8-4.4-6.5c-0.3-2.3,0.2-4.4,1.5-6.5c1.4-2.2,3.3-3.5,5.8-4s4.8,0,7.1,1.5
		c1.4,0.9,2.4,2,3.2,3.2C246.7,98.1,247.1,99.4,247.2,100.9L247.2,100.9z M259.3,108.2l-6.6,18.2l-1.3-1.3l2.1-6l-5.3-5.3l-6,2.1
		l-1.4-1.4l18.3-6.5L259.3,108.2L259.3,108.2z M256.6,110.7l-6.6,2.4l4.2,4.2L256.6,110.7L256.6,110.7z M265.9,118.7l1.4-1l5.4,8
		l-1.4,1l-2.2-3.2l-13.1,8.9l-1-1.5l13.1-8.9L265.9,118.7L265.9,118.7z M274.3,128.6l0.9,1.5l-15,9l-0.9-1.5L274.3,128.6
		L274.3,128.6z M282,143.6c1,2.5,1,4.9,0,7.2s-2.7,4-5.1,4.9c-2.4,1-4.7,1-7.1,0c-2.3-1-4-2.7-4.9-5c-1-2.4-1-4.8,0-7.1s2.6-4,5-4.9
		c1.6-0.6,3.2-0.8,4.8-0.6c1.6,0.2,3.1,0.8,4.4,1.8C280.4,140.9,281.4,142.1,282,143.6L282,143.6z M280.4,144.4
		c-0.5-1.2-1.3-2.2-2.3-3c-1.1-0.8-2.2-1.3-3.6-1.5c-1.3-0.2-2.6,0-3.9,0.5c-1.9,0.8-3.3,2.1-4.1,4c-0.8,1.9-0.8,3.8,0,5.6
		c0.5,1.3,1.3,2.3,2.3,3.1s2.2,1.3,3.5,1.5s2.6,0,3.9-0.5s2.3-1.3,3.1-2.3c0.8-1,1.3-2.2,1.5-3.5
		C281.1,146.9,280.9,145.6,280.4,144.4L280.4,144.4z M269,162.5l17.4-2.4l0.1,0.4l-11.7,13.4L288,172l0.2,1.7l-17.4,2.4l-0.1-0.4
		l11.5-13.3l-13.1,1.8L269,162.5L269,162.5z M274,186l0.7,1.6c-2,0.8-3.1,1.9-3.3,3.3c-0.1,0.6,0,1.1,0.2,1.7c0.2,0.5,0.5,1,1,1.3
		c0.4,0.3,0.9,0.5,1.4,0.6c0.6,0.1,1.2-0.1,1.8-0.4c0.8-0.5,1.9-1.4,3.1-2.7c1.3-1.3,2.1-2.2,2.7-2.5c0.9-0.5,1.8-0.7,2.8-0.6
		c0.8,0.1,1.4,0.3,2,0.8c0.6,0.4,1,1,1.3,1.7s0.4,1.4,0.3,2.2s-0.4,1.6-0.9,2.2c-0.5,0.7-1.3,1.4-2.5,2l-0.9-1.5
		c0.9-0.6,1.6-1.1,1.9-1.5s0.5-0.9,0.6-1.5c0.1-0.7-0.1-1.3-0.5-1.8s-0.9-0.8-1.5-0.8c-0.4,0-0.8,0-1.1,0.1
		c-0.4,0.1-0.8,0.4-1.3,0.7c-0.2,0.2-0.9,0.9-2,2.1c-1.3,1.4-2.4,2.3-3.3,2.8s-1.8,0.7-2.7,0.6c-1.3-0.1-2.3-0.7-3.1-1.8
		c-0.8-1.1-1.2-2.3-1-3.7c0.1-1.1,0.5-2,1.1-2.8C271.6,187.3,272.6,186.6,274,186L274,186z M286.4,202.3l-0.5,2l-8.1,2.6l5.9,6
		l-0.5,2l-7.5-7.6l-8.1-2l0.4-1.7l8.1,2L286.4,202.3L286.4,202.3z M268.6,212.7l0.3,1.7c-2.2,0.3-3.5,1-4,2.3
		c-0.2,0.5-0.3,1.1-0.2,1.7c0.1,0.6,0.3,1.1,0.6,1.5c0.3,0.4,0.7,0.7,1.2,0.9s1.2,0.3,1.8,0.1c0.9-0.2,2.2-0.8,3.7-1.7
		c1.6-0.9,2.7-1.5,3.2-1.6c1-0.3,1.9-0.2,2.8,0.1c0.7,0.3,1.3,0.7,1.7,1.3c0.4,0.6,0.7,1.2,0.8,2c0.1,0.8,0,1.5-0.3,2.2
		c-0.3,0.8-0.8,1.4-1.4,1.9s-1.6,0.9-3,1.3l-0.5-1.7c1.1-0.3,1.8-0.6,2.2-0.9c0.4-0.3,0.8-0.7,1-1.3c0.3-0.7,0.3-1.3,0.1-1.9
		c-0.2-0.6-0.6-1-1.2-1.2c-0.4-0.1-0.7-0.2-1.1-0.2s-0.9,0.1-1.4,0.4c-0.3,0.1-1.1,0.6-2.5,1.4c-1.6,1-2.9,1.6-3.9,1.8
		s-1.9,0.1-2.8-0.2c-1.2-0.5-2-1.3-2.5-2.6c-0.5-1.2-0.5-2.5,0-3.8c0.4-1,1-1.8,1.9-2.4C265.9,213.3,267.1,212.9,268.6,212.7
		L268.6,212.7z M274.1,230.9l1.5,0.9l-5,8.2l-1.5-0.9l2-3.4l-13.6-8.2l0.9-1.5l13.6,8.2L274.1,230.9L274.1,230.9z M267.8,244.2
		l-6.3,7.8l-1.3-1.1l5.2-6.4l-4.3-3.5l-5.2,6.4l-1.3-1.1l5.2-6.4l-5.3-4.3l-5.2,6.4l-1.3-1.1l6.3-7.8L267.8,244.2L267.8,244.2z
		 M246.6,242.8l9.1,15.2l-0.2,0.2l-14.6-6.7l3.6,15.6l-0.2,0.2l-13-12l1.3-1.1l9.2,8.7l-3.1-13.7l0.3-0.3l12.8,5.9l-6.6-10.9
		L246.6,242.8L246.6,242.8z"/>
</g>
</svg>
