<?xml version="1.0" encoding="utf-8"?>
<!-- Generator: Adobe Illustrator 16.0.0, SVG Export Plug-In . SVG Version: 6.00 Build 0)  -->
<!DOCTYPE svg PUBLIC "-//W3C//DTD SVG 1.1//EN" "http://www.w3.org/Graphics/SVG/1.1/DTD/svg11.dtd">
<svg version="1.1" id="Layer_1" xmlns="http://www.w3.org/2000/svg" xmlns:xlink="http://www.w3.org/1999/xlink" x="0px" y="0px"
	 width="19.5px" height="19.5px" viewBox="0 0 19.5 19.5" enable-background="new 0 0 19.5 19.5" xml:space="preserve">
<g>
	<path fill="#FFFFFF" d="M18,19.5c-0.398,0-0.785-0.164-1.055-0.445l-4.02-4.008C11.555,15.996,9.914,16.5,8.25,16.5
		C3.691,16.5,0,12.809,0,8.25S3.691,0,8.25,0s8.25,3.691,8.25,8.25c0,1.664-0.504,3.305-1.453,4.676l4.02,4.02
		c0.27,0.27,0.434,0.656,0.434,1.055C19.5,18.832,18.832,19.5,18,19.5z M8.25,3C5.355,3,3,5.355,3,8.25s2.355,5.25,5.25,5.25
		s5.25-2.355,5.25-5.25S11.145,3,8.25,3z M12,8.625C12,8.824,11.824,9,11.625,9H9v2.625C9,11.824,8.824,12,8.625,12h-0.75
		C7.676,12,7.5,11.824,7.5,11.625V9H4.875C4.676,9,4.5,8.824,4.5,8.625v-0.75C4.5,7.676,4.676,7.5,4.875,7.5H7.5V4.875
		C7.5,4.676,7.676,4.5,7.875,4.5h0.75C8.824,4.5,9,4.676,9,4.875V7.5h2.625C11.824,7.5,12,7.676,12,7.875V8.625z"/>
</g>
</svg>
