<svg fill="#2DA377" xmlns="http://www.w3.org/2000/svg" viewBox="0 0 22 15"><path d="M2.1 0C1 0 0 .9 0 2s1 2 2.1 2c1.2 0 2.1-.9 2.1-2 .1-1.1-.9-2-2.1-2zm0 5.5C1 5.5 0 6.4 0 7.5s1 2 2.1 2c1.2 0 2.1-.9 2.1-2 .1-1.1-.9-2-2.1-2zm0 5.4C1 10.9 0 11.8 0 13c0 1.1 1 2 2.1 2 1.2 0 2.1-.9 2.1-2 .1-1.2-.9-2.1-2.1-2.1zm5-7.5h13.5c.8 0 1.4-.6 1.4-1.4S21.4.6 20.6.6H7.1c-.8.1-1.4.7-1.4 1.4s.6 1.4 1.4 1.4zm13.5 2.7H7.1c-.8 0-1.4.6-1.4 1.4s.6 1.4 1.4 1.4h13.5c.8 0 1.4-.6 1.4-1.4s-.6-1.4-1.4-1.4zm0 5.5H7.1c-.8 0-1.4.6-1.4 1.4 0 .8.6 1.4 1.4 1.4h13.5c.8 0 1.4-.6 1.4-1.4 0-.8-.6-1.4-1.4-1.4z"/></svg>
