<svg id="Слой_1" data-name="Слой 1" xmlns="http://www.w3.org/2000/svg" viewBox="0 0 148.78 206.45"><defs><style>.cls-1,.cls-3,.cls-4,.cls-5,.cls-6{fill:none;}.cls-1,.cls-2,.cls-3,.cls-4,.cls-5,.cls-6{stroke:#36a67c;stroke-miterlimit:10;}.cls-3{stroke-width:5px;}.cls-4,.cls-6{stroke-width:4px;}.cls-5,.cls-6{stroke-linecap:round;}.cls-5{stroke-width:3px;}</style></defs><title>phone</title><path class="cls-1" d="M33.61,46.78a2.9,2.9,0,0,0-.81,2,3,3,0,0,0,.81,2,2.86,2.86,0,0,0,4,0,3,3,0,0,0,.8-2,2.79,2.79,0,0,0-4.78-2h0Z" transform="translate(0 0)"/><path class="cls-2" d="M11.21,46.78" transform="translate(0 0)"/><path class="cls-1" d="M42,46.78a2.9,2.9,0,0,0-.82,2,2.81,2.81,0,0,0,4.78,2,2.85,2.85,0,0,0,.82-2,2.78,2.78,0,0,0-.82-2,2.91,2.91,0,0,0-4,0h0Z" transform="translate(0 0)"/><path class="cls-1" d="M50.41,46.78a2.85,2.85,0,0,0-.8,2,3,3,0,0,0,.8,2,2.86,2.86,0,0,0,4,0,3,3,0,0,0,.81-2,2.79,2.79,0,0,0-4.78-2h0Z" transform="translate(0 0)"/><path class="cls-1" d="M58.8,46.78a2.9,2.9,0,0,0-.81,2,2.84,2.84,0,0,0,4.81,2,2.85,2.85,0,0,0,.82-2,2.81,2.81,0,0,0-4.8-2h0Z" transform="translate(0 0)"/><path class="cls-1" d="M67.21,46.78a2.85,2.85,0,0,0-.82,2,2.78,2.78,0,0,0,2.76,2.8h0a2.75,2.75,0,0,0,2.8-2.7s0-.07,0-0.1a3,3,0,0,0-.81-2,2.93,2.93,0,0,0-4,0h0Z" transform="translate(0 0)"/><path class="cls-1" d="M32.39,197.17a2.78,2.78,0,1,0-2-.82,2.88,2.88,0,0,0,2,.82h0Z" transform="translate(0 0)"/><path class="cls-1" d="M53.8,197.17a2.81,2.81,0,0,0,2.8-2.8,2.85,2.85,0,0,0-.82-2,2.8,2.8,0,0,0-4.78,2,2.93,2.93,0,0,0,.81,2,3,3,0,0,0,2,.82h0v0Z" transform="translate(0 0)"/><path class="cls-1" d="M74.2,197.17a2.78,2.78,0,0,0,2.8-2.76s0,0,0,0a2.81,2.81,0,0,0-4.78-2,3,3,0,0,0-.82,2,2.81,2.81,0,0,0,2.8,2.8h0Z" transform="translate(0 0)"/><path class="cls-3" d="M90.19,35.95H15.61A13.12,13.12,0,0,0,2.5,49.06V190.84a13.12,13.12,0,0,0,13.11,13.11H90.19a13.12,13.12,0,0,0,13.11-13.11V49.06A13.12,13.12,0,0,0,90.19,35.95h0Z" transform="translate(0 0)"/><rect class="cls-4" x="2.61" y="58.45" width="100.59" height="123.21"/><path class="cls-2" d="M7.61,54.36" transform="translate(0 0)"/><line class="cls-5" x1="9.05" y1="74.31" x2="18.31" y2="64.17"/><line class="cls-5" x1="9.05" y1="84.81" x2="27.38" y2="64.76"/><path class="cls-6" d="M115.74,54.62a18.26,18.26,0,0,0-.15-19.95c-7.11-11.15-17-7.54-17-7.54" transform="translate(0 0)"/><path class="cls-6" d="M128,60.75a29.38,29.38,0,0,0-.24-32.1c-11.45-17.94-27.4-12.09-27.4-12.09" transform="translate(0 0)"/><path class="cls-6" d="M139.71,70.21a44.41,44.41,0,0,0-.37-48.52C122-5.44,97.93,3.36,97.93,3.36" transform="translate(0 0)"/></svg>