<svg fill="#009573" xmlns="http://www.w3.org/2000/svg" viewBox="0 0 42.3 42.1"><path d="M41 31.7c-.6-.5-7.7-5.1-8.5-5.6-.4-.2-.8-.3-1.3-.3-.6 0-1.4.2-2 .6-.7.4-2.7 1.5-3.7 2.1-.9-.6-3-2.2-6.2-5.5-3.2-3.2-4.8-5.3-5.5-6.2.6-1 1.7-3 2.1-3.7.7-1.3.7-2.5.2-3.4-.5-.8-5.2-7.9-5.6-8.5-.5-.6-1.3-1-2.1-1-.9-.1-1.6.1-2.3.6 0 0-6.2 4.5-6.1 7C.2 15 7.2 23.4 12.9 29.1c5.8 5.8 14.2 12.7 21.3 13h.1c2.5 0 6.9-6.1 7-6.1 1.2-1.7.7-3.5-.3-4.3zm-1.8 2.7c-1.7 2.3-4 4.7-4.9 5.1-4.9-.2-11.8-4.6-19.4-12.2C7.2 19.7 2.8 12.8 2.6 7.9c.3-.9 2.7-3.3 5-5 .2-.1.4-.2.6-.2h.1c.7 1.1 4.7 7.1 5.4 8.2 0 .1 0 .4-.3.8-.2.5-1 1.8-2 3.6l-.8 1.4 1 1.4c.7 1 2.4 3.2 5.8 6.6s5.6 5.1 6.6 5.8l1.4 1 1.4-.8c1.4-.8 3.1-1.8 3.6-2 .4-.2.7-.3.8-.3 1 .6 7.1 4.7 8.2 5.4 0 .1 0 .3-.2.6zm3.1-32.5c0-.3 0-.5-.2-.7-.1-.1-.3-.3-.6-.3H41L31.6 0c-.5 0-1 .4-1.1.9l-.1.7c0 .6.5 1 1 1.1l6.2.6L26 13c-.6.5-.6 1.3-.2 1.8.5.6 1.3.6 1.8.2l11.7-9.7-.6 6.3c-.1.5.3 1 .8 1.1l.7.1c.5 0 1-.2 1.1-.8l.9-9.4.1-.7z"/></svg>
