<svg fill="#009573" xmlns="http://www.w3.org/2000/svg" viewBox="0 0 54 50"><path d="M22 3.4c10.3 0 18.5 5.8 18.5 13.1 0 8.1-7.7 14-18 14 0 0-1.6.1-3.2-.2l-1.9-.1-2.1 1.8c-.5.6-2.7 2.4-4.6 3.6 1.1-3.3 1.1-4.3 1.1-4.3l.2-2.1-1.8-.9c-4.7-2.4-6.8-7.4-6.8-11.8C3.4 9.2 11.7 3.4 22 3.4M22 0C9.9 0 0 7.3 0 16.5c0 5.7 2.8 11.8 8.6 14.8v.1c0 2.5-2.1 5.9-2.9 7.3-.1.2-.1.3-.1.5 0 .7.6 1.3 1.2 1.3h.3c4.3-.7 10.7-5.6 11.6-6.7 1 .1 1.6.2 2.4.2h1.1c12.2 0 21.6-7 21.5-17.4C43.9 7.3 34.2 0 22 0z"/><path d="M54 30.2c0-4.6-1.8-8.1-6.2-10.7-.1 1.2-.5 2.5-.8 3.7 2.9 2 3.7 4.1 3.7 7 0 3.7-1.7 6.3-5.6 8.3l-1.7.8s.2 4.3.4 5.4c-3.3-2.4-4.4-4.5-4.4-4.5l-1.8.3c-.7.1-2.6.1-2.6.1-4.6 0-8-1.1-10.9-3.4.8 0-4.7 0-4.8.1C22.7 41.4 28.1 44 35 44h1c.7 0 1.3 0 2.1-.1.8 1 5.4 5.4 9.1 6h.3c.6 0 1.1-.5 1.1-1.1 0-.2 0-.3-.1-.4-.7-1.2-1.8-4.8-1.8-6.9v-.1c5-2.5 7.3-6.2 7.3-11.2z"/></svg>
