<svg fill="#009573" xmlns="http://www.w3.org/2000/svg" viewBox="0 0 45 41"><path d="M45 10.7c0-1-.3-3.5-3.4-4.3L10.1 0h-.3C7.5 0 5.6 1.9 5.6 4.2v5.7H4.2C1.9 9.9 0 11.8 0 14.2v22.6C0 39.1 1.9 41 4.2 41h36.6c2.3 0 4.2-1.9 4.2-4.2M9.7 2.8l31 6.3s-.2.8-1.4.8H8.4V4.2c0-.7.6-1.3 1.3-1.4zm32.5 34c0 .8-.6 1.4-1.4 1.4H4.2c-.8 0-1.4-.6-1.4-1.4V14.2c0-.8.6-1.4 1.4-1.4h35.1c1.4 0 2.8-.5 2.8-1.4v25.4z"/><path d="M8.4 22.7c1.6 0 2.8 1.3 2.8 2.8 0 1.6-1.3 2.8-2.8 2.8-1.6 0-2.8-1.3-2.8-2.8 0-1.6 1.3-2.8 2.8-2.8z"/></svg>
