<?xml version="1.0" encoding="utf-8"?>
<!-- Generator: Adobe Illustrator 19.2.1, SVG Export Plug-In . SVG Version: 6.00 Build 0)  -->
<svg version="1.1" id="Слой_1" xmlns="http://www.w3.org/2000/svg" xmlns:xlink="http://www.w3.org/1999/xlink" x="0px" y="0px"
	 viewBox="0 0 23 13" style="enable-background:new 0 0 23 13;" xml:space="preserve">
<style type="text/css">
	.st0{fill:#444A54;}
</style>
<path class="st0" d="M22.1,12.9c-0.1,0-0.2,0-0.4,0c-1.2,0-2.4,0-3.6,0c-0.2,0-0.3-0.1-0.4-0.2c-0.3-0.2-0.5-0.4-0.7-0.6
	c-0.6-0.6-1.2-1.2-1.8-1.8c-0.2-0.2-0.4-0.4-0.6-0.5c-0.1-0.1-0.2-0.1-0.4-0.1c-0.2,0-0.3,0.1-0.4,0.2c-0.1,0.1-0.1,0.3-0.1,0.5
	c0,0.3,0,0.6,0,0.8c0,0.3,0,0.6-0.1,0.9c0,0.1-0.1,0.3-0.2,0.4c-0.1,0.2-0.3,0.3-0.6,0.3c-1.1,0-2.1,0-3.2,0c-0.2,0-0.4-0.1-0.5-0.2
	c-1-0.5-1.8-1.1-2.6-1.9c-0.9-0.9-1.7-2-2.6-3C2.8,6.6,1.8,5.1,0.9,3.6C0.6,3,0.3,2.5,0.1,1.9C0,1.6,0,1.3,0.1,1
	c0-0.1,0.1-0.2,0.1-0.3c0.1-0.1,0.2-0.2,0.3-0.2c0.1,0,0.1,0,0.2,0c1.1,0,2.2,0,3.3,0c0.2,0,0.4,0.1,0.5,0.2C4.7,1,4.9,1.3,5.1,1.7
	C5.3,2,5.5,2.3,5.7,2.7c0.4,0.8,0.9,1.5,1.4,2.2c0.3,0.3,0.5,0.7,0.8,1C8,6.1,8.2,6.2,8.4,6.2c0.2,0,0.3-0.1,0.3-0.3
	c0,0,0-0.1,0-0.1c0-1.2,0-2.4,0-3.6c0-0.1,0-0.2,0-0.3c0-0.2-0.1-0.3-0.4-0.4c-0.1,0-0.2,0-0.3,0c-0.3,0-0.4-0.2-0.5-0.5
	c0-0.5,0.2-0.8,0.6-1C8.3,0,8.5,0,8.7,0c1,0,2,0,2.9,0c0.2,0,0.4,0,0.6,0c0.2,0,0.4,0,0.6,0.1c0.4,0.1,0.7,0.4,0.7,0.8
	c0,0.1,0,0.2,0,0.3c0,0.7,0,1.5,0,2.2c0,0.8,0,1.5,0,2.3c0,0.1,0,0.2,0,0.2c0.1,0.2,0.3,0.3,0.6,0.2c0.7-0.4,1.1-1,1.4-1.7
	c0.3-0.6,0.6-1.3,0.9-1.9c0.2-0.5,0.5-1,0.7-1.5c0.1-0.1,0.1-0.2,0.2-0.3c0.1-0.1,0.2-0.1,0.3-0.1c1.4,0,2.8,0,4.3,0
	c0.3,0,0.6,0.1,0.8,0.4c0.1,0.1,0.1,0.2,0.1,0.3c0.1,0.5-0.1,1-0.4,1.5c-0.3,0.4-0.6,0.8-0.9,1.2c-0.7,0.8-1.3,1.6-1.9,2.4
	c-0.1,0.2-0.3,0.5-0.4,0.7c-0.1,0.2-0.1,0.3,0,0.5c0.3,0.3,0.5,0.6,0.8,0.9c0.6,0.7,1.3,1.3,1.9,2c0.2,0.2,0.4,0.5,0.6,0.7
	c0.1,0.1,0.1,0.2,0.2,0.2C23.3,11.9,22.7,12.8,22.1,12.9z"/>
</svg>
