<?xml version="1.0" encoding="utf-8"?>
<!-- Generator: Adobe Illustrator 19.2.1, SVG Export Plug-In . SVG Version: 6.00 Build 0)  -->
<svg version="1.1" id="Слой_1" xmlns="http://www.w3.org/2000/svg" xmlns:xlink="http://www.w3.org/1999/xlink" x="0px" y="0px"
	 viewBox="0 0 32 32" style="enable-background:new 0 0 32 32;" xml:space="preserve">
<style type="text/css">
	.st0{fill-rule:evenodd;clip-rule:evenodd;fill:#000000;}
	.st1{fill:#444A54;}
</style>
<path class="st0" d="M5,0h22c2.8,0,5,2.2,5,5v22c0,2.8-2.2,5-5,5H5c-2.8,0-5-2.2-5-5V5C0,2.2,2.2,0,5,0z"/>
<path class="st1" d="M26.6,22.4c-0.1,0-0.2,0-0.4,0c-1.2,0-2.4,0-3.6,0c-0.2,0-0.3-0.1-0.4-0.2c-0.3-0.2-0.5-0.4-0.7-0.6
	c-0.6-0.6-1.2-1.2-1.8-1.8c-0.2-0.2-0.4-0.4-0.6-0.5c-0.1-0.1-0.2-0.1-0.4-0.1c-0.2,0-0.3,0.1-0.4,0.2c-0.1,0.1-0.1,0.3-0.1,0.5
	c0,0.3,0,0.6,0,0.8c0,0.3,0,0.6-0.1,0.9c0,0.1-0.1,0.3-0.2,0.4c-0.1,0.2-0.3,0.3-0.6,0.3c-1.1,0-2.1,0-3.2,0c-0.2,0-0.4-0.1-0.5-0.2
	c-1-0.5-1.8-1.1-2.6-1.9c-0.9-0.9-1.7-2-2.6-3c-1.1-1.4-2.1-2.8-2.9-4.3c-0.3-0.6-0.6-1.1-0.9-1.7c-0.1-0.3-0.1-0.6,0-0.9
	c0-0.1,0.1-0.2,0.1-0.3c0.1-0.1,0.2-0.2,0.3-0.2c0.1,0,0.1,0,0.2,0c1.1,0,2.2,0,3.3,0c0.2,0,0.4,0.1,0.5,0.2
	c0.3,0.3,0.5,0.6,0.7,0.9c0.2,0.3,0.4,0.7,0.6,1.1c0.4,0.8,0.9,1.5,1.4,2.2c0.3,0.3,0.5,0.7,0.8,1c0.1,0.2,0.3,0.2,0.5,0.2
	c0.2,0,0.3-0.1,0.3-0.3c0,0,0-0.1,0-0.1c0-1.2,0-2.4,0-3.6c0-0.1,0-0.2,0-0.3c0-0.2-0.1-0.3-0.4-0.4c-0.1,0-0.2,0-0.3,0
	c-0.3,0-0.4-0.2-0.5-0.5c0-0.5,0.2-0.8,0.6-1c0.2-0.1,0.4-0.1,0.6-0.1c1,0,2,0,2.9,0c0.2,0,0.4,0,0.6,0c0.2,0,0.4,0,0.6,0.1
	c0.4,0.1,0.7,0.4,0.7,0.8c0,0.1,0,0.2,0,0.3c0,0.7,0,1.5,0,2.2c0,0.8,0,1.5,0,2.3c0,0.1,0,0.2,0,0.2c0.1,0.2,0.3,0.3,0.6,0.2
	c0.7-0.4,1.1-1,1.4-1.7c0.3-0.6,0.6-1.3,0.9-1.9c0.2-0.5,0.5-1,0.7-1.5c0.1-0.1,0.1-0.2,0.2-0.3c0.1-0.1,0.2-0.1,0.3-0.1
	c1.4,0,2.8,0,4.3,0c0.3,0,0.6,0.1,0.8,0.4c0.1,0.1,0.1,0.2,0.1,0.3c0.1,0.5-0.1,1-0.4,1.5c-0.3,0.4-0.6,0.8-0.9,1.2
	c-0.7,0.8-1.3,1.6-1.9,2.4c-0.1,0.2-0.3,0.5-0.4,0.7c-0.1,0.2-0.1,0.3,0,0.5c0.3,0.3,0.5,0.6,0.8,0.9c0.6,0.7,1.3,1.3,1.9,2
	c0.2,0.2,0.4,0.5,0.6,0.7c0.1,0.1,0.1,0.2,0.2,0.2C27.8,21.5,27.2,22.4,26.6,22.4z"/>
</svg>
